G04*
G04 #@! TF.GenerationSoftware,Altium Limited,Altium Designer,22.6.1 (34)*
G04*
G04 Layer_Physical_Order=2*
G04 Layer_Color=1265191*
%FSLAX43Y43*%
%MOMM*%
G71*
G04*
G04 #@! TF.SameCoordinates,0FC3826A-A7BB-4A87-9495-0F633158E898*
G04*
G04*
G04 #@! TF.FilePolarity,Positive*
G04*
G01*
G75*
%ADD58R,1.700X1.700*%
%ADD59C,1.700*%
%ADD60R,1.700X1.700*%
%ADD61C,2.100*%
%ADD62C,0.500*%
%ADD63C,0.700*%
%ADD64C,1.000*%
G36*
X68541Y20597D02*
X68541Y20597D01*
X68768D01*
X69217Y20538D01*
X69655Y20421D01*
X70074Y20247D01*
X70467Y20020D01*
X70827Y19744D01*
X71147Y19424D01*
X71423Y19064D01*
X71650Y18671D01*
X71824Y18252D01*
X71941Y17815D01*
X72000Y17365D01*
X72000Y17138D01*
X72000Y-1341D01*
X72000Y-1341D01*
X72000Y-1431D01*
X71965Y-1607D01*
X71896Y-1773D01*
X71796Y-1923D01*
X71669Y-2050D01*
X71520Y-2150D01*
X71354Y-2219D01*
X71177Y-2254D01*
X56212D01*
X56178Y-2127D01*
X56258Y-2080D01*
X56482Y-1857D01*
X56639Y-1583D01*
X56721Y-1278D01*
Y-962D01*
X56639Y-657D01*
X56482Y-383D01*
X56258Y-160D01*
X55984Y-2D01*
X55679Y80D01*
X55363D01*
X55058Y-2D01*
X54784Y-160D01*
X54561Y-383D01*
X54403Y-657D01*
X54321Y-962D01*
Y-1278D01*
X54403Y-1583D01*
X54561Y-1857D01*
X54784Y-2080D01*
X54864Y-2127D01*
X54830Y-2254D01*
X54124D01*
X54031Y-2170D01*
X54031Y-2127D01*
Y-1520D01*
X51931D01*
Y-2127D01*
X51931Y-2170D01*
X51839Y-2254D01*
X29037D01*
X29003Y-2127D01*
X29083Y-2080D01*
X29306Y-1857D01*
X29464Y-1583D01*
X29546Y-1278D01*
Y-962D01*
X29464Y-657D01*
X29306Y-383D01*
X29083Y-160D01*
X28809Y-2D01*
X28504Y80D01*
X28188D01*
X27883Y-2D01*
X27609Y-160D01*
X27386Y-383D01*
X27228Y-657D01*
X27146Y-962D01*
Y-1278D01*
X27228Y-1583D01*
X27386Y-1857D01*
X27609Y-2080D01*
X27689Y-2127D01*
X27655Y-2254D01*
X26497D01*
X26463Y-2127D01*
X26543Y-2080D01*
X26766Y-1857D01*
X26924Y-1583D01*
X27006Y-1278D01*
Y-962D01*
X26924Y-657D01*
X26766Y-383D01*
X26543Y-160D01*
X26269Y-2D01*
X25964Y80D01*
X25648D01*
X25343Y-2D01*
X25069Y-160D01*
X24846Y-383D01*
X24688Y-657D01*
X24606Y-962D01*
Y-1278D01*
X24688Y-1583D01*
X24846Y-1857D01*
X25069Y-2080D01*
X25149Y-2127D01*
X25115Y-2254D01*
X24408D01*
X24316Y-2170D01*
X24316Y-2127D01*
Y-1520D01*
X22216D01*
Y-2127D01*
X22216Y-2170D01*
X22123Y-2254D01*
X-3445D01*
X-3479Y-2127D01*
X-3399Y-2080D01*
X-3175Y-1857D01*
X-3017Y-1583D01*
X-2935Y-1278D01*
Y-962D01*
X-3017Y-657D01*
X-3175Y-383D01*
X-3399Y-160D01*
X-3672Y-2D01*
X-3977Y80D01*
X-4293D01*
X-4599Y-2D01*
X-4872Y-160D01*
X-5096Y-383D01*
X-5254Y-657D01*
X-5335Y-962D01*
Y-1278D01*
X-5254Y-1583D01*
X-5096Y-1857D01*
X-4872Y-2080D01*
X-4792Y-2127D01*
X-4826Y-2254D01*
X-5985D01*
X-6019Y-2127D01*
X-5939Y-2080D01*
X-5715Y-1857D01*
X-5557Y-1583D01*
X-5475Y-1278D01*
Y-962D01*
X-5557Y-657D01*
X-5715Y-383D01*
X-5939Y-160D01*
X-6212Y-2D01*
X-6517Y80D01*
X-6833D01*
X-7139Y-2D01*
X-7412Y-160D01*
X-7636Y-383D01*
X-7794Y-657D01*
X-7875Y-962D01*
Y-1278D01*
X-7794Y-1583D01*
X-7636Y-1857D01*
X-7412Y-2080D01*
X-7332Y-2127D01*
X-7366Y-2254D01*
X-8073D01*
X-8165Y-2170D01*
X-8165Y-2127D01*
Y-1520D01*
X-10265D01*
Y-2127D01*
X-10265Y-2170D01*
X-10358Y-2254D01*
X-35959D01*
X-35993Y-2127D01*
X-35899Y-2072D01*
X-35675Y-1849D01*
X-35517Y-1575D01*
X-35436Y-1270D01*
Y-954D01*
X-35517Y-649D01*
X-35675Y-375D01*
X-35899Y-152D01*
X-36173Y6D01*
X-36478Y88D01*
X-36794D01*
X-37099Y6D01*
X-37373Y-152D01*
X-37596Y-375D01*
X-37754Y-649D01*
X-37836Y-954D01*
Y-1270D01*
X-37754Y-1575D01*
X-37596Y-1849D01*
X-37373Y-2072D01*
X-37278Y-2127D01*
X-37312Y-2254D01*
X-38499D01*
X-38533Y-2127D01*
X-38439Y-2072D01*
X-38215Y-1849D01*
X-38057Y-1575D01*
X-37976Y-1270D01*
Y-954D01*
X-38057Y-649D01*
X-38215Y-375D01*
X-38439Y-152D01*
X-38713Y6D01*
X-39018Y88D01*
X-39334D01*
X-39639Y6D01*
X-39913Y-152D01*
X-40136Y-375D01*
X-40294Y-649D01*
X-40376Y-954D01*
Y-1270D01*
X-40294Y-1575D01*
X-40136Y-1849D01*
X-39913Y-2072D01*
X-39818Y-2127D01*
X-39852Y-2254D01*
X-40580D01*
X-40666Y-2162D01*
X-40666Y-2127D01*
Y-1512D01*
X-42766D01*
Y-2127D01*
X-42766Y-2162D01*
X-42851Y-2254D01*
X-71277D01*
X-71348Y-2254D01*
X-71488Y-2226D01*
X-71619Y-2171D01*
X-71738Y-2092D01*
X-71838Y-1991D01*
X-71918Y-1873D01*
X-71972Y-1741D01*
X-72000Y-1602D01*
X-72000Y-1530D01*
Y17501D01*
Y17704D01*
X-71947Y18106D01*
X-71842Y18498D01*
X-71687Y18873D01*
X-71484Y19225D01*
X-71237Y19547D01*
X-70950Y19834D01*
X-70628Y20081D01*
X-70276Y20284D01*
X-69901Y20439D01*
X-69509Y20544D01*
X-69106Y20597D01*
X68541D01*
X68541Y20597D01*
D02*
G37*
G36*
X67595Y-2999D02*
Y-2999D01*
X67595D01*
X67716Y-3006D01*
X67859Y-3034D01*
X68023Y-3102D01*
X68172Y-3201D01*
X68298Y-3328D01*
X68397Y-3476D01*
X68465Y-3641D01*
X68500Y-3816D01*
Y-3905D01*
X68500Y-19574D01*
X68500Y-19574D01*
Y-19665D01*
X68464Y-19844D01*
X68395Y-20012D01*
X68293Y-20164D01*
X68165Y-20293D01*
X68013Y-20394D01*
X67845Y-20464D01*
X67666Y-20499D01*
X-66841D01*
X-66841Y-20499D01*
X-66953Y-20499D01*
X-67172Y-20456D01*
X-67379Y-20370D01*
X-67564Y-20246D01*
X-67722Y-20088D01*
X-67846Y-19902D01*
X-67932Y-19696D01*
X-67976Y-19477D01*
X-67976Y-19365D01*
Y-4157D01*
X-67976Y-4043D01*
X-67931Y-3820D01*
X-67844Y-3609D01*
X-67717Y-3419D01*
X-67556Y-3258D01*
X-67366Y-3131D01*
X-67155Y-3044D01*
X-66932Y-2999D01*
X-66818Y-2999D01*
X67595Y-2999D01*
X67595Y-2999D01*
D02*
G37*
%LPC*%
G36*
X44066Y16793D02*
Y16335D01*
X44523D01*
X44441Y16478D01*
X44208Y16710D01*
X44066Y16793D01*
D02*
G37*
G36*
X-53675Y16793D02*
Y16335D01*
X-53217D01*
X-53300Y16478D01*
X-53532Y16710D01*
X-53675Y16793D01*
D02*
G37*
G36*
X-21116Y16793D02*
Y16335D01*
X-20659D01*
X-20741Y16478D01*
X-20974Y16710D01*
X-21116Y16793D01*
D02*
G37*
G36*
X11375Y16793D02*
Y16335D01*
X11833D01*
X11750Y16478D01*
X11518Y16710D01*
X11375Y16793D01*
D02*
G37*
G36*
X10125Y16793D02*
X9983Y16710D01*
X9750Y16478D01*
X9668Y16335D01*
X10125D01*
Y16793D01*
D02*
G37*
G36*
X-22366Y16793D02*
X-22509Y16710D01*
X-22742Y16478D01*
X-22824Y16335D01*
X-22366D01*
Y16793D01*
D02*
G37*
G36*
X-54925Y16793D02*
X-55067Y16710D01*
X-55300Y16478D01*
X-55382Y16335D01*
X-54925D01*
Y16793D01*
D02*
G37*
G36*
X42816Y16793D02*
X42673Y16710D01*
X42440Y16478D01*
X42358Y16335D01*
X42816D01*
Y16793D01*
D02*
G37*
G36*
X65625Y17298D02*
X63225D01*
Y14898D01*
X65625D01*
Y17298D01*
D02*
G37*
G36*
X10125Y15085D02*
X9668D01*
X9750Y14943D01*
X9983Y14710D01*
X10125Y14628D01*
Y15085D01*
D02*
G37*
G36*
X-22366D02*
X-22824D01*
X-22742Y14943D01*
X-22509Y14710D01*
X-22366Y14628D01*
Y15085D01*
D02*
G37*
G36*
X44523D02*
X44066D01*
Y14628D01*
X44208Y14710D01*
X44441Y14943D01*
X44523Y15085D01*
D02*
G37*
G36*
X-53217D02*
X-53675D01*
Y14628D01*
X-53532Y14710D01*
X-53300Y14943D01*
X-53217Y15085D01*
D02*
G37*
G36*
X-54925D02*
X-55382D01*
X-55300Y14943D01*
X-55067Y14710D01*
X-54925Y14628D01*
Y15085D01*
D02*
G37*
G36*
X42816D02*
X42358D01*
X42440Y14943D01*
X42673Y14710D01*
X42816Y14628D01*
Y15085D01*
D02*
G37*
G36*
X-20659D02*
X-21116D01*
Y14628D01*
X-20974Y14710D01*
X-20741Y14943D01*
X-20659Y15085D01*
D02*
G37*
G36*
X11833D02*
X11375D01*
Y14628D01*
X11518Y14710D01*
X11750Y14943D01*
X11833Y15085D01*
D02*
G37*
G36*
X35625Y17110D02*
X35256D01*
X34900Y17015D01*
X34581Y16830D01*
X34320Y16570D01*
X34136Y16251D01*
X34041Y15894D01*
Y15526D01*
X34136Y15170D01*
X34320Y14851D01*
X34581Y14590D01*
X34900Y14406D01*
X35256Y14310D01*
X35625D01*
X35981Y14406D01*
X36300Y14590D01*
X36561Y14851D01*
X36745Y15170D01*
X36841Y15526D01*
Y15894D01*
X36745Y16251D01*
X36561Y16570D01*
X36300Y16830D01*
X35981Y17015D01*
X35625Y17110D01*
D02*
G37*
G36*
X2934D02*
X2566D01*
X2210Y17015D01*
X1890Y16830D01*
X1630Y16570D01*
X1445Y16251D01*
X1350Y15894D01*
Y15526D01*
X1445Y15170D01*
X1630Y14851D01*
X1890Y14590D01*
X2210Y14406D01*
X2566Y14310D01*
X2934D01*
X3290Y14406D01*
X3610Y14590D01*
X3870Y14851D01*
X4055Y15170D01*
X4150Y15526D01*
Y15894D01*
X4055Y16251D01*
X3870Y16570D01*
X3610Y16830D01*
X3290Y17015D01*
X2934Y17110D01*
D02*
G37*
G36*
X-29557D02*
X-29926D01*
X-30282Y17015D01*
X-30601Y16830D01*
X-30862Y16570D01*
X-31046Y16251D01*
X-31141Y15894D01*
Y15526D01*
X-31046Y15170D01*
X-30862Y14851D01*
X-30601Y14590D01*
X-30282Y14406D01*
X-29926Y14310D01*
X-29557D01*
X-29201Y14406D01*
X-28882Y14590D01*
X-28621Y14851D01*
X-28437Y15170D01*
X-28341Y15526D01*
Y15894D01*
X-28437Y16251D01*
X-28621Y16570D01*
X-28882Y16830D01*
X-29201Y17015D01*
X-29557Y17110D01*
D02*
G37*
G36*
X-62116D02*
X-62484D01*
X-62840Y17015D01*
X-63160Y16830D01*
X-63420Y16570D01*
X-63605Y16251D01*
X-63700Y15894D01*
Y15526D01*
X-63605Y15170D01*
X-63420Y14851D01*
X-63160Y14590D01*
X-62840Y14406D01*
X-62484Y14310D01*
X-62116D01*
X-61760Y14406D01*
X-61440Y14590D01*
X-61180Y14851D01*
X-60995Y15170D01*
X-60900Y15526D01*
Y15894D01*
X-60995Y16251D01*
X-61180Y16570D01*
X-61440Y16830D01*
X-61760Y17015D01*
X-62116Y17110D01*
D02*
G37*
G36*
X39593Y17260D02*
X39288D01*
X38988Y17201D01*
X38706Y17084D01*
X38453Y16914D01*
X38237Y16698D01*
X38067Y16444D01*
X37950Y16162D01*
X37891Y15863D01*
Y15557D01*
X37950Y15258D01*
X38067Y14976D01*
X38237Y14722D01*
X38453Y14506D01*
X38706Y14337D01*
X38988Y14220D01*
X39288Y14160D01*
X39593D01*
X39893Y14220D01*
X40175Y14337D01*
X40429Y14506D01*
X40645Y14722D01*
X40814Y14976D01*
X40931Y15258D01*
X40991Y15557D01*
Y15863D01*
X40931Y16162D01*
X40814Y16444D01*
X40645Y16698D01*
X40429Y16914D01*
X40175Y17084D01*
X39893Y17201D01*
X39593Y17260D01*
D02*
G37*
G36*
X6903D02*
X6597D01*
X6298Y17201D01*
X6016Y17084D01*
X5762Y16914D01*
X5546Y16698D01*
X5376Y16444D01*
X5260Y16162D01*
X5200Y15863D01*
Y15557D01*
X5260Y15258D01*
X5376Y14976D01*
X5546Y14722D01*
X5762Y14506D01*
X6016Y14337D01*
X6298Y14220D01*
X6597Y14160D01*
X6903D01*
X7202Y14220D01*
X7484Y14337D01*
X7738Y14506D01*
X7954Y14722D01*
X8124Y14976D01*
X8240Y15258D01*
X8300Y15557D01*
Y15863D01*
X8240Y16162D01*
X8124Y16444D01*
X7954Y16698D01*
X7738Y16914D01*
X7484Y17084D01*
X7202Y17201D01*
X6903Y17260D01*
D02*
G37*
G36*
X-25589D02*
X-25894D01*
X-26194Y17201D01*
X-26476Y17084D01*
X-26730Y16914D01*
X-26945Y16698D01*
X-27115Y16444D01*
X-27232Y16162D01*
X-27291Y15863D01*
Y15557D01*
X-27232Y15258D01*
X-27115Y14976D01*
X-26945Y14722D01*
X-26730Y14506D01*
X-26476Y14337D01*
X-26194Y14220D01*
X-25894Y14160D01*
X-25589D01*
X-25289Y14220D01*
X-25007Y14337D01*
X-24753Y14506D01*
X-24538Y14722D01*
X-24368Y14976D01*
X-24251Y15258D01*
X-24191Y15557D01*
Y15863D01*
X-24251Y16162D01*
X-24368Y16444D01*
X-24538Y16698D01*
X-24753Y16914D01*
X-25007Y17084D01*
X-25289Y17201D01*
X-25589Y17260D01*
D02*
G37*
G36*
X-58147D02*
X-58453D01*
X-58752Y17201D01*
X-59034Y17084D01*
X-59288Y16914D01*
X-59504Y16698D01*
X-59674Y16444D01*
X-59790Y16162D01*
X-59850Y15863D01*
Y15557D01*
X-59790Y15258D01*
X-59674Y14976D01*
X-59504Y14722D01*
X-59288Y14506D01*
X-59034Y14337D01*
X-58752Y14220D01*
X-58453Y14160D01*
X-58147D01*
X-57848Y14220D01*
X-57566Y14337D01*
X-57312Y14506D01*
X-57096Y14722D01*
X-56926Y14976D01*
X-56810Y15258D01*
X-56750Y15557D01*
Y15863D01*
X-56810Y16162D01*
X-56926Y16444D01*
X-57096Y16698D01*
X-57312Y16914D01*
X-57566Y17084D01*
X-57848Y17201D01*
X-58147Y17260D01*
D02*
G37*
G36*
X64825Y14538D02*
Y13958D01*
X65405D01*
X65404Y13963D01*
X65265Y14203D01*
X65070Y14398D01*
X64830Y14536D01*
X64825Y14538D01*
D02*
G37*
G36*
X64025Y14538D02*
X64020Y14536D01*
X63780Y14398D01*
X63585Y14203D01*
X63447Y13963D01*
X63445Y13958D01*
X64025D01*
Y14538D01*
D02*
G37*
G36*
Y13158D02*
X63445D01*
X63447Y13153D01*
X63585Y12913D01*
X63780Y12718D01*
X64020Y12579D01*
X64025Y12578D01*
Y13158D01*
D02*
G37*
G36*
X65405D02*
X64825D01*
Y12578D01*
X64830Y12579D01*
X65070Y12718D01*
X65265Y12913D01*
X65404Y13153D01*
X65405Y13158D01*
D02*
G37*
G36*
X-40865Y13600D02*
X-41104D01*
X-41325Y13509D01*
X-41493Y13340D01*
X-41585Y13119D01*
Y12881D01*
X-41493Y12660D01*
X-41325Y12491D01*
X-41104Y12400D01*
X-40865D01*
X-40645Y12491D01*
X-40476Y12660D01*
X-40385Y12881D01*
Y13119D01*
X-40476Y13340D01*
X-40645Y13509D01*
X-40865Y13600D01*
D02*
G37*
G36*
X24072Y13592D02*
X23833D01*
X23612Y13501D01*
X23444Y13332D01*
X23352Y13112D01*
Y12873D01*
X23444Y12652D01*
X23612Y12484D01*
X23833Y12392D01*
X24072D01*
X24292Y12484D01*
X24461Y12652D01*
X24552Y12873D01*
Y13112D01*
X24461Y13332D01*
X24292Y13501D01*
X24072Y13592D01*
D02*
G37*
G36*
X-8410D02*
X-8648D01*
X-8869Y13501D01*
X-9038Y13332D01*
X-9129Y13112D01*
Y12873D01*
X-9038Y12652D01*
X-8869Y12484D01*
X-8648Y12392D01*
X-8410D01*
X-8189Y12484D01*
X-8020Y12652D01*
X-7929Y12873D01*
Y13112D01*
X-8020Y13332D01*
X-8189Y13501D01*
X-8410Y13592D01*
D02*
G37*
G36*
X26479Y11907D02*
X26241D01*
X26020Y11816D01*
X25851Y11647D01*
X25760Y11426D01*
Y11188D01*
X25851Y10967D01*
X26020Y10798D01*
X26241Y10707D01*
X26479D01*
X26700Y10798D01*
X26869Y10967D01*
X26960Y11188D01*
Y11426D01*
X26869Y11647D01*
X26700Y11816D01*
X26479Y11907D01*
D02*
G37*
G36*
X-38508Y11895D02*
X-38747D01*
X-38968Y11804D01*
X-39136Y11635D01*
X-39228Y11415D01*
Y11176D01*
X-39136Y10955D01*
X-38968Y10787D01*
X-38747Y10695D01*
X-38508D01*
X-38288Y10787D01*
X-38119Y10955D01*
X-38028Y11176D01*
Y11415D01*
X-38119Y11635D01*
X-38288Y11804D01*
X-38508Y11895D01*
D02*
G37*
G36*
X-5983Y11876D02*
X-6222D01*
X-6442Y11785D01*
X-6611Y11616D01*
X-6702Y11395D01*
Y11157D01*
X-6611Y10936D01*
X-6442Y10767D01*
X-6222Y10676D01*
X-5983D01*
X-5762Y10767D01*
X-5594Y10936D01*
X-5502Y11157D01*
Y11395D01*
X-5594Y11616D01*
X-5762Y11785D01*
X-5983Y11876D01*
D02*
G37*
G36*
X-44690Y11325D02*
X-44929D01*
X-45149Y11234D01*
X-45318Y11065D01*
X-45410Y10844D01*
Y10606D01*
X-45318Y10385D01*
X-45149Y10216D01*
X-44929Y10125D01*
X-44690D01*
X-44470Y10216D01*
X-44301Y10385D01*
X-44210Y10606D01*
Y10844D01*
X-44301Y11065D01*
X-44470Y11234D01*
X-44690Y11325D01*
D02*
G37*
G36*
X20291Y11317D02*
X20053D01*
X19832Y11225D01*
X19663Y11057D01*
X19572Y10836D01*
Y10597D01*
X19663Y10377D01*
X19832Y10208D01*
X20053Y10117D01*
X20291D01*
X20512Y10208D01*
X20681Y10377D01*
X20772Y10597D01*
Y10836D01*
X20681Y11057D01*
X20512Y11225D01*
X20291Y11317D01*
D02*
G37*
G36*
X-12190D02*
X-12429D01*
X-12649Y11225D01*
X-12818Y11057D01*
X-12909Y10836D01*
Y10597D01*
X-12818Y10377D01*
X-12649Y10208D01*
X-12429Y10117D01*
X-12190D01*
X-11969Y10208D01*
X-11801Y10377D01*
X-11709Y10597D01*
Y10836D01*
X-11801Y11057D01*
X-11969Y11225D01*
X-12190Y11317D01*
D02*
G37*
G36*
X-44154Y9513D02*
X-44393D01*
X-44613Y9422D01*
X-44782Y9253D01*
X-44873Y9033D01*
Y8794D01*
X-44782Y8573D01*
X-44613Y8405D01*
X-44393Y8313D01*
X-44154D01*
X-43933Y8405D01*
X-43764Y8573D01*
X-43673Y8794D01*
Y9033D01*
X-43764Y9253D01*
X-43933Y9422D01*
X-44154Y9513D01*
D02*
G37*
G36*
X20828Y9505D02*
X20589D01*
X20368Y9414D01*
X20200Y9245D01*
X20108Y9024D01*
Y8786D01*
X20200Y8565D01*
X20368Y8396D01*
X20589Y8305D01*
X20828D01*
X21048Y8396D01*
X21217Y8565D01*
X21308Y8786D01*
Y9024D01*
X21217Y9245D01*
X21048Y9414D01*
X20828Y9505D01*
D02*
G37*
G36*
X-11654D02*
X-11892D01*
X-12113Y9414D01*
X-12282Y9245D01*
X-12373Y9024D01*
Y8786D01*
X-12282Y8565D01*
X-12113Y8396D01*
X-11892Y8305D01*
X-11654D01*
X-11433Y8396D01*
X-11264Y8565D01*
X-11173Y8786D01*
Y9024D01*
X-11264Y9245D01*
X-11433Y9414D01*
X-11654Y9505D01*
D02*
G37*
G36*
X3921Y11301D02*
X3737D01*
X3559Y11253D01*
X3399Y11161D01*
X3269Y11030D01*
X3177Y10871D01*
X3129Y10693D01*
Y10508D01*
X3177Y10330D01*
X3259Y10188D01*
X3257Y10186D01*
X3165Y10027D01*
X3117Y9849D01*
Y9665D01*
X3165Y9486D01*
X3247Y9344D01*
X3246Y9343D01*
X3154Y9183D01*
X3106Y9005D01*
Y8821D01*
X3154Y8643D01*
X3246Y8483D01*
X3376Y8353D01*
X3536Y8260D01*
X3714Y8213D01*
X3898D01*
X4076Y8260D01*
X4236Y8353D01*
X4366Y8483D01*
X4458Y8643D01*
X4506Y8821D01*
Y9005D01*
X4458Y9183D01*
X4376Y9325D01*
X4378Y9327D01*
X4470Y9486D01*
X4517Y9665D01*
Y9849D01*
X4470Y10027D01*
X4387Y10169D01*
X4389Y10171D01*
X4481Y10330D01*
X4529Y10508D01*
Y10693D01*
X4481Y10871D01*
X4389Y11030D01*
X4259Y11161D01*
X4099Y11253D01*
X3921Y11301D01*
D02*
G37*
G36*
X-28565D02*
X-28750D01*
X-28928Y11253D01*
X-29087Y11161D01*
X-29218Y11030D01*
X-29310Y10871D01*
X-29358Y10693D01*
Y10508D01*
X-29310Y10330D01*
X-29228Y10188D01*
X-29229Y10186D01*
X-29321Y10027D01*
X-29369Y9849D01*
Y9665D01*
X-29321Y9486D01*
X-29239Y9344D01*
X-29241Y9343D01*
X-29333Y9183D01*
X-29381Y9005D01*
Y8821D01*
X-29333Y8643D01*
X-29241Y8483D01*
X-29111Y8353D01*
X-28951Y8260D01*
X-28773Y8213D01*
X-28589D01*
X-28411Y8260D01*
X-28251Y8353D01*
X-28121Y8483D01*
X-28028Y8643D01*
X-27981Y8821D01*
Y9005D01*
X-28028Y9183D01*
X-28111Y9325D01*
X-28109Y9327D01*
X-28017Y9486D01*
X-27969Y9665D01*
Y9849D01*
X-28017Y10027D01*
X-28099Y10169D01*
X-28097Y10171D01*
X-28005Y10330D01*
X-27958Y10508D01*
Y10693D01*
X-28005Y10871D01*
X-28097Y11030D01*
X-28228Y11161D01*
X-28387Y11253D01*
X-28565Y11301D01*
D02*
G37*
G36*
X-61134D02*
X-61319D01*
X-61497Y11253D01*
X-61656Y11161D01*
X-61787Y11030D01*
X-61879Y10871D01*
X-61927Y10693D01*
Y10508D01*
X-61879Y10330D01*
X-61797Y10188D01*
X-61798Y10186D01*
X-61890Y10027D01*
X-61938Y9849D01*
Y9665D01*
X-61890Y9486D01*
X-61808Y9344D01*
X-61810Y9343D01*
X-61902Y9183D01*
X-61950Y9005D01*
Y8821D01*
X-61902Y8643D01*
X-61810Y8483D01*
X-61680Y8353D01*
X-61520Y8260D01*
X-61342Y8213D01*
X-61158D01*
X-60980Y8260D01*
X-60820Y8353D01*
X-60690Y8483D01*
X-60597Y8643D01*
X-60550Y8821D01*
Y9005D01*
X-60597Y9183D01*
X-60680Y9325D01*
X-60678Y9327D01*
X-60586Y9486D01*
X-60538Y9665D01*
Y9849D01*
X-60586Y10027D01*
X-60668Y10169D01*
X-60666Y10171D01*
X-60574Y10330D01*
X-60527Y10508D01*
Y10693D01*
X-60574Y10871D01*
X-60666Y11030D01*
X-60797Y11161D01*
X-60956Y11253D01*
X-61134Y11301D01*
D02*
G37*
G36*
X49638Y8255D02*
X49399D01*
X49178Y8163D01*
X49010Y7994D01*
X48918Y7774D01*
Y7535D01*
X49010Y7315D01*
X49178Y7146D01*
X49399Y7055D01*
X49638D01*
X49858Y7146D01*
X50027Y7315D01*
X50118Y7535D01*
Y7774D01*
X50027Y7994D01*
X49858Y8163D01*
X49638Y8255D01*
D02*
G37*
G36*
X9842Y8208D02*
X9603D01*
X9383Y8116D01*
X9214Y7947D01*
X9123Y7727D01*
Y7488D01*
X9214Y7268D01*
X9383Y7099D01*
X9603Y7008D01*
X9842D01*
X10063Y7099D01*
X10231Y7268D01*
X10323Y7488D01*
Y7727D01*
X10231Y7947D01*
X10063Y8116D01*
X9842Y8208D01*
D02*
G37*
G36*
X-22649D02*
X-22888D01*
X-23109Y8116D01*
X-23277Y7947D01*
X-23369Y7727D01*
Y7488D01*
X-23277Y7268D01*
X-23109Y7099D01*
X-22888Y7008D01*
X-22649D01*
X-22429Y7099D01*
X-22260Y7268D01*
X-22169Y7488D01*
Y7727D01*
X-22260Y7947D01*
X-22429Y8116D01*
X-22649Y8208D01*
D02*
G37*
G36*
X-50702Y8208D02*
X-50940D01*
X-51161Y8116D01*
X-51330Y7947D01*
X-51421Y7727D01*
Y7488D01*
X-51330Y7268D01*
X-51161Y7099D01*
X-50940Y7008D01*
X-50702D01*
X-50481Y7099D01*
X-50312Y7268D01*
X-50221Y7488D01*
Y7727D01*
X-50312Y7947D01*
X-50481Y8116D01*
X-50702Y8208D01*
D02*
G37*
G36*
X-55324D02*
X-55563D01*
X-55783Y8116D01*
X-55952Y7947D01*
X-56043Y7727D01*
Y7488D01*
X-55952Y7268D01*
X-55783Y7099D01*
X-55563Y7008D01*
X-55324D01*
X-55103Y7099D01*
X-54935Y7268D01*
X-54843Y7488D01*
Y7727D01*
X-54935Y7947D01*
X-55103Y8116D01*
X-55324Y8208D01*
D02*
G37*
G36*
X14280Y8199D02*
X14041D01*
X13821Y8108D01*
X13652Y7939D01*
X13560Y7719D01*
Y7480D01*
X13652Y7259D01*
X13821Y7091D01*
X14041Y6999D01*
X14280D01*
X14500Y7091D01*
X14669Y7259D01*
X14760Y7480D01*
Y7719D01*
X14669Y7939D01*
X14500Y8108D01*
X14280Y8199D01*
D02*
G37*
G36*
X-18201D02*
X-18440D01*
X-18661Y8108D01*
X-18829Y7939D01*
X-18921Y7719D01*
Y7480D01*
X-18829Y7259D01*
X-18661Y7091D01*
X-18440Y6999D01*
X-18201D01*
X-17981Y7091D01*
X-17812Y7259D01*
X-17721Y7480D01*
Y7719D01*
X-17812Y7939D01*
X-17981Y8108D01*
X-18201Y8199D01*
D02*
G37*
G36*
X-38304Y7390D02*
X-38543D01*
X-38764Y7299D01*
X-38932Y7130D01*
X-39024Y6910D01*
Y6671D01*
X-38932Y6450D01*
X-38764Y6282D01*
X-38543Y6190D01*
X-38304D01*
X-38084Y6282D01*
X-37915Y6450D01*
X-37824Y6671D01*
Y6910D01*
X-37915Y7130D01*
X-38084Y7299D01*
X-38304Y7390D01*
D02*
G37*
G36*
X-5804Y7382D02*
X-6043D01*
X-6263Y7291D01*
X-6432Y7122D01*
X-6523Y6901D01*
Y6663D01*
X-6432Y6442D01*
X-6263Y6273D01*
X-6043Y6182D01*
X-5804D01*
X-5584Y6273D01*
X-5415Y6442D01*
X-5323Y6663D01*
Y6901D01*
X-5415Y7122D01*
X-5584Y7291D01*
X-5804Y7382D01*
D02*
G37*
G36*
X26679Y7333D02*
X26440D01*
X26220Y7242D01*
X26051Y7073D01*
X25959Y6853D01*
Y6614D01*
X26051Y6394D01*
X26220Y6225D01*
X26440Y6133D01*
X26679D01*
X26899Y6225D01*
X27068Y6394D01*
X27160Y6614D01*
Y6853D01*
X27068Y7073D01*
X26899Y7242D01*
X26679Y7333D01*
D02*
G37*
G36*
X-44499Y6854D02*
X-44738D01*
X-44958Y6763D01*
X-45127Y6594D01*
X-45218Y6374D01*
Y6135D01*
X-45127Y5915D01*
X-44958Y5746D01*
X-44738Y5655D01*
X-44499D01*
X-44278Y5746D01*
X-44110Y5915D01*
X-44018Y6135D01*
Y6374D01*
X-44110Y6594D01*
X-44278Y6763D01*
X-44499Y6854D01*
D02*
G37*
G36*
X51770Y6841D02*
X51531D01*
X51310Y6750D01*
X51142Y6581D01*
X51050Y6360D01*
Y6122D01*
X51142Y5901D01*
X51310Y5733D01*
X51531Y5641D01*
X51770D01*
X51990Y5733D01*
X52159Y5901D01*
X52250Y6122D01*
Y6360D01*
X52159Y6581D01*
X51990Y6750D01*
X51770Y6841D01*
D02*
G37*
G36*
X20514Y6841D02*
X20276D01*
X20055Y6749D01*
X19886Y6581D01*
X19795Y6360D01*
Y6121D01*
X19886Y5901D01*
X20055Y5732D01*
X20276Y5641D01*
X20514D01*
X20735Y5732D01*
X20904Y5901D01*
X20995Y6121D01*
Y6360D01*
X20904Y6581D01*
X20735Y6749D01*
X20514Y6841D01*
D02*
G37*
G36*
X-11967D02*
X-12206D01*
X-12426Y6749D01*
X-12595Y6581D01*
X-12686Y6360D01*
Y6121D01*
X-12595Y5901D01*
X-12426Y5732D01*
X-12206Y5641D01*
X-11967D01*
X-11746Y5732D01*
X-11578Y5901D01*
X-11486Y6121D01*
Y6360D01*
X-11578Y6581D01*
X-11746Y6749D01*
X-11967Y6841D01*
D02*
G37*
G36*
X64583Y7932D02*
X64267D01*
X63962Y7850D01*
X63688Y7692D01*
X63465Y7468D01*
X63307Y7195D01*
X63225Y6890D01*
Y6574D01*
X63307Y6268D01*
X63465Y5995D01*
X63688Y5771D01*
X63962Y5613D01*
X64267Y5532D01*
X64583D01*
X64888Y5613D01*
X65162Y5771D01*
X65385Y5995D01*
X65543Y6268D01*
X65625Y6574D01*
Y6890D01*
X65543Y7195D01*
X65385Y7468D01*
X65162Y7692D01*
X64888Y7850D01*
X64583Y7932D01*
D02*
G37*
G36*
X50375Y6689D02*
X50137D01*
X49916Y6597D01*
X49747Y6429D01*
X49656Y6208D01*
Y5969D01*
X49747Y5749D01*
X49916Y5580D01*
X50137Y5489D01*
X50375D01*
X50596Y5580D01*
X50765Y5749D01*
X50856Y5969D01*
Y6208D01*
X50765Y6429D01*
X50596Y6597D01*
X50375Y6689D01*
D02*
G37*
G36*
X65475Y5242D02*
X64825D01*
Y4592D01*
X65475D01*
Y5242D01*
D02*
G37*
G36*
X64025D02*
X63375D01*
Y4592D01*
X64025D01*
Y5242D01*
D02*
G37*
G36*
X46731Y4779D02*
X46492D01*
X46272Y4688D01*
X46103Y4519D01*
X46012Y4299D01*
Y4060D01*
X46103Y3839D01*
X46272Y3671D01*
X46492Y3579D01*
X46731D01*
X46952Y3671D01*
X47120Y3839D01*
X47212Y4060D01*
Y4299D01*
X47120Y4519D01*
X46952Y4688D01*
X46731Y4779D01*
D02*
G37*
G36*
X65475Y3792D02*
X64825D01*
Y3142D01*
X65475D01*
Y3792D01*
D02*
G37*
G36*
X64025D02*
X63375D01*
Y3142D01*
X64025D01*
Y3792D01*
D02*
G37*
G36*
X-40666Y-62D02*
X-41316D01*
Y-712D01*
X-40666D01*
Y-62D01*
D02*
G37*
G36*
X-42116D02*
X-42766D01*
Y-712D01*
X-42116D01*
Y-62D01*
D02*
G37*
G36*
X54031Y-70D02*
X53381D01*
Y-720D01*
X54031D01*
Y-70D01*
D02*
G37*
G36*
X52581D02*
X51931D01*
Y-720D01*
X52581D01*
Y-70D01*
D02*
G37*
G36*
X24316D02*
X23666D01*
Y-720D01*
X24316D01*
Y-70D01*
D02*
G37*
G36*
X22866D02*
X22216D01*
Y-720D01*
X22866D01*
Y-70D01*
D02*
G37*
G36*
X-8165D02*
X-8815D01*
Y-720D01*
X-8165D01*
Y-70D01*
D02*
G37*
G36*
X-9615D02*
X-10265D01*
Y-720D01*
X-9615D01*
Y-70D01*
D02*
G37*
G36*
X61088Y-3302D02*
X60904D01*
X60726Y-3349D01*
X60566Y-3441D01*
X60436Y-3572D01*
X60344Y-3731D01*
X60296Y-3909D01*
Y-4094D01*
X60320Y-4185D01*
X60298Y-4226D01*
X60220Y-4299D01*
X60073D01*
X59895Y-4347D01*
X59749Y-4431D01*
X59604Y-4347D01*
X59426Y-4299D01*
X59279D01*
X59200Y-4226D01*
X59178Y-4185D01*
X59202Y-4094D01*
Y-3909D01*
X59155Y-3731D01*
X59062Y-3572D01*
X58932Y-3441D01*
X58772Y-3349D01*
X58594Y-3302D01*
X58410D01*
X58232Y-3349D01*
X58073Y-3441D01*
X57942Y-3572D01*
X57850Y-3731D01*
X57802Y-3909D01*
Y-4094D01*
X57850Y-4272D01*
X57942Y-4431D01*
X58011Y-4500D01*
X57942Y-4570D01*
X57850Y-4729D01*
X57802Y-4907D01*
Y-5092D01*
X57850Y-5270D01*
X57942Y-5429D01*
X58073Y-5560D01*
X58232Y-5652D01*
X58410Y-5699D01*
X58594D01*
X58772Y-5652D01*
X58918Y-5568D01*
X59063Y-5652D01*
X59241Y-5699D01*
X59426D01*
X59604Y-5652D01*
X59749Y-5568D01*
X59895Y-5652D01*
X60073Y-5699D01*
X60257D01*
X60435Y-5652D01*
X60567Y-5575D01*
X60726Y-5667D01*
X60904Y-5714D01*
X61088D01*
X61266Y-5667D01*
X61426Y-5574D01*
X61556Y-5444D01*
X61648Y-5284D01*
X61696Y-5106D01*
Y-4922D01*
X61648Y-4744D01*
X61556Y-4584D01*
X61479Y-4508D01*
X61556Y-4431D01*
X61648Y-4272D01*
X61696Y-4094D01*
Y-3909D01*
X61648Y-3731D01*
X61556Y-3572D01*
X61426Y-3441D01*
X61266Y-3349D01*
X61088Y-3302D01*
D02*
G37*
G36*
X-18739Y-5736D02*
X-18923D01*
X-19101Y-5784D01*
X-19261Y-5876D01*
X-19391Y-6006D01*
X-19483Y-6166D01*
X-19531Y-6344D01*
Y-6528D01*
X-19483Y-6706D01*
X-19391Y-6866D01*
X-19261Y-6996D01*
X-19101Y-7088D01*
X-18923Y-7136D01*
X-18739D01*
X-18561Y-7088D01*
X-18401Y-6996D01*
X-18271Y-6866D01*
X-18179Y-6706D01*
X-18131Y-6528D01*
Y-6344D01*
X-18179Y-6166D01*
X-18271Y-6006D01*
X-18401Y-5876D01*
X-18561Y-5784D01*
X-18739Y-5736D01*
D02*
G37*
G36*
X44905Y-5741D02*
X44720D01*
X44542Y-5789D01*
X44383Y-5881D01*
X44252Y-6012D01*
X44160Y-6171D01*
X44113Y-6349D01*
Y-6533D01*
X44160Y-6712D01*
X44252Y-6871D01*
X44383Y-7001D01*
X44542Y-7094D01*
X44720Y-7141D01*
X44905D01*
X45083Y-7094D01*
X45242Y-7001D01*
X45373Y-6871D01*
X45465Y-6712D01*
X45513Y-6533D01*
Y-6349D01*
X45465Y-6171D01*
X45373Y-6012D01*
X45242Y-5881D01*
X45083Y-5789D01*
X44905Y-5741D01*
D02*
G37*
G36*
X13748Y-5751D02*
X13563D01*
X13385Y-5799D01*
X13226Y-5891D01*
X13095Y-6021D01*
X13003Y-6181D01*
X12956Y-6359D01*
Y-6543D01*
X13003Y-6721D01*
X13095Y-6881D01*
X13226Y-7011D01*
X13385Y-7104D01*
X13563Y-7151D01*
X13748D01*
X13926Y-7104D01*
X14085Y-7011D01*
X14216Y-6881D01*
X14308Y-6721D01*
X14356Y-6543D01*
Y-6359D01*
X14308Y-6181D01*
X14216Y-6021D01*
X14085Y-5891D01*
X13926Y-5799D01*
X13748Y-5751D01*
D02*
G37*
G36*
X-51308Y-5774D02*
X-51492D01*
X-51670Y-5822D01*
X-51830Y-5914D01*
X-51960Y-6044D01*
X-52052Y-6204D01*
X-52100Y-6382D01*
Y-6566D01*
X-52052Y-6744D01*
X-51960Y-6904D01*
X-51830Y-7034D01*
X-51670Y-7126D01*
X-51492Y-7174D01*
X-51308D01*
X-51130Y-7126D01*
X-50970Y-7034D01*
X-50840Y-6904D01*
X-50748Y-6744D01*
X-50700Y-6566D01*
Y-6382D01*
X-50748Y-6204D01*
X-50840Y-6044D01*
X-50970Y-5914D01*
X-51130Y-5822D01*
X-51308Y-5774D01*
D02*
G37*
G36*
X-29033Y-12094D02*
X-29217D01*
X-29395Y-12142D01*
X-29555Y-12234D01*
X-29685Y-12365D01*
X-29777Y-12524D01*
X-29825Y-12702D01*
Y-12887D01*
X-29777Y-13065D01*
X-29685Y-13224D01*
X-29555Y-13355D01*
X-29395Y-13447D01*
X-29217Y-13494D01*
X-29033D01*
X-28855Y-13447D01*
X-28695Y-13355D01*
X-28565Y-13224D01*
X-28473Y-13065D01*
X-28425Y-12887D01*
Y-12702D01*
X-28473Y-12524D01*
X-28565Y-12365D01*
X-28695Y-12234D01*
X-28855Y-12142D01*
X-29033Y-12094D01*
D02*
G37*
G36*
X3454Y-12110D02*
X3270D01*
X3092Y-12157D01*
X2932Y-12249D01*
X2802Y-12380D01*
X2709Y-12539D01*
X2662Y-12717D01*
Y-12902D01*
X2709Y-13080D01*
X2802Y-13239D01*
X2932Y-13370D01*
X3092Y-13462D01*
X3270Y-13510D01*
X3454D01*
X3632Y-13462D01*
X3792Y-13370D01*
X3922Y-13239D01*
X4014Y-13080D01*
X4062Y-12902D01*
Y-12717D01*
X4014Y-12539D01*
X3922Y-12380D01*
X3792Y-12249D01*
X3632Y-12157D01*
X3454Y-12110D01*
D02*
G37*
G36*
X-61674Y-12132D02*
X-61859D01*
X-62037Y-12180D01*
X-62196Y-12272D01*
X-62326Y-12402D01*
X-62419Y-12562D01*
X-62466Y-12740D01*
Y-12924D01*
X-62419Y-13102D01*
X-62326Y-13262D01*
X-62196Y-13392D01*
X-62037Y-13485D01*
X-61859Y-13532D01*
X-61674D01*
X-61496Y-13485D01*
X-61337Y-13392D01*
X-61206Y-13262D01*
X-61114Y-13102D01*
X-61066Y-12924D01*
Y-12740D01*
X-61114Y-12562D01*
X-61206Y-12402D01*
X-61337Y-12272D01*
X-61496Y-12180D01*
X-61674Y-12132D01*
D02*
G37*
G36*
X38693Y-15332D02*
Y-15912D01*
X39272D01*
X39271Y-15907D01*
X39133Y-15667D01*
X38937Y-15472D01*
X38698Y-15333D01*
X38693Y-15332D01*
D02*
G37*
G36*
X37893Y-15332D02*
X37887Y-15333D01*
X37648Y-15472D01*
X37452Y-15667D01*
X37314Y-15907D01*
X37313Y-15912D01*
X37893D01*
Y-15332D01*
D02*
G37*
G36*
X7536Y-15342D02*
Y-15922D01*
X8115D01*
X8114Y-15916D01*
X7976Y-15677D01*
X7780Y-15481D01*
X7541Y-15343D01*
X7536Y-15342D01*
D02*
G37*
G36*
X6736Y-15342D02*
X6730Y-15343D01*
X6491Y-15481D01*
X6295Y-15677D01*
X6157Y-15916D01*
X6156Y-15922D01*
X6736D01*
Y-15342D01*
D02*
G37*
G36*
X-25000Y-15376D02*
Y-15955D01*
X-24420D01*
X-24422Y-15950D01*
X-24560Y-15711D01*
X-24755Y-15515D01*
X-24995Y-15377D01*
X-25000Y-15376D01*
D02*
G37*
G36*
X-25800Y-15376D02*
X-25805Y-15377D01*
X-26045Y-15515D01*
X-26240Y-15711D01*
X-26378Y-15950D01*
X-26380Y-15955D01*
X-25800D01*
Y-15376D01*
D02*
G37*
G36*
X-57537Y-15382D02*
Y-15962D01*
X-56958D01*
X-56959Y-15957D01*
X-57097Y-15717D01*
X-57293Y-15522D01*
X-57532Y-15383D01*
X-57537Y-15382D01*
D02*
G37*
G36*
X-58337D02*
X-58343Y-15383D01*
X-58582Y-15522D01*
X-58778Y-15717D01*
X-58916Y-15957D01*
X-58917Y-15962D01*
X-58337D01*
Y-15382D01*
D02*
G37*
G36*
X37893Y-16712D02*
X37313D01*
X37314Y-16717D01*
X37452Y-16957D01*
X37648Y-17152D01*
X37887Y-17290D01*
X37893Y-17292D01*
Y-16712D01*
D02*
G37*
G36*
X39272D02*
X38693D01*
Y-17292D01*
X38698Y-17290D01*
X38937Y-17152D01*
X39133Y-16957D01*
X39271Y-16717D01*
X39272Y-16712D01*
D02*
G37*
G36*
X8115Y-16722D02*
X7536D01*
Y-17302D01*
X7541Y-17300D01*
X7780Y-17162D01*
X7976Y-16966D01*
X8114Y-16727D01*
X8115Y-16722D01*
D02*
G37*
G36*
X6736D02*
X6156D01*
X6157Y-16727D01*
X6295Y-16966D01*
X6491Y-17162D01*
X6730Y-17300D01*
X6736Y-17302D01*
Y-16722D01*
D02*
G37*
G36*
X-25800Y-16755D02*
X-26380D01*
X-26378Y-16761D01*
X-26240Y-17000D01*
X-26045Y-17196D01*
X-25805Y-17334D01*
X-25800Y-17335D01*
Y-16755D01*
D02*
G37*
G36*
X-24420D02*
X-25000D01*
Y-17335D01*
X-24995Y-17334D01*
X-24755Y-17196D01*
X-24560Y-17000D01*
X-24422Y-16761D01*
X-24420Y-16755D01*
D02*
G37*
G36*
X-56958Y-16762D02*
X-57537D01*
Y-17342D01*
X-57532Y-17340D01*
X-57293Y-17202D01*
X-57097Y-17007D01*
X-56959Y-16767D01*
X-56958Y-16762D01*
D02*
G37*
G36*
X-58337D02*
X-58917D01*
X-58916Y-16767D01*
X-58778Y-17007D01*
X-58582Y-17202D01*
X-58343Y-17340D01*
X-58337Y-17342D01*
Y-16762D01*
D02*
G37*
G36*
X42033Y-15112D02*
X39633D01*
Y-17512D01*
X42033D01*
Y-15112D01*
D02*
G37*
G36*
X10876Y-15122D02*
X8476D01*
Y-17522D01*
X10876D01*
Y-15122D01*
D02*
G37*
G36*
X-21660Y-15155D02*
X-24060D01*
Y-17555D01*
X-21660D01*
Y-15155D01*
D02*
G37*
G36*
X-54197Y-15162D02*
X-56597D01*
Y-17562D01*
X-54197D01*
Y-15162D01*
D02*
G37*
%LPD*%
D58*
X64425Y4192D02*
D03*
D59*
X64425Y13558D02*
D03*
X38293Y-16312D02*
D03*
X-25400Y-16355D02*
D03*
X-57937Y-16362D02*
D03*
X7136Y-16322D02*
D03*
D60*
X52981Y-1120D02*
D03*
X23266D02*
D03*
X-9215D02*
D03*
X-41716Y-1112D02*
D03*
D61*
X-54300Y15710D02*
D03*
X-21741D02*
D03*
X10750D02*
D03*
X43441D02*
D03*
D62*
X23062Y6205D02*
D03*
X48510Y6047D02*
D03*
X54783Y7001D02*
D03*
X25431Y9466D02*
D03*
X24119Y9436D02*
D03*
X-7049Y9451D02*
D03*
X-8361Y9421D02*
D03*
X27314Y3595D02*
D03*
X29252Y6205D02*
D03*
X21123Y3595D02*
D03*
X-5167D02*
D03*
X-3229Y6205D02*
D03*
X-9419D02*
D03*
X-11358Y3595D02*
D03*
X-39550Y9429D02*
D03*
X-40861D02*
D03*
X-37668Y3604D02*
D03*
X-43896D02*
D03*
X-35727Y6212D02*
D03*
X-41957Y6214D02*
D03*
D63*
X63178Y2301D02*
D03*
X64010Y2286D02*
D03*
X64841D02*
D03*
X65672D02*
D03*
X63178Y1503D02*
D03*
X64010Y1489D02*
D03*
X64841D02*
D03*
X65672D02*
D03*
X63178Y706D02*
D03*
X64010Y691D02*
D03*
X64841D02*
D03*
X65672D02*
D03*
X63178Y-92D02*
D03*
X64010Y-107D02*
D03*
X64841D02*
D03*
X65672D02*
D03*
X42855Y-12019D02*
D03*
X42420Y-4414D02*
D03*
X43722D02*
D03*
X65672Y-1703D02*
D03*
Y-905D02*
D03*
X64841D02*
D03*
X64010D02*
D03*
X63178Y-890D02*
D03*
X63178Y-1703D02*
D03*
X65752Y-3501D02*
D03*
X65752Y-4514D02*
D03*
X64921Y-4499D02*
D03*
X64090D02*
D03*
X63259D02*
D03*
Y-3501D02*
D03*
X62176Y13537D02*
D03*
X38573Y-5279D02*
D03*
X33713D02*
D03*
Y-6549D02*
D03*
Y-7819D02*
D03*
X-53386Y-12012D02*
D03*
X4374Y-10773D02*
D03*
X6744Y-12382D02*
D03*
X5244Y-9440D02*
D03*
X11698Y-12029D02*
D03*
X11263Y-4414D02*
D03*
X12565D02*
D03*
X2556Y-7819D02*
D03*
Y-5279D02*
D03*
X-28113Y-10757D02*
D03*
X-25743Y-12367D02*
D03*
X-27243Y-9423D02*
D03*
X-19922Y-4399D02*
D03*
X-21223D02*
D03*
X-20816Y-12029D02*
D03*
X-29931Y-5264D02*
D03*
Y-7804D02*
D03*
X-58312Y-12405D02*
D03*
X-60754Y-10795D02*
D03*
X-59812Y-9461D02*
D03*
X-62500Y-7842D02*
D03*
Y-5302D02*
D03*
X-53792Y-4437D02*
D03*
X-52491D02*
D03*
D64*
X53985Y13431D02*
D03*
X52872D02*
D03*
X55099D02*
D03*
X56212D02*
D03*
X57325D02*
D03*
X58439D02*
D03*
Y14544D02*
D03*
Y15657D02*
D03*
Y16771D02*
D03*
X57325Y14544D02*
D03*
Y15657D02*
D03*
Y16771D02*
D03*
X56212Y14544D02*
D03*
Y15657D02*
D03*
Y16771D02*
D03*
X55099Y14544D02*
D03*
Y15657D02*
D03*
Y16771D02*
D03*
X71109Y17343D02*
D03*
Y18457D02*
D03*
Y16230D02*
D03*
Y8437D02*
D03*
Y10663D02*
D03*
Y9550D02*
D03*
Y12890D02*
D03*
Y11777D02*
D03*
Y15117D02*
D03*
Y14003D02*
D03*
Y6210D02*
D03*
Y7323D02*
D03*
Y3983D02*
D03*
Y5097D02*
D03*
Y1757D02*
D03*
Y2870D02*
D03*
Y643D02*
D03*
Y-1583D02*
D03*
Y-470D02*
D03*
X67769D02*
D03*
Y-1583D02*
D03*
Y643D02*
D03*
X68883Y-470D02*
D03*
Y-1583D02*
D03*
Y643D02*
D03*
X69996Y-470D02*
D03*
Y-1583D02*
D03*
Y643D02*
D03*
Y2870D02*
D03*
Y1757D02*
D03*
X68883Y2870D02*
D03*
Y1757D02*
D03*
X67769Y2870D02*
D03*
Y1757D02*
D03*
X69996Y5097D02*
D03*
Y3983D02*
D03*
X68883Y5097D02*
D03*
Y3983D02*
D03*
X67769D02*
D03*
X69996Y7323D02*
D03*
Y6210D02*
D03*
X68883Y7323D02*
D03*
Y6210D02*
D03*
X67769Y14003D02*
D03*
Y15117D02*
D03*
X68883Y14003D02*
D03*
Y15117D02*
D03*
X69996Y14003D02*
D03*
Y15117D02*
D03*
X67769Y12890D02*
D03*
X68883Y11777D02*
D03*
Y12890D02*
D03*
X69996Y11777D02*
D03*
Y12890D02*
D03*
X68883Y9550D02*
D03*
Y10663D02*
D03*
X69996Y9550D02*
D03*
Y10663D02*
D03*
Y8437D02*
D03*
X68883D02*
D03*
X69996Y16230D02*
D03*
X68883D02*
D03*
X67769D02*
D03*
Y18457D02*
D03*
X68883D02*
D03*
X69996D02*
D03*
Y17343D02*
D03*
X68883D02*
D03*
X67769D02*
D03*
X69996Y19570D02*
D03*
X68883D02*
D03*
X67769D02*
D03*
X42852Y13431D02*
D03*
X43965D02*
D03*
X51759D02*
D03*
X50645D02*
D03*
X49532D02*
D03*
X48419D02*
D03*
X47305D02*
D03*
X45079D02*
D03*
X46192D02*
D03*
Y14544D02*
D03*
Y15657D02*
D03*
X45079D02*
D03*
Y14544D02*
D03*
Y16771D02*
D03*
X46192D02*
D03*
X47305D02*
D03*
Y15657D02*
D03*
Y14544D02*
D03*
X48419D02*
D03*
Y15657D02*
D03*
Y16771D02*
D03*
X49532Y14544D02*
D03*
Y15657D02*
D03*
Y16771D02*
D03*
X50645Y14544D02*
D03*
Y15657D02*
D03*
Y16771D02*
D03*
X51759D02*
D03*
Y15657D02*
D03*
Y14544D02*
D03*
X52872Y16771D02*
D03*
Y15657D02*
D03*
Y14544D02*
D03*
X53985Y16771D02*
D03*
Y15657D02*
D03*
Y14544D02*
D03*
X-70113Y19754D02*
D03*
X-69000D02*
D03*
X-67887D02*
D03*
X-66773D02*
D03*
X-65660D02*
D03*
X-69000Y17527D02*
D03*
X-70113D02*
D03*
X-71227D02*
D03*
X-67887D02*
D03*
X-66773D02*
D03*
X-65660D02*
D03*
Y18641D02*
D03*
X-66773D02*
D03*
X-67887D02*
D03*
X-69000D02*
D03*
X-70113D02*
D03*
X-71227D02*
D03*
X52294Y561D02*
D03*
Y1674D02*
D03*
X51181Y2788D02*
D03*
Y1674D02*
D03*
Y-1666D02*
D03*
Y-552D02*
D03*
Y561D02*
D03*
X50068Y2788D02*
D03*
Y1674D02*
D03*
Y-1666D02*
D03*
Y-552D02*
D03*
Y561D02*
D03*
X48954Y2788D02*
D03*
Y1674D02*
D03*
Y-1666D02*
D03*
Y-552D02*
D03*
Y561D02*
D03*
X20135Y1932D02*
D03*
Y-1408D02*
D03*
Y-294D02*
D03*
X19022Y819D02*
D03*
Y1932D02*
D03*
X47841Y561D02*
D03*
Y-552D02*
D03*
Y-1666D02*
D03*
Y1674D02*
D03*
Y2788D02*
D03*
X16795Y819D02*
D03*
Y-1408D02*
D03*
Y4159D02*
D03*
X46728Y561D02*
D03*
Y-552D02*
D03*
Y-1666D02*
D03*
Y1674D02*
D03*
Y2788D02*
D03*
X17908Y-1408D02*
D03*
Y819D02*
D03*
X15682D02*
D03*
Y-1408D02*
D03*
Y-294D02*
D03*
X16795Y1932D02*
D03*
X45614Y561D02*
D03*
Y-552D02*
D03*
Y-1666D02*
D03*
Y1674D02*
D03*
Y2788D02*
D03*
X44501D02*
D03*
Y1674D02*
D03*
Y-1666D02*
D03*
Y-552D02*
D03*
Y561D02*
D03*
X43388D02*
D03*
X42274D02*
D03*
Y-1666D02*
D03*
Y-552D02*
D03*
X43388D02*
D03*
Y-1666D02*
D03*
Y1674D02*
D03*
X42274D02*
D03*
Y2788D02*
D03*
X43388D02*
D03*
Y3901D02*
D03*
X42274D02*
D03*
X26683Y15323D02*
D03*
X28910Y13096D02*
D03*
X30023D02*
D03*
X32250D02*
D03*
X31137D02*
D03*
X25570Y15323D02*
D03*
X26683Y16436D02*
D03*
X25570D02*
D03*
X24061D02*
D03*
X22948D02*
D03*
X21835D02*
D03*
X27797D02*
D03*
Y15323D02*
D03*
Y14210D02*
D03*
X28910Y16436D02*
D03*
Y15323D02*
D03*
Y14210D02*
D03*
X30023Y16436D02*
D03*
Y15323D02*
D03*
Y14210D02*
D03*
X31137D02*
D03*
Y15323D02*
D03*
X32250Y14210D02*
D03*
Y15323D02*
D03*
Y16436D02*
D03*
X31137D02*
D03*
X-18450Y13096D02*
D03*
X-19563D02*
D03*
X-17337D02*
D03*
X-16223D02*
D03*
X-1355Y16436D02*
D03*
X-241D02*
D03*
Y15323D02*
D03*
Y14210D02*
D03*
X-1355Y15323D02*
D03*
Y14210D02*
D03*
X-2468D02*
D03*
Y15323D02*
D03*
Y16436D02*
D03*
X-3581Y14210D02*
D03*
Y15323D02*
D03*
Y16436D02*
D03*
X-4695Y14210D02*
D03*
Y15323D02*
D03*
Y16436D02*
D03*
X-10657D02*
D03*
X-9543D02*
D03*
X-8430D02*
D03*
X-6922D02*
D03*
X-5808D02*
D03*
X-6922Y15323D02*
D03*
X-1355Y13096D02*
D03*
X-241D02*
D03*
X-2468D02*
D03*
X-3581D02*
D03*
X-5808Y15323D02*
D03*
X-38367D02*
D03*
X12928Y13096D02*
D03*
X14041D02*
D03*
X-36140D02*
D03*
X-35027D02*
D03*
X-32800D02*
D03*
X-33913D02*
D03*
X-39480Y15323D02*
D03*
X-38367Y16436D02*
D03*
X-39480D02*
D03*
X-40989D02*
D03*
X-42102D02*
D03*
X-43215D02*
D03*
X14568Y4159D02*
D03*
X15682D02*
D03*
Y3046D02*
D03*
X14568D02*
D03*
Y1932D02*
D03*
X15682D02*
D03*
X14568Y-294D02*
D03*
Y-1408D02*
D03*
Y819D02*
D03*
X16795Y-294D02*
D03*
Y3046D02*
D03*
X17908Y1932D02*
D03*
Y-294D02*
D03*
X19022Y-1408D02*
D03*
Y-294D02*
D03*
X20135Y819D02*
D03*
X21248Y-1408D02*
D03*
Y-294D02*
D03*
Y819D02*
D03*
X-17913Y4159D02*
D03*
X-16800D02*
D03*
Y3046D02*
D03*
X-17913D02*
D03*
Y1932D02*
D03*
X-16800D02*
D03*
Y-1408D02*
D03*
Y-294D02*
D03*
X-17913D02*
D03*
Y-1408D02*
D03*
Y819D02*
D03*
X-16800D02*
D03*
X-15686D02*
D03*
Y-294D02*
D03*
Y-1408D02*
D03*
Y1932D02*
D03*
Y3046D02*
D03*
Y4159D02*
D03*
X-14573Y1932D02*
D03*
Y-1408D02*
D03*
Y-294D02*
D03*
Y819D02*
D03*
X-13460Y1932D02*
D03*
Y-1408D02*
D03*
Y-294D02*
D03*
Y819D02*
D03*
X-12346Y1932D02*
D03*
Y-1408D02*
D03*
Y-294D02*
D03*
Y819D02*
D03*
X-11233Y-1408D02*
D03*
Y-294D02*
D03*
Y819D02*
D03*
X-43733Y827D02*
D03*
Y-286D02*
D03*
Y-1399D02*
D03*
X-44847Y827D02*
D03*
Y-286D02*
D03*
Y-1399D02*
D03*
Y1941D02*
D03*
X-45960Y827D02*
D03*
Y-286D02*
D03*
Y-1399D02*
D03*
Y1941D02*
D03*
X-47073Y827D02*
D03*
Y-286D02*
D03*
Y-1399D02*
D03*
Y1941D02*
D03*
X15155Y14210D02*
D03*
Y15323D02*
D03*
Y16436D02*
D03*
X16268Y14210D02*
D03*
Y15323D02*
D03*
Y16436D02*
D03*
X17381Y14210D02*
D03*
Y15323D02*
D03*
Y16436D02*
D03*
X18495Y14210D02*
D03*
Y15323D02*
D03*
Y16436D02*
D03*
X19608Y14210D02*
D03*
Y15323D02*
D03*
Y16436D02*
D03*
X20721D02*
D03*
Y15323D02*
D03*
Y14210D02*
D03*
X-17337D02*
D03*
Y15323D02*
D03*
Y16436D02*
D03*
X-16223Y14210D02*
D03*
Y15323D02*
D03*
Y16436D02*
D03*
X-15110Y14210D02*
D03*
Y15323D02*
D03*
Y16436D02*
D03*
X-13997Y14210D02*
D03*
Y15323D02*
D03*
Y16436D02*
D03*
X-12883Y14210D02*
D03*
Y15323D02*
D03*
Y16436D02*
D03*
X-11770D02*
D03*
Y15323D02*
D03*
Y14210D02*
D03*
X-44329D02*
D03*
Y15323D02*
D03*
Y16436D02*
D03*
X-48782Y13096D02*
D03*
X-49895D02*
D03*
Y12016D02*
D03*
X-45442Y16436D02*
D03*
Y15323D02*
D03*
Y14210D02*
D03*
X-46555Y16436D02*
D03*
Y15323D02*
D03*
Y14210D02*
D03*
X-47669Y16436D02*
D03*
Y15323D02*
D03*
Y14210D02*
D03*
X-48782Y16436D02*
D03*
Y15323D02*
D03*
Y14210D02*
D03*
X-49895Y16436D02*
D03*
Y15323D02*
D03*
Y14210D02*
D03*
X-37253Y16436D02*
D03*
Y15323D02*
D03*
Y14210D02*
D03*
X-36140Y16436D02*
D03*
Y15323D02*
D03*
Y14210D02*
D03*
X-35027Y16436D02*
D03*
Y15323D02*
D03*
Y14210D02*
D03*
X-51009Y12016D02*
D03*
X-52122D02*
D03*
X-53235D02*
D03*
X32250Y-1377D02*
D03*
Y-264D02*
D03*
X31137Y-1377D02*
D03*
Y-264D02*
D03*
X32250Y850D02*
D03*
X31137D02*
D03*
Y3076D02*
D03*
X32250D02*
D03*
X31137Y1963D02*
D03*
X32250D02*
D03*
X31137Y4190D02*
D03*
X32250D02*
D03*
X-241Y-1377D02*
D03*
Y-264D02*
D03*
X-1355Y-1377D02*
D03*
Y-264D02*
D03*
X-241Y850D02*
D03*
X-1355D02*
D03*
Y3076D02*
D03*
X-241D02*
D03*
X-1355Y1963D02*
D03*
X-241D02*
D03*
X-1355Y4190D02*
D03*
X-241D02*
D03*
X-32800D02*
D03*
X-33913D02*
D03*
X-32800Y1963D02*
D03*
X-33913D02*
D03*
X-32800Y3076D02*
D03*
X-33913D02*
D03*
Y850D02*
D03*
X-32800D02*
D03*
X-48187Y4167D02*
D03*
Y3054D02*
D03*
Y1941D02*
D03*
Y-1399D02*
D03*
Y-286D02*
D03*
Y827D02*
D03*
X-49300D02*
D03*
X-50413D02*
D03*
Y-1399D02*
D03*
Y-286D02*
D03*
X-49300D02*
D03*
Y-1399D02*
D03*
Y1941D02*
D03*
X-50413D02*
D03*
Y3054D02*
D03*
X-49300D02*
D03*
Y4167D02*
D03*
X-50413D02*
D03*
X-33913Y-264D02*
D03*
Y-1377D02*
D03*
X-32800Y-264D02*
D03*
Y-1377D02*
D03*
X-33913Y14210D02*
D03*
Y15323D02*
D03*
X-32800Y14210D02*
D03*
Y15323D02*
D03*
Y16436D02*
D03*
X-33913D02*
D03*
X-71227Y16414D02*
D03*
X-70113D02*
D03*
X-69000D02*
D03*
X-67887D02*
D03*
X-66773D02*
D03*
X-65660D02*
D03*
X-69000Y8621D02*
D03*
X-70113D02*
D03*
X-71227D02*
D03*
X-67887D02*
D03*
X-66773D02*
D03*
X-65660D02*
D03*
Y10847D02*
D03*
Y9734D02*
D03*
X-66773Y10847D02*
D03*
Y9734D02*
D03*
X-67887Y10847D02*
D03*
Y9734D02*
D03*
X-69000D02*
D03*
X-70113D02*
D03*
X-71227D02*
D03*
Y10847D02*
D03*
X-70113D02*
D03*
X-69000D02*
D03*
X-65660Y13074D02*
D03*
Y11961D02*
D03*
X-66773Y13074D02*
D03*
Y11961D02*
D03*
X-67887Y13074D02*
D03*
Y11961D02*
D03*
X-69000D02*
D03*
X-70113D02*
D03*
X-71227D02*
D03*
Y13074D02*
D03*
X-70113D02*
D03*
X-69000D02*
D03*
X-65660Y15301D02*
D03*
Y14187D02*
D03*
X-66773Y15301D02*
D03*
Y14187D02*
D03*
X-67887Y15301D02*
D03*
Y14187D02*
D03*
X-69000D02*
D03*
X-70113D02*
D03*
X-71227D02*
D03*
Y15301D02*
D03*
X-70113D02*
D03*
X-69000D02*
D03*
Y7507D02*
D03*
X-70113D02*
D03*
X-71227D02*
D03*
Y6394D02*
D03*
X-70113D02*
D03*
X-69000D02*
D03*
X-67887D02*
D03*
Y7507D02*
D03*
X-66773Y6394D02*
D03*
Y7507D02*
D03*
X-65660Y6394D02*
D03*
Y7507D02*
D03*
X-69000Y5281D02*
D03*
X-70113D02*
D03*
X-71227D02*
D03*
Y4167D02*
D03*
X-70113D02*
D03*
X-69000D02*
D03*
X-67887D02*
D03*
Y5281D02*
D03*
X-66773Y4167D02*
D03*
Y5281D02*
D03*
X-65660Y4167D02*
D03*
Y5281D02*
D03*
X-69000Y3054D02*
D03*
X-70113D02*
D03*
X-71227D02*
D03*
Y1941D02*
D03*
X-70113D02*
D03*
X-69000D02*
D03*
X-67887D02*
D03*
Y3054D02*
D03*
X-66773Y1941D02*
D03*
Y3054D02*
D03*
X-65660Y1941D02*
D03*
Y3054D02*
D03*
Y827D02*
D03*
Y-1399D02*
D03*
Y-286D02*
D03*
X-66773Y827D02*
D03*
Y-1399D02*
D03*
Y-286D02*
D03*
X-67887Y827D02*
D03*
Y-1399D02*
D03*
Y-286D02*
D03*
X-69000D02*
D03*
Y-1399D02*
D03*
X-70113D02*
D03*
Y-286D02*
D03*
X-71227D02*
D03*
Y-1399D02*
D03*
Y827D02*
D03*
X-70113D02*
D03*
X-69000D02*
D03*
X14041Y14210D02*
D03*
X12928D02*
D03*
Y15323D02*
D03*
X14041D02*
D03*
Y16436D02*
D03*
X12928D02*
D03*
X-19563D02*
D03*
X-18450D02*
D03*
Y15323D02*
D03*
X-19563D02*
D03*
Y14210D02*
D03*
X-18450D02*
D03*
X-53235D02*
D03*
Y13096D02*
D03*
X-52122D02*
D03*
X-51009D02*
D03*
Y14210D02*
D03*
X-52122D02*
D03*
Y15323D02*
D03*
X-51009D02*
D03*
Y16436D02*
D03*
X-52122D02*
D03*
M02*
