G04*
G04 #@! TF.GenerationSoftware,Altium Limited,Altium Designer,22.6.1 (34)*
G04*
G04 Layer_Physical_Order=4*
G04 Layer_Color=16711680*
%FSLAX43Y43*%
%MOMM*%
G71*
G04*
G04 #@! TF.SameCoordinates,5327060C-A0E8-49A3-936B-299E1C487600*
G04*
G04*
G04 #@! TF.FilePolarity,Positive*
G04*
G01*
G75*
%ADD12C,0.150*%
%ADD54R,1.700X1.700*%
%ADD55C,1.700*%
%ADD56R,1.700X1.700*%
%ADD57C,2.100*%
%ADD58C,0.500*%
%ADD59C,0.700*%
%ADD60C,1.000*%
G36*
X69100Y20500D02*
X69100Y20500D01*
X69290Y20500D01*
X69667Y20451D01*
X70034Y20352D01*
X70385Y20207D01*
X70715Y20017D01*
X71016Y19786D01*
X71285Y19517D01*
X71516Y19215D01*
X71707Y18886D01*
X71852Y18535D01*
X71950Y18168D01*
X72000Y17791D01*
X72000Y17601D01*
X72000Y-1273D01*
X72000Y-1273D01*
X72000Y-1370D01*
X71962Y-1559D01*
X71888Y-1738D01*
X71781Y-1898D01*
X71645Y-2035D01*
X71484Y-2142D01*
X71306Y-2216D01*
X71116Y-2254D01*
X71020D01*
X54124Y-2254D01*
X54031Y-2127D01*
Y-1520D01*
X51931D01*
Y-2127D01*
X51931Y-2170D01*
X51839Y-2254D01*
X24408Y-2254D01*
X24316Y-2127D01*
Y-1520D01*
X22216D01*
Y-2127D01*
X22216Y-2170D01*
X22123Y-2254D01*
X-8073Y-2254D01*
X-8165Y-2127D01*
Y-1520D01*
X-10265D01*
Y-2127D01*
X-10265Y-2170D01*
X-10358Y-2254D01*
X-40580Y-2254D01*
X-40666Y-2127D01*
Y-1512D01*
X-42766D01*
Y-2127D01*
X-42766Y-2162D01*
X-42851Y-2254D01*
X-65000Y-2254D01*
X-71166Y-2254D01*
X-71248Y-2254D01*
X-71409Y-2222D01*
X-71561Y-2159D01*
X-71698Y-2067D01*
X-71814Y-1951D01*
X-71905Y-1815D01*
X-71968Y-1663D01*
X-72000Y-1502D01*
X-72000Y-1420D01*
Y17601D01*
X-72000Y17791D01*
X-71950Y18168D01*
X-71852Y18535D01*
X-71706Y18886D01*
X-71516Y19215D01*
X-71285Y19517D01*
X-71016Y19786D01*
X-70715Y20017D01*
X-70385Y20207D01*
X-70034Y20352D01*
X-69667Y20451D01*
X-69290Y20500D01*
X-69100Y20500D01*
X69100Y20500D01*
X69100Y20500D01*
D02*
G37*
%LPC*%
G36*
X44066Y16793D02*
Y16335D01*
X44523D01*
X44441Y16478D01*
X44208Y16710D01*
X44066Y16793D01*
D02*
G37*
G36*
X-53675Y16793D02*
Y16335D01*
X-53217D01*
X-53300Y16478D01*
X-53532Y16710D01*
X-53675Y16793D01*
D02*
G37*
G36*
X-21116Y16793D02*
Y16335D01*
X-20659D01*
X-20741Y16478D01*
X-20974Y16710D01*
X-21116Y16793D01*
D02*
G37*
G36*
X11375Y16793D02*
Y16335D01*
X11833D01*
X11750Y16478D01*
X11518Y16710D01*
X11375Y16793D01*
D02*
G37*
G36*
X10125Y16793D02*
X9983Y16710D01*
X9750Y16478D01*
X9668Y16335D01*
X10125D01*
Y16793D01*
D02*
G37*
G36*
X-22366Y16793D02*
X-22509Y16710D01*
X-22742Y16478D01*
X-22824Y16335D01*
X-22366D01*
Y16793D01*
D02*
G37*
G36*
X-54925Y16793D02*
X-55067Y16710D01*
X-55300Y16478D01*
X-55382Y16335D01*
X-54925D01*
Y16793D01*
D02*
G37*
G36*
X42816Y16793D02*
X42673Y16710D01*
X42440Y16478D01*
X42358Y16335D01*
X42816D01*
Y16793D01*
D02*
G37*
G36*
X65425Y17098D02*
X63425D01*
Y15098D01*
X65425D01*
Y17098D01*
D02*
G37*
G36*
X10125Y15085D02*
X9668D01*
X9750Y14943D01*
X9983Y14710D01*
X10125Y14628D01*
Y15085D01*
D02*
G37*
G36*
X-22366D02*
X-22824D01*
X-22742Y14943D01*
X-22509Y14710D01*
X-22366Y14628D01*
Y15085D01*
D02*
G37*
G36*
X44523D02*
X44066D01*
Y14628D01*
X44208Y14710D01*
X44441Y14943D01*
X44523Y15085D01*
D02*
G37*
G36*
X-53217D02*
X-53675D01*
Y14628D01*
X-53532Y14710D01*
X-53300Y14943D01*
X-53217Y15085D01*
D02*
G37*
G36*
X-54925D02*
X-55382D01*
X-55300Y14943D01*
X-55067Y14710D01*
X-54925Y14628D01*
Y15085D01*
D02*
G37*
G36*
X42816D02*
X42358D01*
X42440Y14943D01*
X42673Y14710D01*
X42816Y14628D01*
Y15085D01*
D02*
G37*
G36*
X-20659D02*
X-21116D01*
Y14628D01*
X-20974Y14710D01*
X-20741Y14943D01*
X-20659Y15085D01*
D02*
G37*
G36*
X11833D02*
X11375D01*
Y14628D01*
X11518Y14710D01*
X11750Y14943D01*
X11833Y15085D01*
D02*
G37*
G36*
X35599Y16910D02*
X35283D01*
X34977Y16828D01*
X34704Y16670D01*
X34480Y16447D01*
X34322Y16173D01*
X34241Y15868D01*
Y15552D01*
X34322Y15247D01*
X34480Y14973D01*
X34704Y14750D01*
X34977Y14592D01*
X35283Y14510D01*
X35599D01*
X35904Y14592D01*
X36177Y14750D01*
X36401Y14973D01*
X36559Y15247D01*
X36641Y15552D01*
Y15868D01*
X36559Y16173D01*
X36401Y16447D01*
X36177Y16670D01*
X35904Y16828D01*
X35599Y16910D01*
D02*
G37*
G36*
X2908D02*
X2592D01*
X2287Y16828D01*
X2013Y16670D01*
X1790Y16447D01*
X1632Y16173D01*
X1550Y15868D01*
Y15552D01*
X1632Y15247D01*
X1790Y14973D01*
X2013Y14750D01*
X2287Y14592D01*
X2592Y14510D01*
X2908D01*
X3213Y14592D01*
X3487Y14750D01*
X3710Y14973D01*
X3868Y15247D01*
X3950Y15552D01*
Y15868D01*
X3868Y16173D01*
X3710Y16447D01*
X3487Y16670D01*
X3213Y16828D01*
X2908Y16910D01*
D02*
G37*
G36*
X-29583D02*
X-29899D01*
X-30205Y16828D01*
X-30478Y16670D01*
X-30702Y16447D01*
X-30860Y16173D01*
X-30941Y15868D01*
Y15552D01*
X-30860Y15247D01*
X-30702Y14973D01*
X-30478Y14750D01*
X-30205Y14592D01*
X-29899Y14510D01*
X-29583D01*
X-29278Y14592D01*
X-29005Y14750D01*
X-28781Y14973D01*
X-28623Y15247D01*
X-28541Y15552D01*
Y15868D01*
X-28623Y16173D01*
X-28781Y16447D01*
X-29005Y16670D01*
X-29278Y16828D01*
X-29583Y16910D01*
D02*
G37*
G36*
X-62142D02*
X-62458D01*
X-62763Y16828D01*
X-63037Y16670D01*
X-63260Y16447D01*
X-63418Y16173D01*
X-63500Y15868D01*
Y15552D01*
X-63418Y15247D01*
X-63260Y14973D01*
X-63037Y14750D01*
X-62763Y14592D01*
X-62458Y14510D01*
X-62142D01*
X-61837Y14592D01*
X-61563Y14750D01*
X-61340Y14973D01*
X-61182Y15247D01*
X-61100Y15552D01*
Y15868D01*
X-61182Y16173D01*
X-61340Y16447D01*
X-61563Y16670D01*
X-61837Y16828D01*
X-62142Y16910D01*
D02*
G37*
G36*
X39593Y17260D02*
X39288D01*
X38988Y17201D01*
X38706Y17084D01*
X38453Y16914D01*
X38237Y16698D01*
X38067Y16444D01*
X37950Y16162D01*
X37891Y15863D01*
Y15557D01*
X37950Y15258D01*
X38067Y14976D01*
X38237Y14722D01*
X38453Y14506D01*
X38706Y14337D01*
X38988Y14220D01*
X39288Y14160D01*
X39593D01*
X39893Y14220D01*
X40175Y14337D01*
X40429Y14506D01*
X40645Y14722D01*
X40814Y14976D01*
X40931Y15258D01*
X40991Y15557D01*
Y15863D01*
X40931Y16162D01*
X40814Y16444D01*
X40645Y16698D01*
X40429Y16914D01*
X40175Y17084D01*
X39893Y17201D01*
X39593Y17260D01*
D02*
G37*
G36*
X6903D02*
X6597D01*
X6298Y17201D01*
X6016Y17084D01*
X5762Y16914D01*
X5546Y16698D01*
X5376Y16444D01*
X5260Y16162D01*
X5200Y15863D01*
Y15557D01*
X5260Y15258D01*
X5376Y14976D01*
X5546Y14722D01*
X5762Y14506D01*
X6016Y14337D01*
X6298Y14220D01*
X6597Y14160D01*
X6903D01*
X7202Y14220D01*
X7484Y14337D01*
X7738Y14506D01*
X7954Y14722D01*
X8124Y14976D01*
X8240Y15258D01*
X8300Y15557D01*
Y15863D01*
X8240Y16162D01*
X8124Y16444D01*
X7954Y16698D01*
X7738Y16914D01*
X7484Y17084D01*
X7202Y17201D01*
X6903Y17260D01*
D02*
G37*
G36*
X-25589D02*
X-25894D01*
X-26194Y17201D01*
X-26476Y17084D01*
X-26730Y16914D01*
X-26945Y16698D01*
X-27115Y16444D01*
X-27232Y16162D01*
X-27291Y15863D01*
Y15557D01*
X-27232Y15258D01*
X-27115Y14976D01*
X-26945Y14722D01*
X-26730Y14506D01*
X-26476Y14337D01*
X-26194Y14220D01*
X-25894Y14160D01*
X-25589D01*
X-25289Y14220D01*
X-25007Y14337D01*
X-24753Y14506D01*
X-24538Y14722D01*
X-24368Y14976D01*
X-24251Y15258D01*
X-24191Y15557D01*
Y15863D01*
X-24251Y16162D01*
X-24368Y16444D01*
X-24538Y16698D01*
X-24753Y16914D01*
X-25007Y17084D01*
X-25289Y17201D01*
X-25589Y17260D01*
D02*
G37*
G36*
X-58147D02*
X-58453D01*
X-58752Y17201D01*
X-59034Y17084D01*
X-59288Y16914D01*
X-59504Y16698D01*
X-59674Y16444D01*
X-59790Y16162D01*
X-59850Y15863D01*
Y15557D01*
X-59790Y15258D01*
X-59674Y14976D01*
X-59504Y14722D01*
X-59288Y14506D01*
X-59034Y14337D01*
X-58752Y14220D01*
X-58453Y14160D01*
X-58147D01*
X-57848Y14220D01*
X-57566Y14337D01*
X-57312Y14506D01*
X-57096Y14722D01*
X-56926Y14976D01*
X-56810Y15258D01*
X-56750Y15557D01*
Y15863D01*
X-56810Y16162D01*
X-56926Y16444D01*
X-57096Y16698D01*
X-57312Y16914D01*
X-57566Y17084D01*
X-57848Y17201D01*
X-58147Y17260D01*
D02*
G37*
G36*
X64825Y14538D02*
Y13958D01*
X65405D01*
X65404Y13963D01*
X65265Y14203D01*
X65070Y14398D01*
X64830Y14536D01*
X64825Y14538D01*
D02*
G37*
G36*
X64025Y14538D02*
X64020Y14536D01*
X63780Y14398D01*
X63585Y14203D01*
X63447Y13963D01*
X63445Y13958D01*
X64025D01*
Y14538D01*
D02*
G37*
G36*
X-40905Y13400D02*
X-41064D01*
X-41211Y13339D01*
X-41324Y13227D01*
X-41385Y13080D01*
Y12920D01*
X-41324Y12773D01*
X-41211Y12661D01*
X-41064Y12600D01*
X-40905D01*
X-40758Y12661D01*
X-40646Y12773D01*
X-40585Y12920D01*
Y13080D01*
X-40646Y13227D01*
X-40758Y13339D01*
X-40905Y13400D01*
D02*
G37*
G36*
X24032Y13392D02*
X23873D01*
X23726Y13331D01*
X23613Y13219D01*
X23552Y13072D01*
Y12913D01*
X23613Y12766D01*
X23726Y12653D01*
X23873Y12592D01*
X24032D01*
X24179Y12653D01*
X24291Y12766D01*
X24352Y12913D01*
Y13072D01*
X24291Y13219D01*
X24179Y13331D01*
X24032Y13392D01*
D02*
G37*
G36*
X-8449D02*
X-8609D01*
X-8756Y13331D01*
X-8868Y13219D01*
X-8929Y13072D01*
Y12913D01*
X-8868Y12766D01*
X-8756Y12653D01*
X-8609Y12592D01*
X-8449D01*
X-8302Y12653D01*
X-8190Y12766D01*
X-8129Y12913D01*
Y13072D01*
X-8190Y13219D01*
X-8302Y13331D01*
X-8449Y13392D01*
D02*
G37*
G36*
X64025Y13158D02*
X63445D01*
X63447Y13153D01*
X63585Y12913D01*
X63780Y12718D01*
X64020Y12579D01*
X64025Y12578D01*
Y13158D01*
D02*
G37*
G36*
X65405D02*
X64825D01*
Y12578D01*
X64830Y12579D01*
X65070Y12718D01*
X65265Y12913D01*
X65404Y13153D01*
X65405Y13158D01*
D02*
G37*
G36*
X-11412Y11331D02*
X-13378D01*
X-28745Y11331D01*
X-28851Y11331D01*
X-28881Y11319D01*
X-28913D01*
X-29109Y11238D01*
X-29132Y11215D01*
X-29162Y11202D01*
X-29312Y11052D01*
X-29325Y11022D01*
X-29347Y11000D01*
X-29429Y10803D01*
Y10771D01*
X-29441Y10741D01*
X-29441Y10635D01*
Y8690D01*
X-29429Y8660D01*
Y8628D01*
X-29352Y8442D01*
X-29329Y8419D01*
X-29317Y8390D01*
X-29175Y8248D01*
X-29145Y8235D01*
X-29122Y8212D01*
X-28936Y8135D01*
X-28904D01*
X-28874Y8123D01*
X-22901D01*
X-22876Y7996D01*
X-22995Y7947D01*
X-23108Y7834D01*
X-23169Y7687D01*
Y7528D01*
X-23108Y7381D01*
X-22995Y7268D01*
X-22848Y7207D01*
X-22689D01*
X-22542Y7268D01*
X-22433Y7378D01*
X-18662D01*
X-18660Y7373D01*
X-18547Y7260D01*
X-18400Y7199D01*
X-18241D01*
X-18094Y7260D01*
X-17982Y7373D01*
X-17921Y7520D01*
Y7679D01*
X-17982Y7826D01*
X-18094Y7938D01*
X-18241Y7999D01*
X-18234Y8123D01*
X-11412D01*
X-11382Y8135D01*
X-11350D01*
X-11182Y8205D01*
X-11159Y8228D01*
X-11129Y8240D01*
X-11001Y8369D01*
X-10988Y8398D01*
X-10966Y8421D01*
X-10896Y8589D01*
Y8621D01*
X-10884Y8651D01*
X-10884Y8742D01*
X-10884Y8742D01*
X-10884Y10803D01*
X-10884Y10876D01*
X-10896Y10905D01*
Y10938D01*
X-10952Y11072D01*
X-10975Y11095D01*
X-10987Y11125D01*
X-11090Y11228D01*
X-11120Y11240D01*
X-11143Y11263D01*
X-11234Y11301D01*
X-11254D01*
X-11272Y11312D01*
X-11387Y11329D01*
X-11400Y11326D01*
X-11412Y11331D01*
X-11412D01*
X-11412Y11331D01*
D02*
G37*
G36*
X-43981D02*
X-45947D01*
X-61314Y11331D01*
X-61420Y11331D01*
X-61450Y11319D01*
X-61482D01*
X-61678Y11238D01*
X-61701Y11215D01*
X-61731Y11202D01*
X-61881Y11052D01*
X-61894Y11022D01*
X-61916Y11000D01*
X-61998Y10803D01*
Y10771D01*
X-62010Y10741D01*
X-62010Y10635D01*
Y8690D01*
X-61998Y8660D01*
Y8628D01*
X-61921Y8442D01*
X-61898Y8419D01*
X-61886Y8390D01*
X-61744Y8248D01*
X-61714Y8235D01*
X-61691Y8212D01*
X-61505Y8135D01*
X-61473D01*
X-61443Y8123D01*
X-55576D01*
X-55550Y7996D01*
X-55670Y7947D01*
X-55782Y7834D01*
X-55843Y7687D01*
Y7528D01*
X-55782Y7381D01*
X-55670Y7268D01*
X-55523Y7207D01*
X-55364D01*
X-55217Y7268D01*
X-55107Y7378D01*
X-51157D01*
X-51048Y7268D01*
X-50901Y7207D01*
X-50741D01*
X-50594Y7268D01*
X-50482Y7381D01*
X-50421Y7528D01*
Y7687D01*
X-50482Y7834D01*
X-50594Y7947D01*
X-50714Y7996D01*
X-50689Y8123D01*
X-43981D01*
X-43951Y8135D01*
X-43919D01*
X-43751Y8205D01*
X-43728Y8228D01*
X-43698Y8240D01*
X-43570Y8369D01*
X-43557Y8398D01*
X-43535Y8421D01*
X-43465Y8589D01*
Y8621D01*
X-43453Y8651D01*
X-43453Y8742D01*
X-43453Y8742D01*
X-43453Y10803D01*
X-43453Y10876D01*
X-43465Y10905D01*
Y10938D01*
X-43521Y11072D01*
X-43544Y11095D01*
X-43556Y11125D01*
X-43659Y11228D01*
X-43689Y11240D01*
X-43712Y11263D01*
X-43803Y11301D01*
X-43823D01*
X-43841Y11312D01*
X-43956Y11329D01*
X-43969Y11326D01*
X-43981Y11331D01*
X-43981D01*
X-43981Y11331D01*
D02*
G37*
G36*
X21028Y11274D02*
X19063D01*
X3696Y11274D01*
X3589Y11274D01*
X3560Y11261D01*
X3527D01*
X3331Y11180D01*
X3308Y11157D01*
X3278Y11145D01*
X3128Y10994D01*
X3116Y10965D01*
X3093Y10942D01*
X3012Y10745D01*
Y10713D01*
X2999Y10683D01*
X2999Y10577D01*
Y8632D01*
X3012Y8602D01*
Y8570D01*
X3088Y8385D01*
X3111Y8362D01*
X3124Y8332D01*
X3266Y8190D01*
X3295Y8177D01*
X3318Y8155D01*
X3504Y8078D01*
X3536D01*
X3566Y8065D01*
X9451D01*
X9484Y7978D01*
X9488Y7938D01*
X9384Y7834D01*
X9323Y7687D01*
Y7528D01*
X9384Y7381D01*
X9496Y7268D01*
X9643Y7207D01*
X9802D01*
X9949Y7268D01*
X10059Y7378D01*
X13819D01*
X13821Y7373D01*
X13934Y7260D01*
X14081Y7199D01*
X14240D01*
X14387Y7260D01*
X14500Y7373D01*
X14560Y7520D01*
Y7679D01*
X14500Y7826D01*
X14387Y7938D01*
X14387Y7938D01*
X14412Y8065D01*
X21028D01*
X21058Y8078D01*
X21091D01*
X21258Y8147D01*
X21281Y8170D01*
X21311Y8182D01*
X21439Y8311D01*
X21452Y8341D01*
X21475Y8364D01*
X21544Y8531D01*
Y8564D01*
X21557Y8593D01*
X21557Y8684D01*
X21557Y8684D01*
X21557Y10745D01*
X21557Y10818D01*
X21544Y10848D01*
Y10880D01*
X21488Y11015D01*
X21466Y11037D01*
X21453Y11067D01*
X21350Y11170D01*
X21320Y11183D01*
X21298Y11205D01*
X21206Y11243D01*
X21186D01*
X21169Y11254D01*
X21053Y11272D01*
X21040Y11269D01*
X21028Y11274D01*
X21028D01*
X21028Y11274D01*
D02*
G37*
G36*
X26439Y11707D02*
X26280D01*
X26133Y11646D01*
X26021Y11533D01*
X25960Y11386D01*
Y11227D01*
X26021Y11080D01*
X26133Y10968D01*
X26280Y10907D01*
X26439D01*
X26586Y10968D01*
X26699Y11080D01*
X26760Y11227D01*
Y11386D01*
X26699Y11533D01*
X26586Y11646D01*
X26439Y11707D01*
D02*
G37*
G36*
X-38548Y11695D02*
X-38707D01*
X-38854Y11634D01*
X-38967Y11522D01*
X-39028Y11375D01*
Y11216D01*
X-38967Y11069D01*
X-38854Y10956D01*
X-38707Y10895D01*
X-38548D01*
X-38401Y10956D01*
X-38289Y11069D01*
X-38228Y11216D01*
Y11375D01*
X-38289Y11522D01*
X-38401Y11634D01*
X-38548Y11695D01*
D02*
G37*
G36*
X-6023Y11676D02*
X-6182D01*
X-6329Y11615D01*
X-6441Y11503D01*
X-6502Y11356D01*
Y11197D01*
X-6441Y11050D01*
X-6329Y10937D01*
X-6182Y10876D01*
X-6023D01*
X-5876Y10937D01*
X-5763Y11050D01*
X-5702Y11197D01*
Y11356D01*
X-5763Y11503D01*
X-5876Y11615D01*
X-6023Y11676D01*
D02*
G37*
G36*
X49598Y8055D02*
X49439D01*
X49292Y7994D01*
X49179Y7881D01*
X49118Y7734D01*
Y7575D01*
X49179Y7428D01*
X49292Y7315D01*
X49439Y7255D01*
X49598D01*
X49745Y7315D01*
X49857Y7428D01*
X49918Y7575D01*
Y7734D01*
X49857Y7881D01*
X49745Y7994D01*
X49598Y8055D01*
D02*
G37*
G36*
X-38344Y7190D02*
X-38503D01*
X-38650Y7129D01*
X-38763Y7017D01*
X-38824Y6870D01*
Y6711D01*
X-38763Y6564D01*
X-38650Y6451D01*
X-38503Y6390D01*
X-38344D01*
X-38197Y6451D01*
X-38085Y6564D01*
X-38024Y6711D01*
Y6870D01*
X-38085Y7017D01*
X-38197Y7129D01*
X-38344Y7190D01*
D02*
G37*
G36*
X-5844Y7182D02*
X-6003D01*
X-6150Y7121D01*
X-6263Y7009D01*
X-6323Y6861D01*
Y6702D01*
X-6263Y6555D01*
X-6150Y6443D01*
X-6003Y6382D01*
X-5844D01*
X-5697Y6443D01*
X-5584Y6555D01*
X-5523Y6702D01*
Y6861D01*
X-5584Y7009D01*
X-5697Y7121D01*
X-5844Y7182D01*
D02*
G37*
G36*
X26639Y7133D02*
X26480D01*
X26333Y7073D01*
X26220Y6960D01*
X26160Y6813D01*
Y6654D01*
X26220Y6507D01*
X26333Y6394D01*
X26480Y6333D01*
X26639D01*
X26786Y6394D01*
X26899Y6507D01*
X26959Y6654D01*
Y6813D01*
X26899Y6960D01*
X26786Y7073D01*
X26639Y7133D01*
D02*
G37*
G36*
X-44539Y6655D02*
X-44698D01*
X-44845Y6594D01*
X-44957Y6481D01*
X-45018Y6334D01*
Y6175D01*
X-44957Y6028D01*
X-44845Y5915D01*
X-44698Y5854D01*
X-44539D01*
X-44392Y5915D01*
X-44279Y6028D01*
X-44218Y6175D01*
Y6334D01*
X-44279Y6481D01*
X-44392Y6594D01*
X-44539Y6655D01*
D02*
G37*
G36*
X51730Y6641D02*
X51571D01*
X51424Y6580D01*
X51311Y6468D01*
X51250Y6321D01*
Y6162D01*
X51311Y6015D01*
X51424Y5902D01*
X51571Y5841D01*
X51730D01*
X51877Y5902D01*
X51989Y6015D01*
X52050Y6162D01*
Y6321D01*
X51989Y6468D01*
X51877Y6580D01*
X51730Y6641D01*
D02*
G37*
G36*
X20475Y6641D02*
X20315D01*
X20168Y6580D01*
X20056Y6467D01*
X19995Y6320D01*
Y6161D01*
X20056Y6014D01*
X20168Y5902D01*
X20315Y5841D01*
X20475D01*
X20622Y5902D01*
X20734Y6014D01*
X20795Y6161D01*
Y6320D01*
X20734Y6467D01*
X20622Y6580D01*
X20475Y6641D01*
D02*
G37*
G36*
X-12007D02*
X-12166D01*
X-12313Y6580D01*
X-12425Y6467D01*
X-12486Y6320D01*
Y6161D01*
X-12425Y6014D01*
X-12313Y5902D01*
X-12166Y5841D01*
X-12007D01*
X-11860Y5902D01*
X-11747Y6014D01*
X-11686Y6161D01*
Y6320D01*
X-11747Y6467D01*
X-11860Y6580D01*
X-12007Y6641D01*
D02*
G37*
G36*
X64557Y7732D02*
X64293D01*
X64039Y7663D01*
X63811Y7532D01*
X63625Y7346D01*
X63493Y7118D01*
X63425Y6863D01*
Y6600D01*
X63493Y6346D01*
X63625Y6118D01*
X63811Y5931D01*
X64039Y5800D01*
X64293Y5732D01*
X64557D01*
X64811Y5800D01*
X65039Y5931D01*
X65225Y6118D01*
X65357Y6346D01*
X65425Y6600D01*
Y6863D01*
X65357Y7118D01*
X65225Y7346D01*
X65039Y7532D01*
X64811Y7663D01*
X64557Y7732D01*
D02*
G37*
G36*
X50336Y6489D02*
X50177D01*
X50030Y6428D01*
X49917Y6315D01*
X49856Y6168D01*
Y6009D01*
X49917Y5862D01*
X50030Y5750D01*
X50177Y5689D01*
X50336D01*
X50483Y5750D01*
X50595Y5862D01*
X50656Y6009D01*
Y6168D01*
X50595Y6315D01*
X50483Y6428D01*
X50336Y6489D01*
D02*
G37*
G36*
X65475Y5242D02*
X64825D01*
Y4592D01*
X65475D01*
Y5242D01*
D02*
G37*
G36*
X64025D02*
X63375D01*
Y4592D01*
X64025D01*
Y5242D01*
D02*
G37*
G36*
X46691Y4579D02*
X46532D01*
X46385Y4518D01*
X46273Y4406D01*
X46212Y4259D01*
Y4100D01*
X46273Y3953D01*
X46385Y3840D01*
X46532Y3779D01*
X46691D01*
X46838Y3840D01*
X46951Y3953D01*
X47012Y4100D01*
Y4259D01*
X46951Y4406D01*
X46838Y4518D01*
X46691Y4579D01*
D02*
G37*
G36*
X65475Y3792D02*
X64825D01*
Y3142D01*
X65475D01*
Y3792D01*
D02*
G37*
G36*
X64025D02*
X63375D01*
Y3142D01*
X64025D01*
Y3792D01*
D02*
G37*
G36*
X-40666Y-62D02*
X-41316D01*
Y-712D01*
X-40666D01*
Y-62D01*
D02*
G37*
G36*
X-42116D02*
X-42766D01*
Y-712D01*
X-42116D01*
Y-62D01*
D02*
G37*
G36*
X54031Y-70D02*
X53381D01*
Y-720D01*
X54031D01*
Y-70D01*
D02*
G37*
G36*
X52581D02*
X51931D01*
Y-720D01*
X52581D01*
Y-70D01*
D02*
G37*
G36*
X24316D02*
X23666D01*
Y-720D01*
X24316D01*
Y-70D01*
D02*
G37*
G36*
X22866D02*
X22216D01*
Y-720D01*
X22866D01*
Y-70D01*
D02*
G37*
G36*
X-8165D02*
X-8815D01*
Y-720D01*
X-8165D01*
Y-70D01*
D02*
G37*
G36*
X-9615D02*
X-10265D01*
Y-720D01*
X-9615D01*
Y-70D01*
D02*
G37*
G36*
X-36504Y-112D02*
X-36767D01*
X-37022Y-180D01*
X-37250Y-312D01*
X-37436Y-498D01*
X-37568Y-726D01*
X-37636Y-980D01*
Y-1244D01*
X-37568Y-1498D01*
X-37436Y-1726D01*
X-37250Y-1912D01*
X-37022Y-2044D01*
X-36767Y-2112D01*
X-36504D01*
X-36250Y-2044D01*
X-36022Y-1912D01*
X-35835Y-1726D01*
X-35704Y-1498D01*
X-35636Y-1244D01*
Y-980D01*
X-35704Y-726D01*
X-35835Y-498D01*
X-36022Y-312D01*
X-36250Y-180D01*
X-36504Y-112D01*
D02*
G37*
G36*
X-39044D02*
X-39307D01*
X-39562Y-180D01*
X-39790Y-312D01*
X-39976Y-498D01*
X-40108Y-726D01*
X-40176Y-980D01*
Y-1244D01*
X-40108Y-1498D01*
X-39976Y-1726D01*
X-39790Y-1912D01*
X-39562Y-2044D01*
X-39307Y-2112D01*
X-39044D01*
X-38790Y-2044D01*
X-38562Y-1912D01*
X-38375Y-1726D01*
X-38244Y-1498D01*
X-38176Y-1244D01*
Y-980D01*
X-38244Y-726D01*
X-38375Y-498D01*
X-38562Y-312D01*
X-38790Y-180D01*
X-39044Y-112D01*
D02*
G37*
G36*
X55653Y-120D02*
X55390D01*
X55135Y-188D01*
X54907Y-320D01*
X54721Y-506D01*
X54589Y-734D01*
X54521Y-989D01*
Y-1252D01*
X54589Y-1506D01*
X54721Y-1734D01*
X54907Y-1920D01*
X55135Y-2052D01*
X55390Y-2120D01*
X55653D01*
X55907Y-2052D01*
X56135Y-1920D01*
X56321Y-1734D01*
X56453Y-1506D01*
X56521Y-1252D01*
Y-989D01*
X56453Y-734D01*
X56321Y-506D01*
X56135Y-320D01*
X55907Y-188D01*
X55653Y-120D01*
D02*
G37*
G36*
X28477D02*
X28214D01*
X27960Y-188D01*
X27732Y-320D01*
X27546Y-506D01*
X27414Y-734D01*
X27346Y-989D01*
Y-1252D01*
X27414Y-1506D01*
X27546Y-1734D01*
X27732Y-1920D01*
X27960Y-2052D01*
X28214Y-2120D01*
X28477D01*
X28732Y-2052D01*
X28960Y-1920D01*
X29146Y-1734D01*
X29278Y-1506D01*
X29346Y-1252D01*
Y-989D01*
X29278Y-734D01*
X29146Y-506D01*
X28960Y-320D01*
X28732Y-188D01*
X28477Y-120D01*
D02*
G37*
G36*
X25937D02*
X25674D01*
X25420Y-188D01*
X25192Y-320D01*
X25006Y-506D01*
X24874Y-734D01*
X24806Y-989D01*
Y-1252D01*
X24874Y-1506D01*
X25006Y-1734D01*
X25192Y-1920D01*
X25420Y-2052D01*
X25674Y-2120D01*
X25937D01*
X26192Y-2052D01*
X26420Y-1920D01*
X26606Y-1734D01*
X26738Y-1506D01*
X26806Y-1252D01*
Y-989D01*
X26738Y-734D01*
X26606Y-506D01*
X26420Y-320D01*
X26192Y-188D01*
X25937Y-120D01*
D02*
G37*
G36*
X-4004D02*
X-4267D01*
X-4521Y-188D01*
X-4749Y-320D01*
X-4936Y-506D01*
X-5067Y-734D01*
X-5135Y-989D01*
Y-1252D01*
X-5067Y-1506D01*
X-4936Y-1734D01*
X-4749Y-1920D01*
X-4521Y-2052D01*
X-4267Y-2120D01*
X-4004D01*
X-3749Y-2052D01*
X-3521Y-1920D01*
X-3335Y-1734D01*
X-3204Y-1506D01*
X-3135Y-1252D01*
Y-989D01*
X-3204Y-734D01*
X-3335Y-506D01*
X-3521Y-320D01*
X-3749Y-188D01*
X-4004Y-120D01*
D02*
G37*
G36*
X-6544D02*
X-6807D01*
X-7061Y-188D01*
X-7289Y-320D01*
X-7476Y-506D01*
X-7607Y-734D01*
X-7675Y-989D01*
Y-1252D01*
X-7607Y-1506D01*
X-7476Y-1734D01*
X-7289Y-1920D01*
X-7061Y-2052D01*
X-6807Y-2120D01*
X-6544D01*
X-6289Y-2052D01*
X-6061Y-1920D01*
X-5875Y-1734D01*
X-5744Y-1506D01*
X-5675Y-1252D01*
Y-989D01*
X-5744Y-734D01*
X-5875Y-506D01*
X-6061Y-320D01*
X-6289Y-188D01*
X-6544Y-120D01*
D02*
G37*
%LPD*%
G36*
X-11412Y11169D02*
X-11412Y11169D01*
X-11412D01*
X-11296Y11151D01*
X-11205Y11113D01*
X-11102Y11010D01*
X-11046Y10876D01*
X-11046Y10803D01*
X-11046Y8742D01*
X-11046D01*
X-11046Y8651D01*
X-11116Y8483D01*
X-11244Y8355D01*
X-11412Y8285D01*
X-28874D01*
X-29060Y8362D01*
X-29202Y8504D01*
X-29279Y8690D01*
Y10635D01*
X-29279Y10741D01*
X-29197Y10937D01*
X-29047Y11088D01*
X-28851Y11169D01*
X-28745Y11169D01*
X-13378Y11169D01*
X-11412D01*
X-11412Y11169D01*
D02*
G37*
G36*
X-43981D02*
X-43981Y11169D01*
X-43981D01*
X-43865Y11151D01*
X-43774Y11113D01*
X-43671Y11010D01*
X-43615Y10876D01*
X-43615Y10803D01*
X-43615Y8742D01*
X-43615D01*
X-43615Y8651D01*
X-43685Y8483D01*
X-43813Y8355D01*
X-43981Y8285D01*
X-61443D01*
X-61629Y8362D01*
X-61771Y8504D01*
X-61848Y8690D01*
Y10635D01*
X-61848Y10741D01*
X-61766Y10937D01*
X-61616Y11088D01*
X-61420Y11169D01*
X-61314Y11169D01*
X-45947Y11169D01*
X-43981D01*
X-43981Y11169D01*
D02*
G37*
G36*
X21028Y11111D02*
X21028Y11111D01*
X21028D01*
X21144Y11093D01*
X21235Y11055D01*
X21338Y10952D01*
X21394Y10818D01*
X21394Y10745D01*
X21394Y8684D01*
X21394D01*
X21394Y8593D01*
X21325Y8426D01*
X21196Y8297D01*
X21028Y8228D01*
X3566D01*
X3380Y8305D01*
X3238Y8447D01*
X3162Y8632D01*
Y10577D01*
X3162Y10683D01*
X3243Y10880D01*
X3393Y11030D01*
X3589Y11111D01*
X3696Y11111D01*
X19063Y11111D01*
X21028D01*
X21028Y11111D01*
D02*
G37*
D12*
X14152Y7608D02*
X14160Y7599D01*
X9723Y7608D02*
X14152D01*
X-18329D02*
X-18321Y7599D01*
X-22769Y7608D02*
X-18329D01*
X-55443Y7608D02*
X-50821D01*
D54*
X64425Y4192D02*
D03*
X64425Y16098D02*
D03*
D55*
X64425Y6732D02*
D03*
X64425Y13558D02*
D03*
X38293Y-16312D02*
D03*
X55521Y-1120D02*
D03*
X28346D02*
D03*
X25806D02*
D03*
X-4135D02*
D03*
X-6675D02*
D03*
X-25400Y-16355D02*
D03*
X-39176Y-1112D02*
D03*
X-36636D02*
D03*
X-57937Y-16362D02*
D03*
X7136Y-16322D02*
D03*
D56*
X40833Y-16312D02*
D03*
X52981Y-1120D02*
D03*
X23266D02*
D03*
X-9215D02*
D03*
X-22860Y-16355D02*
D03*
X-41716Y-1112D02*
D03*
X-55397Y-16362D02*
D03*
X9676Y-16322D02*
D03*
D57*
X-54300Y15710D02*
D03*
X-62300D02*
D03*
X-58300D02*
D03*
X-25741D02*
D03*
X-29741D02*
D03*
X-21741D02*
D03*
X10750D02*
D03*
X2750D02*
D03*
X6750D02*
D03*
X39441D02*
D03*
X35441D02*
D03*
X43441D02*
D03*
D58*
X20172Y10717D02*
D03*
X14160Y7599D02*
D03*
X9723Y7608D02*
D03*
X-12309Y10717D02*
D03*
X-18321Y7599D02*
D03*
X-22769Y7608D02*
D03*
X-44810Y10725D02*
D03*
X-50821Y7608D02*
D03*
X-55443D02*
D03*
X46612Y4179D02*
D03*
X23062Y6205D02*
D03*
X50256Y6089D02*
D03*
X48510Y6047D02*
D03*
X49518Y7655D02*
D03*
X51650Y6241D02*
D03*
X54783Y7001D02*
D03*
X23952Y12992D02*
D03*
X-6102Y11276D02*
D03*
X-8529Y12992D02*
D03*
X-40985Y13000D02*
D03*
X20708Y8905D02*
D03*
X25431Y9466D02*
D03*
X24119Y9436D02*
D03*
X26360Y11307D02*
D03*
X-7049Y9451D02*
D03*
X-11773Y8905D02*
D03*
X-8361Y9421D02*
D03*
X26559Y6733D02*
D03*
X27314Y3595D02*
D03*
X29252Y6205D02*
D03*
X20395Y6241D02*
D03*
X21123Y3595D02*
D03*
X-5923Y6782D02*
D03*
X-5167Y3595D02*
D03*
X-3229Y6205D02*
D03*
X-9419D02*
D03*
X-12086Y6241D02*
D03*
X-11358Y3595D02*
D03*
X-44618Y6254D02*
D03*
X-44273Y8913D02*
D03*
X-39550Y9429D02*
D03*
X-40861D02*
D03*
X-37668Y3604D02*
D03*
X-43896D02*
D03*
X-38628Y11295D02*
D03*
X-35727Y6212D02*
D03*
X-38424Y6790D02*
D03*
X-41957Y6214D02*
D03*
D59*
X58502Y-4002D02*
D03*
X60996D02*
D03*
X60996Y-5014D02*
D03*
X58502Y-4999D02*
D03*
X60165D02*
D03*
X59334D02*
D03*
X63178Y2301D02*
D03*
X64010Y2286D02*
D03*
X64841D02*
D03*
X65672D02*
D03*
X63178Y1503D02*
D03*
X64010Y1489D02*
D03*
X64841D02*
D03*
X65672D02*
D03*
X63178Y706D02*
D03*
X64010Y691D02*
D03*
X64841D02*
D03*
X65672D02*
D03*
X63178Y-92D02*
D03*
X64010Y-107D02*
D03*
X64841D02*
D03*
X65672D02*
D03*
X42855Y-12019D02*
D03*
X42420Y-4414D02*
D03*
X43722D02*
D03*
X65672Y-1703D02*
D03*
Y-905D02*
D03*
X64841D02*
D03*
X64010D02*
D03*
X63178Y-890D02*
D03*
X63178Y-1703D02*
D03*
X65752Y-3501D02*
D03*
X65752Y-4514D02*
D03*
X64921Y-4499D02*
D03*
X64090D02*
D03*
X63259D02*
D03*
Y-3501D02*
D03*
X62176Y13537D02*
D03*
X38573Y-5279D02*
D03*
X33713D02*
D03*
Y-6549D02*
D03*
Y-7819D02*
D03*
X44813Y-6441D02*
D03*
X3806Y8913D02*
D03*
X3817Y9757D02*
D03*
X3829Y10601D02*
D03*
X-28658D02*
D03*
X-28669Y9757D02*
D03*
X-28681Y8913D02*
D03*
X-61250D02*
D03*
X-61238Y9757D02*
D03*
X-61227Y10601D02*
D03*
X-53386Y-12012D02*
D03*
X4374Y-10773D02*
D03*
X3362Y-12810D02*
D03*
X6744Y-12382D02*
D03*
X5244Y-9440D02*
D03*
X11698Y-12029D02*
D03*
X11263Y-4414D02*
D03*
X12565D02*
D03*
X13656Y-6451D02*
D03*
X2556Y-7819D02*
D03*
Y-5279D02*
D03*
X-29125Y-12794D02*
D03*
X-28113Y-10757D02*
D03*
X-25743Y-12367D02*
D03*
X-27243Y-9423D02*
D03*
X-19922Y-4399D02*
D03*
X-21223D02*
D03*
X-18831Y-6436D02*
D03*
X-20816Y-12029D02*
D03*
X-29931Y-5264D02*
D03*
Y-7804D02*
D03*
X-58312Y-12405D02*
D03*
X-60754Y-10795D02*
D03*
X-61766Y-12832D02*
D03*
X-59812Y-9461D02*
D03*
X-62500Y-7842D02*
D03*
Y-5302D02*
D03*
X-53792Y-4437D02*
D03*
X-52491D02*
D03*
X-51400Y-6474D02*
D03*
D60*
X53985Y13431D02*
D03*
X52872D02*
D03*
X55099D02*
D03*
X56212D02*
D03*
X57325D02*
D03*
X58439D02*
D03*
Y14544D02*
D03*
Y15657D02*
D03*
Y16771D02*
D03*
X57325Y14544D02*
D03*
Y15657D02*
D03*
Y16771D02*
D03*
X56212Y14544D02*
D03*
Y15657D02*
D03*
Y16771D02*
D03*
X55099Y14544D02*
D03*
Y15657D02*
D03*
Y16771D02*
D03*
X71109Y17343D02*
D03*
Y18457D02*
D03*
Y16230D02*
D03*
Y8437D02*
D03*
Y10663D02*
D03*
Y9550D02*
D03*
Y12890D02*
D03*
Y11777D02*
D03*
Y15117D02*
D03*
Y14003D02*
D03*
Y6210D02*
D03*
Y7323D02*
D03*
Y3983D02*
D03*
Y5097D02*
D03*
Y1757D02*
D03*
Y2870D02*
D03*
Y643D02*
D03*
Y-1583D02*
D03*
Y-470D02*
D03*
X67769D02*
D03*
Y-1583D02*
D03*
Y643D02*
D03*
X68883Y-470D02*
D03*
Y-1583D02*
D03*
Y643D02*
D03*
X69996Y-470D02*
D03*
Y-1583D02*
D03*
Y643D02*
D03*
Y2870D02*
D03*
Y1757D02*
D03*
X68883Y2870D02*
D03*
Y1757D02*
D03*
X67769Y2870D02*
D03*
Y1757D02*
D03*
X69996Y5097D02*
D03*
Y3983D02*
D03*
X68883Y5097D02*
D03*
Y3983D02*
D03*
X67769D02*
D03*
X69996Y7323D02*
D03*
Y6210D02*
D03*
X68883Y7323D02*
D03*
Y6210D02*
D03*
X67769Y14003D02*
D03*
Y15117D02*
D03*
X68883Y14003D02*
D03*
Y15117D02*
D03*
X69996Y14003D02*
D03*
Y15117D02*
D03*
X67769Y12890D02*
D03*
X68883Y11777D02*
D03*
Y12890D02*
D03*
X69996Y11777D02*
D03*
Y12890D02*
D03*
X68883Y9550D02*
D03*
Y10663D02*
D03*
X69996Y9550D02*
D03*
Y10663D02*
D03*
Y8437D02*
D03*
X68883D02*
D03*
X69996Y16230D02*
D03*
X68883D02*
D03*
X67769D02*
D03*
Y18457D02*
D03*
X68883D02*
D03*
X69996D02*
D03*
Y17343D02*
D03*
X68883D02*
D03*
X67769D02*
D03*
X69996Y19570D02*
D03*
X68883D02*
D03*
X67769D02*
D03*
X42852Y13431D02*
D03*
X43965D02*
D03*
X51759D02*
D03*
X50645D02*
D03*
X49532D02*
D03*
X48419D02*
D03*
X47305D02*
D03*
X45079D02*
D03*
X46192D02*
D03*
Y14544D02*
D03*
Y15657D02*
D03*
X45079D02*
D03*
Y14544D02*
D03*
Y16771D02*
D03*
X46192D02*
D03*
X47305D02*
D03*
Y15657D02*
D03*
Y14544D02*
D03*
X48419D02*
D03*
Y15657D02*
D03*
Y16771D02*
D03*
X49532Y14544D02*
D03*
Y15657D02*
D03*
Y16771D02*
D03*
X50645Y14544D02*
D03*
Y15657D02*
D03*
Y16771D02*
D03*
X51759D02*
D03*
Y15657D02*
D03*
Y14544D02*
D03*
X52872Y16771D02*
D03*
Y15657D02*
D03*
Y14544D02*
D03*
X53985Y16771D02*
D03*
Y15657D02*
D03*
Y14544D02*
D03*
X-70113Y19754D02*
D03*
X-69000D02*
D03*
X-67887D02*
D03*
X-66773D02*
D03*
X-65660D02*
D03*
X-69000Y17527D02*
D03*
X-70113D02*
D03*
X-71227D02*
D03*
X-67887D02*
D03*
X-66773D02*
D03*
X-65660D02*
D03*
Y18641D02*
D03*
X-66773D02*
D03*
X-67887D02*
D03*
X-69000D02*
D03*
X-70113D02*
D03*
X-71227D02*
D03*
X52294Y561D02*
D03*
Y1674D02*
D03*
X51181Y2788D02*
D03*
Y1674D02*
D03*
Y-1666D02*
D03*
Y-552D02*
D03*
Y561D02*
D03*
X50068Y2788D02*
D03*
Y1674D02*
D03*
Y-1666D02*
D03*
Y-552D02*
D03*
Y561D02*
D03*
X48954Y2788D02*
D03*
Y1674D02*
D03*
Y-1666D02*
D03*
Y-552D02*
D03*
Y561D02*
D03*
X20135Y1932D02*
D03*
Y-1408D02*
D03*
Y-294D02*
D03*
X19022Y819D02*
D03*
Y1932D02*
D03*
X47841Y561D02*
D03*
Y-552D02*
D03*
Y-1666D02*
D03*
Y1674D02*
D03*
Y2788D02*
D03*
X16795Y819D02*
D03*
Y-1408D02*
D03*
Y4159D02*
D03*
X46728Y561D02*
D03*
Y-552D02*
D03*
Y-1666D02*
D03*
Y1674D02*
D03*
Y2788D02*
D03*
X17908Y-1408D02*
D03*
Y819D02*
D03*
X15682D02*
D03*
Y-1408D02*
D03*
Y-294D02*
D03*
X16795Y1932D02*
D03*
X45614Y561D02*
D03*
Y-552D02*
D03*
Y-1666D02*
D03*
Y1674D02*
D03*
Y2788D02*
D03*
X44501D02*
D03*
Y1674D02*
D03*
Y-1666D02*
D03*
Y-552D02*
D03*
Y561D02*
D03*
X43388D02*
D03*
X42274D02*
D03*
Y-1666D02*
D03*
Y-552D02*
D03*
X43388D02*
D03*
Y-1666D02*
D03*
Y1674D02*
D03*
X42274D02*
D03*
Y2788D02*
D03*
X43388D02*
D03*
Y3901D02*
D03*
X42274D02*
D03*
X26683Y15323D02*
D03*
X28910Y13096D02*
D03*
X30023D02*
D03*
X32250D02*
D03*
X31137D02*
D03*
X25570Y15323D02*
D03*
X26683Y16436D02*
D03*
X25570D02*
D03*
X24061D02*
D03*
X22948D02*
D03*
X21835D02*
D03*
X27797D02*
D03*
Y15323D02*
D03*
Y14210D02*
D03*
X28910Y16436D02*
D03*
Y15323D02*
D03*
Y14210D02*
D03*
X30023Y16436D02*
D03*
Y15323D02*
D03*
Y14210D02*
D03*
X31137D02*
D03*
Y15323D02*
D03*
X32250Y14210D02*
D03*
Y15323D02*
D03*
Y16436D02*
D03*
X31137D02*
D03*
X-18450Y13096D02*
D03*
X-19563D02*
D03*
X-17337D02*
D03*
X-16223D02*
D03*
X-1355Y16436D02*
D03*
X-241D02*
D03*
Y15323D02*
D03*
Y14210D02*
D03*
X-1355Y15323D02*
D03*
Y14210D02*
D03*
X-2468D02*
D03*
Y15323D02*
D03*
Y16436D02*
D03*
X-3581Y14210D02*
D03*
Y15323D02*
D03*
Y16436D02*
D03*
X-4695Y14210D02*
D03*
Y15323D02*
D03*
Y16436D02*
D03*
X-10657D02*
D03*
X-9543D02*
D03*
X-8430D02*
D03*
X-6922D02*
D03*
X-5808D02*
D03*
X-6922Y15323D02*
D03*
X-1355Y13096D02*
D03*
X-241D02*
D03*
X-2468D02*
D03*
X-3581D02*
D03*
X-5808Y15323D02*
D03*
X-38367D02*
D03*
X12928Y13096D02*
D03*
X14041D02*
D03*
X-36140D02*
D03*
X-35027D02*
D03*
X-32800D02*
D03*
X-33913D02*
D03*
X-39480Y15323D02*
D03*
X-38367Y16436D02*
D03*
X-39480D02*
D03*
X-40989D02*
D03*
X-42102D02*
D03*
X-43215D02*
D03*
X14568Y4159D02*
D03*
X15682D02*
D03*
Y3046D02*
D03*
X14568D02*
D03*
Y1932D02*
D03*
X15682D02*
D03*
X14568Y-294D02*
D03*
Y-1408D02*
D03*
Y819D02*
D03*
X16795Y-294D02*
D03*
Y3046D02*
D03*
X17908Y1932D02*
D03*
Y-294D02*
D03*
X19022Y-1408D02*
D03*
Y-294D02*
D03*
X20135Y819D02*
D03*
X21248Y-1408D02*
D03*
Y-294D02*
D03*
Y819D02*
D03*
X-17913Y4159D02*
D03*
X-16800D02*
D03*
Y3046D02*
D03*
X-17913D02*
D03*
Y1932D02*
D03*
X-16800D02*
D03*
Y-1408D02*
D03*
Y-294D02*
D03*
X-17913D02*
D03*
Y-1408D02*
D03*
Y819D02*
D03*
X-16800D02*
D03*
X-15686D02*
D03*
Y-294D02*
D03*
Y-1408D02*
D03*
Y1932D02*
D03*
Y3046D02*
D03*
Y4159D02*
D03*
X-14573Y1932D02*
D03*
Y-1408D02*
D03*
Y-294D02*
D03*
Y819D02*
D03*
X-13460Y1932D02*
D03*
Y-1408D02*
D03*
Y-294D02*
D03*
Y819D02*
D03*
X-12346Y1932D02*
D03*
Y-1408D02*
D03*
Y-294D02*
D03*
Y819D02*
D03*
X-11233Y-1408D02*
D03*
Y-294D02*
D03*
Y819D02*
D03*
X-43733Y827D02*
D03*
Y-286D02*
D03*
Y-1399D02*
D03*
X-44847Y827D02*
D03*
Y-286D02*
D03*
Y-1399D02*
D03*
Y1941D02*
D03*
X-45960Y827D02*
D03*
Y-286D02*
D03*
Y-1399D02*
D03*
Y1941D02*
D03*
X-47073Y827D02*
D03*
Y-286D02*
D03*
Y-1399D02*
D03*
Y1941D02*
D03*
X15155Y14210D02*
D03*
Y15323D02*
D03*
Y16436D02*
D03*
X16268Y14210D02*
D03*
Y15323D02*
D03*
Y16436D02*
D03*
X17381Y14210D02*
D03*
Y15323D02*
D03*
Y16436D02*
D03*
X18495Y14210D02*
D03*
Y15323D02*
D03*
Y16436D02*
D03*
X19608Y14210D02*
D03*
Y15323D02*
D03*
Y16436D02*
D03*
X20721D02*
D03*
Y15323D02*
D03*
Y14210D02*
D03*
X-17337D02*
D03*
Y15323D02*
D03*
Y16436D02*
D03*
X-16223Y14210D02*
D03*
Y15323D02*
D03*
Y16436D02*
D03*
X-15110Y14210D02*
D03*
Y15323D02*
D03*
Y16436D02*
D03*
X-13997Y14210D02*
D03*
Y15323D02*
D03*
Y16436D02*
D03*
X-12883Y14210D02*
D03*
Y15323D02*
D03*
Y16436D02*
D03*
X-11770D02*
D03*
Y15323D02*
D03*
Y14210D02*
D03*
X-44329D02*
D03*
Y15323D02*
D03*
Y16436D02*
D03*
X-48782Y13096D02*
D03*
X-49895D02*
D03*
Y12016D02*
D03*
X-45442Y16436D02*
D03*
Y15323D02*
D03*
Y14210D02*
D03*
X-46555Y16436D02*
D03*
Y15323D02*
D03*
Y14210D02*
D03*
X-47669Y16436D02*
D03*
Y15323D02*
D03*
Y14210D02*
D03*
X-48782Y16436D02*
D03*
Y15323D02*
D03*
Y14210D02*
D03*
X-49895Y16436D02*
D03*
Y15323D02*
D03*
Y14210D02*
D03*
X-37253Y16436D02*
D03*
Y15323D02*
D03*
Y14210D02*
D03*
X-36140Y16436D02*
D03*
Y15323D02*
D03*
Y14210D02*
D03*
X-35027Y16436D02*
D03*
Y15323D02*
D03*
Y14210D02*
D03*
X-51009Y12016D02*
D03*
X-52122D02*
D03*
X-53235D02*
D03*
X32250Y-1377D02*
D03*
Y-264D02*
D03*
X31137Y-1377D02*
D03*
Y-264D02*
D03*
X32250Y850D02*
D03*
X31137D02*
D03*
Y3076D02*
D03*
X32250D02*
D03*
X31137Y1963D02*
D03*
X32250D02*
D03*
X31137Y4190D02*
D03*
X32250D02*
D03*
X-241Y-1377D02*
D03*
Y-264D02*
D03*
X-1355Y-1377D02*
D03*
Y-264D02*
D03*
X-241Y850D02*
D03*
X-1355D02*
D03*
Y3076D02*
D03*
X-241D02*
D03*
X-1355Y1963D02*
D03*
X-241D02*
D03*
X-1355Y4190D02*
D03*
X-241D02*
D03*
X-32800D02*
D03*
X-33913D02*
D03*
X-32800Y1963D02*
D03*
X-33913D02*
D03*
X-32800Y3076D02*
D03*
X-33913D02*
D03*
Y850D02*
D03*
X-32800D02*
D03*
X-48187Y4167D02*
D03*
Y3054D02*
D03*
Y1941D02*
D03*
Y-1399D02*
D03*
Y-286D02*
D03*
Y827D02*
D03*
X-49300D02*
D03*
X-50413D02*
D03*
Y-1399D02*
D03*
Y-286D02*
D03*
X-49300D02*
D03*
Y-1399D02*
D03*
Y1941D02*
D03*
X-50413D02*
D03*
Y3054D02*
D03*
X-49300D02*
D03*
Y4167D02*
D03*
X-50413D02*
D03*
X-33913Y-264D02*
D03*
Y-1377D02*
D03*
X-32800Y-264D02*
D03*
Y-1377D02*
D03*
X-33913Y14210D02*
D03*
Y15323D02*
D03*
X-32800Y14210D02*
D03*
Y15323D02*
D03*
Y16436D02*
D03*
X-33913D02*
D03*
X-71227Y16414D02*
D03*
X-70113D02*
D03*
X-69000D02*
D03*
X-67887D02*
D03*
X-66773D02*
D03*
X-65660D02*
D03*
X-69000Y8621D02*
D03*
X-70113D02*
D03*
X-71227D02*
D03*
X-67887D02*
D03*
X-66773D02*
D03*
X-65660D02*
D03*
Y10847D02*
D03*
Y9734D02*
D03*
X-66773Y10847D02*
D03*
Y9734D02*
D03*
X-67887Y10847D02*
D03*
Y9734D02*
D03*
X-69000D02*
D03*
X-70113D02*
D03*
X-71227D02*
D03*
Y10847D02*
D03*
X-70113D02*
D03*
X-69000D02*
D03*
X-65660Y13074D02*
D03*
Y11961D02*
D03*
X-66773Y13074D02*
D03*
Y11961D02*
D03*
X-67887Y13074D02*
D03*
Y11961D02*
D03*
X-69000D02*
D03*
X-70113D02*
D03*
X-71227D02*
D03*
Y13074D02*
D03*
X-70113D02*
D03*
X-69000D02*
D03*
X-65660Y15301D02*
D03*
Y14187D02*
D03*
X-66773Y15301D02*
D03*
Y14187D02*
D03*
X-67887Y15301D02*
D03*
Y14187D02*
D03*
X-69000D02*
D03*
X-70113D02*
D03*
X-71227D02*
D03*
Y15301D02*
D03*
X-70113D02*
D03*
X-69000D02*
D03*
Y7507D02*
D03*
X-70113D02*
D03*
X-71227D02*
D03*
Y6394D02*
D03*
X-70113D02*
D03*
X-69000D02*
D03*
X-67887D02*
D03*
Y7507D02*
D03*
X-66773Y6394D02*
D03*
Y7507D02*
D03*
X-65660Y6394D02*
D03*
Y7507D02*
D03*
X-69000Y5281D02*
D03*
X-70113D02*
D03*
X-71227D02*
D03*
Y4167D02*
D03*
X-70113D02*
D03*
X-69000D02*
D03*
X-67887D02*
D03*
Y5281D02*
D03*
X-66773Y4167D02*
D03*
Y5281D02*
D03*
X-65660Y4167D02*
D03*
Y5281D02*
D03*
X-69000Y3054D02*
D03*
X-70113D02*
D03*
X-71227D02*
D03*
Y1941D02*
D03*
X-70113D02*
D03*
X-69000D02*
D03*
X-67887D02*
D03*
Y3054D02*
D03*
X-66773Y1941D02*
D03*
Y3054D02*
D03*
X-65660Y1941D02*
D03*
Y3054D02*
D03*
Y827D02*
D03*
Y-1399D02*
D03*
Y-286D02*
D03*
X-66773Y827D02*
D03*
Y-1399D02*
D03*
Y-286D02*
D03*
X-67887Y827D02*
D03*
Y-1399D02*
D03*
Y-286D02*
D03*
X-69000D02*
D03*
Y-1399D02*
D03*
X-70113D02*
D03*
Y-286D02*
D03*
X-71227D02*
D03*
Y-1399D02*
D03*
Y827D02*
D03*
X-70113D02*
D03*
X-69000D02*
D03*
X14041Y14210D02*
D03*
X12928D02*
D03*
Y15323D02*
D03*
X14041D02*
D03*
Y16436D02*
D03*
X12928D02*
D03*
X-19563D02*
D03*
X-18450D02*
D03*
Y15323D02*
D03*
X-19563D02*
D03*
Y14210D02*
D03*
X-18450D02*
D03*
X-53235D02*
D03*
Y13096D02*
D03*
X-52122D02*
D03*
X-51009D02*
D03*
Y14210D02*
D03*
X-52122D02*
D03*
Y15323D02*
D03*
X-51009D02*
D03*
Y16436D02*
D03*
X-52122D02*
D03*
M02*
