G04*
G04 #@! TF.GenerationSoftware,Altium Limited,Altium Designer,22.6.1 (34)*
G04*
G04 Layer_Color=8388736*
%FSLAX43Y43*%
%MOMM*%
G71*
G04*
G04 #@! TF.SameCoordinates,5327060C-A0E8-49A3-936B-299E1C487600*
G04*
G04*
G04 #@! TF.FilePolarity,Negative*
G04*
G01*
G75*
%ADD13O,0.150X0.560*%
%ADD14O,0.150X1.362*%
%ADD15O,0.560X0.150*%
%ADD16O,1.362X0.150*%
%ADD17C,0.300*%
G04:AMPARAMS|DCode=18|XSize=0.71mm|YSize=0.7mm|CornerRadius=0.125mm|HoleSize=0mm|Usage=FLASHONLY|Rotation=270.000|XOffset=0mm|YOffset=0mm|HoleType=Round|Shape=RoundedRectangle|*
%AMROUNDEDRECTD18*
21,1,0.710,0.450,0,0,270.0*
21,1,0.460,0.700,0,0,270.0*
1,1,0.250,-0.225,-0.230*
1,1,0.250,-0.225,0.230*
1,1,0.250,0.225,0.230*
1,1,0.250,0.225,-0.230*
%
%ADD18ROUNDEDRECTD18*%
G04:AMPARAMS|DCode=19|XSize=0.71mm|YSize=0.7mm|CornerRadius=0.125mm|HoleSize=0mm|Usage=FLASHONLY|Rotation=0.000|XOffset=0mm|YOffset=0mm|HoleType=Round|Shape=RoundedRectangle|*
%AMROUNDEDRECTD19*
21,1,0.710,0.450,0,0,0.0*
21,1,0.460,0.700,0,0,0.0*
1,1,0.250,0.230,-0.225*
1,1,0.250,-0.230,-0.225*
1,1,0.250,-0.230,0.225*
1,1,0.250,0.230,0.225*
%
%ADD19ROUNDEDRECTD19*%
G04:AMPARAMS|DCode=20|XSize=0.69mm|YSize=0.7mm|CornerRadius=0.124mm|HoleSize=0mm|Usage=FLASHONLY|Rotation=270.000|XOffset=0mm|YOffset=0mm|HoleType=Round|Shape=RoundedRectangle|*
%AMROUNDEDRECTD20*
21,1,0.690,0.453,0,0,270.0*
21,1,0.443,0.700,0,0,270.0*
1,1,0.248,-0.226,-0.221*
1,1,0.248,-0.226,0.221*
1,1,0.248,0.226,0.221*
1,1,0.248,0.226,-0.221*
%
%ADD20ROUNDEDRECTD20*%
G04:AMPARAMS|DCode=21|XSize=0.97mm|YSize=1.3mm|CornerRadius=0.268mm|HoleSize=0mm|Usage=FLASHONLY|Rotation=0.000|XOffset=0mm|YOffset=0mm|HoleType=Round|Shape=RoundedRectangle|*
%AMROUNDEDRECTD21*
21,1,0.970,0.765,0,0,0.0*
21,1,0.435,1.300,0,0,0.0*
1,1,0.535,0.217,-0.383*
1,1,0.535,-0.217,-0.383*
1,1,0.535,-0.217,0.383*
1,1,0.535,0.217,0.383*
%
%ADD21ROUNDEDRECTD21*%
G04:AMPARAMS|DCode=22|XSize=0.69mm|YSize=0.7mm|CornerRadius=0.124mm|HoleSize=0mm|Usage=FLASHONLY|Rotation=180.000|XOffset=0mm|YOffset=0mm|HoleType=Round|Shape=RoundedRectangle|*
%AMROUNDEDRECTD22*
21,1,0.690,0.453,0,0,180.0*
21,1,0.443,0.700,0,0,180.0*
1,1,0.248,-0.221,0.226*
1,1,0.248,0.221,0.226*
1,1,0.248,0.221,-0.226*
1,1,0.248,-0.221,-0.226*
%
%ADD22ROUNDEDRECTD22*%
G04:AMPARAMS|DCode=23|XSize=0.78mm|YSize=2.27mm|CornerRadius=0.135mm|HoleSize=0mm|Usage=FLASHONLY|Rotation=90.000|XOffset=0mm|YOffset=0mm|HoleType=Round|Shape=RoundedRectangle|*
%AMROUNDEDRECTD23*
21,1,0.780,2.000,0,0,90.0*
21,1,0.510,2.270,0,0,90.0*
1,1,0.270,1.000,0.255*
1,1,0.270,1.000,-0.255*
1,1,0.270,-1.000,-0.255*
1,1,0.270,-1.000,0.255*
%
%ADD23ROUNDEDRECTD23*%
G04:AMPARAMS|DCode=24|XSize=1.3mm|YSize=1.93mm|CornerRadius=0.2mm|HoleSize=0mm|Usage=FLASHONLY|Rotation=0.000|XOffset=0mm|YOffset=0mm|HoleType=Round|Shape=RoundedRectangle|*
%AMROUNDEDRECTD24*
21,1,1.300,1.530,0,0,0.0*
21,1,0.900,1.930,0,0,0.0*
1,1,0.400,0.450,-0.765*
1,1,0.400,-0.450,-0.765*
1,1,0.400,-0.450,0.765*
1,1,0.400,0.450,0.765*
%
%ADD24ROUNDEDRECTD24*%
G04:AMPARAMS|DCode=25|XSize=1.55mm|YSize=3.53mm|CornerRadius=0.231mm|HoleSize=0mm|Usage=FLASHONLY|Rotation=0.000|XOffset=0mm|YOffset=0mm|HoleType=Round|Shape=RoundedRectangle|*
%AMROUNDEDRECTD25*
21,1,1.550,3.068,0,0,0.0*
21,1,1.087,3.530,0,0,0.0*
1,1,0.463,0.544,-1.534*
1,1,0.463,-0.544,-1.534*
1,1,0.463,-0.544,1.534*
1,1,0.463,0.544,1.534*
%
%ADD25ROUNDEDRECTD25*%
G04:AMPARAMS|DCode=26|XSize=1.38mm|YSize=1.97mm|CornerRadius=0.21mm|HoleSize=0mm|Usage=FLASHONLY|Rotation=180.000|XOffset=0mm|YOffset=0mm|HoleType=Round|Shape=RoundedRectangle|*
%AMROUNDEDRECTD26*
21,1,1.380,1.550,0,0,180.0*
21,1,0.960,1.970,0,0,180.0*
1,1,0.420,-0.480,0.775*
1,1,0.420,0.480,0.775*
1,1,0.420,0.480,-0.775*
1,1,0.420,-0.480,-0.775*
%
%ADD26ROUNDEDRECTD26*%
G04:AMPARAMS|DCode=27|XSize=0.71mm|YSize=1.36mm|CornerRadius=0.126mm|HoleSize=0mm|Usage=FLASHONLY|Rotation=0.000|XOffset=0mm|YOffset=0mm|HoleType=Round|Shape=RoundedRectangle|*
%AMROUNDEDRECTD27*
21,1,0.710,1.108,0,0,0.0*
21,1,0.458,1.360,0,0,0.0*
1,1,0.253,0.229,-0.554*
1,1,0.253,-0.229,-0.554*
1,1,0.253,-0.229,0.554*
1,1,0.253,0.229,0.554*
%
%ADD27ROUNDEDRECTD27*%
%ADD28R,1.800X1.800*%
%ADD29C,1.800*%
%ADD30R,1.800X1.800*%
%ADD31C,2.200*%
G36*
X54090Y6827D02*
X53816D01*
Y7177D01*
X54090D01*
Y6827D01*
D02*
G37*
G36*
X53705D02*
X53479D01*
Y7178D01*
X53705D01*
Y6827D01*
D02*
G37*
G36*
X53366D02*
X53089D01*
Y7178D01*
X53366D01*
Y6827D01*
D02*
G37*
G36*
X54090Y6436D02*
X53640D01*
Y6721D01*
X54090D01*
Y6436D01*
D02*
G37*
G36*
X53540D02*
X53089D01*
Y6721D01*
X53540D01*
Y6436D01*
D02*
G37*
G36*
X54090Y5977D02*
X53816D01*
Y6327D01*
X54090D01*
Y5977D01*
D02*
G37*
G36*
X53705D02*
X53479D01*
Y6327D01*
X53705D01*
Y5977D01*
D02*
G37*
G36*
X53366D02*
X53090D01*
Y6327D01*
X53366D01*
Y5977D01*
D02*
G37*
G36*
X-37490Y5021D02*
X-37841D01*
Y5298D01*
X-37490D01*
Y5021D01*
D02*
G37*
G36*
X-38341D02*
X-38691D01*
Y5297D01*
X-38341D01*
Y5021D01*
D02*
G37*
G36*
X-43718D02*
X-44069D01*
Y5298D01*
X-43718D01*
Y5021D01*
D02*
G37*
G36*
X-44569D02*
X-44919D01*
Y5297D01*
X-44569D01*
Y5021D01*
D02*
G37*
G36*
X27491Y5013D02*
X27141D01*
Y5289D01*
X27491D01*
Y5013D01*
D02*
G37*
G36*
X26640D02*
X26291D01*
Y5289D01*
X26640D01*
Y5013D01*
D02*
G37*
G36*
X21301D02*
X20950D01*
Y5289D01*
X21301D01*
Y5013D01*
D02*
G37*
G36*
X20450D02*
X20100D01*
Y5289D01*
X20450D01*
Y5013D01*
D02*
G37*
G36*
X-4990D02*
X-5341D01*
Y5289D01*
X-4990D01*
Y5013D01*
D02*
G37*
G36*
X-5841D02*
X-6191D01*
Y5289D01*
X-5841D01*
Y5013D01*
D02*
G37*
G36*
X-11180D02*
X-11531D01*
Y5289D01*
X-11180D01*
Y5013D01*
D02*
G37*
G36*
X-12031D02*
X-12381D01*
Y5289D01*
X-12031D01*
Y5013D01*
D02*
G37*
G36*
X-37947Y4847D02*
X-38232D01*
Y5298D01*
X-37947D01*
Y4847D01*
D02*
G37*
G36*
X-44175D02*
X-44460D01*
Y5298D01*
X-44175D01*
Y4847D01*
D02*
G37*
G36*
X27034Y4839D02*
X26749D01*
Y5289D01*
X27034D01*
Y4839D01*
D02*
G37*
G36*
X20844D02*
X20559D01*
Y5289D01*
X20844D01*
Y4839D01*
D02*
G37*
G36*
X-5447D02*
X-5732D01*
Y5289D01*
X-5447D01*
Y4839D01*
D02*
G37*
G36*
X-11638D02*
X-11922D01*
Y5289D01*
X-11638D01*
Y4839D01*
D02*
G37*
G36*
X-37490Y4682D02*
X-37841D01*
Y4908D01*
X-37490D01*
Y4682D01*
D02*
G37*
G36*
X-38341D02*
X-38691D01*
Y4908D01*
X-38341D01*
Y4682D01*
D02*
G37*
G36*
X-43718D02*
X-44069D01*
Y4908D01*
X-43718D01*
Y4682D01*
D02*
G37*
G36*
X-44569D02*
X-44919D01*
Y4908D01*
X-44569D01*
Y4682D01*
D02*
G37*
G36*
X27492Y4673D02*
X27141D01*
Y4900D01*
X27492D01*
Y4673D01*
D02*
G37*
G36*
X26640D02*
X26291D01*
Y4900D01*
X26640D01*
Y4673D01*
D02*
G37*
G36*
X21301D02*
X20950D01*
Y4900D01*
X21301D01*
Y4673D01*
D02*
G37*
G36*
X20450D02*
X20100D01*
Y4900D01*
X20450D01*
Y4673D01*
D02*
G37*
G36*
X-4990D02*
X-5341D01*
Y4900D01*
X-4990D01*
Y4673D01*
D02*
G37*
G36*
X-5841D02*
X-6191D01*
Y4900D01*
X-5841D01*
Y4673D01*
D02*
G37*
G36*
X-11180D02*
X-11531D01*
Y4900D01*
X-11180D01*
Y4673D01*
D02*
G37*
G36*
X-12031D02*
X-12381D01*
Y4900D01*
X-12031D01*
Y4673D01*
D02*
G37*
G36*
X-37491Y4297D02*
X-37841D01*
Y4571D01*
X-37491D01*
Y4297D01*
D02*
G37*
G36*
X-37947D02*
X-38232D01*
Y4747D01*
X-37947D01*
Y4297D01*
D02*
G37*
G36*
X-38341D02*
X-38691D01*
Y4571D01*
X-38341D01*
Y4297D01*
D02*
G37*
G36*
X-43719D02*
X-44069D01*
Y4571D01*
X-43719D01*
Y4297D01*
D02*
G37*
G36*
X-44175D02*
X-44460D01*
Y4747D01*
X-44175D01*
Y4297D01*
D02*
G37*
G36*
X-44569D02*
X-44919D01*
Y4571D01*
X-44569D01*
Y4297D01*
D02*
G37*
G36*
X27491Y4289D02*
X27141D01*
Y4562D01*
X27491D01*
Y4289D01*
D02*
G37*
G36*
X27034D02*
X26749D01*
Y4739D01*
X27034D01*
Y4289D01*
D02*
G37*
G36*
X26641D02*
X26291D01*
Y4562D01*
X26641D01*
Y4289D01*
D02*
G37*
G36*
X21300D02*
X20950D01*
Y4562D01*
X21300D01*
Y4289D01*
D02*
G37*
G36*
X20844D02*
X20559D01*
Y4739D01*
X20844D01*
Y4289D01*
D02*
G37*
G36*
X20450D02*
X20100D01*
Y4562D01*
X20450D01*
Y4289D01*
D02*
G37*
G36*
X-4991D02*
X-5341D01*
Y4562D01*
X-4991D01*
Y4289D01*
D02*
G37*
G36*
X-5447D02*
X-5732D01*
Y4739D01*
X-5447D01*
Y4289D01*
D02*
G37*
G36*
X-5841D02*
X-6191D01*
Y4562D01*
X-5841D01*
Y4289D01*
D02*
G37*
G36*
X-11181D02*
X-11531D01*
Y4562D01*
X-11181D01*
Y4289D01*
D02*
G37*
G36*
X-11638D02*
X-11922D01*
Y4739D01*
X-11638D01*
Y4289D01*
D02*
G37*
G36*
X-12031D02*
X-12381D01*
Y4562D01*
X-12031D01*
Y4289D01*
D02*
G37*
D13*
X-56240Y8601D02*
D03*
Y9403D02*
D03*
X-23566Y9403D02*
D03*
Y8601D02*
D03*
X8926Y8601D02*
D03*
Y9403D02*
D03*
X-51198Y9403D02*
D03*
Y8601D02*
D03*
X-18683Y8593D02*
D03*
Y9395D02*
D03*
X13756D02*
D03*
Y8593D02*
D03*
D14*
X-56640Y9002D02*
D03*
X-57040D02*
D03*
X-57440D02*
D03*
X-57840D02*
D03*
X-25166Y9002D02*
D03*
X-24766D02*
D03*
X-24366D02*
D03*
X-23966D02*
D03*
X8526Y9002D02*
D03*
X8126D02*
D03*
X7726D02*
D03*
X7326D02*
D03*
X-52798Y9002D02*
D03*
X-52398D02*
D03*
X-51998D02*
D03*
X-51598D02*
D03*
X-19083Y8994D02*
D03*
X-19483D02*
D03*
X-19883D02*
D03*
X-20283D02*
D03*
X12156D02*
D03*
X12556D02*
D03*
X12956D02*
D03*
X13356D02*
D03*
D15*
X40993Y5153D02*
D03*
X40191D02*
D03*
D16*
X40592Y4753D02*
D03*
Y4353D02*
D03*
Y3953D02*
D03*
Y3553D02*
D03*
D17*
X-43457Y12426D02*
D03*
X-43057D02*
D03*
X-42657D02*
D03*
X-42257D02*
D03*
Y12026D02*
D03*
X-43457D02*
D03*
Y11626D02*
D03*
Y11226D02*
D03*
X-42257Y11626D02*
D03*
X-43057Y11226D02*
D03*
X-42657D02*
D03*
X-42257D02*
D03*
X-9757Y11217D02*
D03*
X-10157D02*
D03*
X-10557D02*
D03*
X-9757Y11617D02*
D03*
X-10957Y11217D02*
D03*
Y11617D02*
D03*
Y12017D02*
D03*
X-9757D02*
D03*
Y12417D02*
D03*
X-10157D02*
D03*
X-10557D02*
D03*
X-10957D02*
D03*
X21525D02*
D03*
X21925D02*
D03*
X22325D02*
D03*
X22725D02*
D03*
Y12017D02*
D03*
X21525D02*
D03*
Y11617D02*
D03*
Y11217D02*
D03*
X22725Y11617D02*
D03*
X21925Y11217D02*
D03*
X22325D02*
D03*
X22725D02*
D03*
X47548Y5052D02*
D03*
X47148D02*
D03*
X46748D02*
D03*
X47548Y5452D02*
D03*
X46348Y5052D02*
D03*
Y5452D02*
D03*
Y5852D02*
D03*
X47548D02*
D03*
Y6252D02*
D03*
X47148D02*
D03*
X46748D02*
D03*
X46348D02*
D03*
D18*
X59709Y-2902D02*
D03*
Y-3902D02*
D03*
X60803Y16970D02*
D03*
Y17970D02*
D03*
X64465Y-3102D02*
D03*
Y-2102D02*
D03*
X40813Y-10473D02*
D03*
Y-9473D02*
D03*
X51654Y5274D02*
D03*
Y4274D02*
D03*
X55599Y8968D02*
D03*
Y7968D02*
D03*
X24593Y4239D02*
D03*
Y5239D02*
D03*
X29256Y4239D02*
D03*
Y5239D02*
D03*
X23065Y4239D02*
D03*
Y5239D02*
D03*
X18402Y4289D02*
D03*
Y5289D02*
D03*
X-9416Y4239D02*
D03*
Y5239D02*
D03*
X-7888Y4289D02*
D03*
Y5289D02*
D03*
X-3225Y4239D02*
D03*
Y5239D02*
D03*
X-14073Y4294D02*
D03*
Y5294D02*
D03*
X-35726Y5247D02*
D03*
Y4247D02*
D03*
X-40409Y5247D02*
D03*
Y4247D02*
D03*
X-41954Y5247D02*
D03*
Y4247D02*
D03*
X-46617Y5297D02*
D03*
Y4297D02*
D03*
X9656Y-9483D02*
D03*
Y-10483D02*
D03*
X-22880Y-9517D02*
D03*
Y-10517D02*
D03*
X-55400Y-9506D02*
D03*
Y-10506D02*
D03*
D19*
X60789Y15451D02*
D03*
X59789D02*
D03*
X54130Y4269D02*
D03*
X53130D02*
D03*
X54140Y8943D02*
D03*
X53140D02*
D03*
X43176Y6669D02*
D03*
X44176D02*
D03*
X43176Y5162D02*
D03*
X44176D02*
D03*
X18352Y12834D02*
D03*
X19352D02*
D03*
X18352Y11328D02*
D03*
X19352D02*
D03*
X18352Y9817D02*
D03*
X19352D02*
D03*
X18352Y8307D02*
D03*
X19352D02*
D03*
X-14129Y12834D02*
D03*
X-13129D02*
D03*
X-14129Y11328D02*
D03*
X-13129D02*
D03*
X-14129Y9817D02*
D03*
X-13129D02*
D03*
X-14129Y8307D02*
D03*
X-13129D02*
D03*
X25593Y6730D02*
D03*
X24593D02*
D03*
X29281Y2780D02*
D03*
X28281D02*
D03*
X23065D02*
D03*
X22065D02*
D03*
X19408Y6775D02*
D03*
X18408D02*
D03*
X-6888Y6780D02*
D03*
X-7888D02*
D03*
X-3200Y2780D02*
D03*
X-4200D02*
D03*
X-9416D02*
D03*
X-10416D02*
D03*
X-13073Y6775D02*
D03*
X-14073D02*
D03*
X-40389Y6788D02*
D03*
X-39389D02*
D03*
X-36701Y2788D02*
D03*
X-35701D02*
D03*
X-46605Y6788D02*
D03*
X-45605D02*
D03*
X-42916Y2788D02*
D03*
X-41916D02*
D03*
X-45629Y11336D02*
D03*
X-46629D02*
D03*
X-45629Y12843D02*
D03*
X-46629D02*
D03*
X-45629Y8315D02*
D03*
X-46629D02*
D03*
X-45629Y9826D02*
D03*
X-46629D02*
D03*
D20*
X62176Y14549D02*
D03*
Y15574D02*
D03*
X43722Y-6451D02*
D03*
Y-5426D02*
D03*
X42420Y-6451D02*
D03*
Y-5426D02*
D03*
X48715Y7655D02*
D03*
Y8680D02*
D03*
X47451D02*
D03*
Y7655D02*
D03*
X48943Y4095D02*
D03*
Y5120D02*
D03*
X50254Y5160D02*
D03*
Y4135D02*
D03*
X23952Y13795D02*
D03*
Y14820D02*
D03*
X22660Y14845D02*
D03*
Y13820D02*
D03*
X24119Y10260D02*
D03*
Y11285D02*
D03*
X25432Y11310D02*
D03*
Y10285D02*
D03*
X-8529Y13795D02*
D03*
Y14820D02*
D03*
X-9822Y14845D02*
D03*
Y13820D02*
D03*
X-7049Y11310D02*
D03*
Y10285D02*
D03*
X-8346Y10260D02*
D03*
Y11285D02*
D03*
X-41042Y14820D02*
D03*
Y13795D02*
D03*
X-42318Y13820D02*
D03*
Y14845D02*
D03*
X-39566Y10280D02*
D03*
Y11305D02*
D03*
X-40846Y11294D02*
D03*
Y10269D02*
D03*
X4374Y-11785D02*
D03*
Y-12810D02*
D03*
X12565Y-5426D02*
D03*
Y-6451D02*
D03*
X11263Y-5426D02*
D03*
Y-6451D02*
D03*
X-28113Y-11769D02*
D03*
Y-12794D02*
D03*
X-21223Y-5395D02*
D03*
Y-6420D02*
D03*
X-19922Y-5411D02*
D03*
Y-6436D02*
D03*
X-60754Y-11807D02*
D03*
Y-12832D02*
D03*
X-52491Y-5449D02*
D03*
Y-6474D02*
D03*
X-53792Y-5449D02*
D03*
Y-6474D02*
D03*
D21*
X39141Y8259D02*
D03*
Y11359D02*
D03*
D22*
X40818Y-12019D02*
D03*
X41843D02*
D03*
X21700Y9804D02*
D03*
X22725D02*
D03*
X-10879Y9707D02*
D03*
X-9854D02*
D03*
X-43379Y9715D02*
D03*
X-42354D02*
D03*
X6256Y-9438D02*
D03*
X7281D02*
D03*
X10686Y-12029D02*
D03*
X9661D02*
D03*
X-26231Y-9423D02*
D03*
X-25206D02*
D03*
X-21828Y-12029D02*
D03*
X-22853D02*
D03*
X-54397Y-12012D02*
D03*
X-55422D02*
D03*
X-58800Y-9461D02*
D03*
X-57775D02*
D03*
D23*
X40343Y-5279D02*
D03*
X35483Y-4009D02*
D03*
Y-5279D02*
D03*
Y-6549D02*
D03*
Y-7819D02*
D03*
X40343Y-4009D02*
D03*
Y-6549D02*
D03*
Y-7819D02*
D03*
X9186D02*
D03*
Y-6549D02*
D03*
Y-4009D02*
D03*
X4326Y-7819D02*
D03*
Y-6549D02*
D03*
Y-5279D02*
D03*
Y-4009D02*
D03*
X9186Y-5279D02*
D03*
X-23301Y-7804D02*
D03*
Y-6534D02*
D03*
Y-3994D02*
D03*
X-28161Y-7804D02*
D03*
Y-6534D02*
D03*
Y-5264D02*
D03*
Y-3994D02*
D03*
X-23301Y-5264D02*
D03*
X-55870Y-7842D02*
D03*
Y-6572D02*
D03*
Y-4032D02*
D03*
X-60730Y-7842D02*
D03*
Y-6572D02*
D03*
Y-5302D02*
D03*
Y-4032D02*
D03*
X-55870Y-5302D02*
D03*
D24*
X39400Y-1112D02*
D03*
X36400D02*
D03*
D25*
X3641Y-337D02*
D03*
X9871D02*
D03*
X-55185Y3663D02*
D03*
X-61415D02*
D03*
X9871D02*
D03*
X3641D02*
D03*
X-22616D02*
D03*
X-28846D02*
D03*
X-22616Y-337D02*
D03*
X-28846D02*
D03*
X-55185D02*
D03*
X-61415D02*
D03*
D26*
X10282Y12846D02*
D03*
X7282D02*
D03*
X-22189D02*
D03*
X-25189D02*
D03*
X-54863D02*
D03*
X-57863D02*
D03*
D27*
X7693Y-13500D02*
D03*
X5793D02*
D03*
Y-11050D02*
D03*
X6743D02*
D03*
X7693D02*
D03*
X-24793Y-13485D02*
D03*
X-26693D02*
D03*
Y-11035D02*
D03*
X-25743D02*
D03*
X-24793D02*
D03*
X-57362Y-13523D02*
D03*
X-59262D02*
D03*
Y-11073D02*
D03*
X-58312D02*
D03*
X-57362D02*
D03*
D28*
X64425Y4192D02*
D03*
X64425Y16098D02*
D03*
D29*
X64425Y6732D02*
D03*
X64425Y13558D02*
D03*
X38293Y-16312D02*
D03*
X55521Y-1120D02*
D03*
X28346D02*
D03*
X25806D02*
D03*
X-4135D02*
D03*
X-6675D02*
D03*
X-25400Y-16355D02*
D03*
X-39176Y-1112D02*
D03*
X-36636D02*
D03*
X-57937Y-16362D02*
D03*
X7136Y-16322D02*
D03*
D30*
X40833Y-16312D02*
D03*
X52981Y-1120D02*
D03*
X23266D02*
D03*
X-9215D02*
D03*
X-22860Y-16355D02*
D03*
X-41716Y-1112D02*
D03*
X-55397Y-16362D02*
D03*
X9676Y-16322D02*
D03*
D31*
X-54300Y15710D02*
D03*
X-62300D02*
D03*
X-58300D02*
D03*
X-25741D02*
D03*
X-29741D02*
D03*
X-21741D02*
D03*
X10750D02*
D03*
X2750D02*
D03*
X6750D02*
D03*
X39441D02*
D03*
X35441D02*
D03*
X43441D02*
D03*
M02*
