G04*
G04 #@! TF.GenerationSoftware,Altium Limited,Altium Designer,22.5.1 (42)*
G04*
G04 Layer_Physical_Order=4*
G04 Layer_Color=16711680*
%FSLAX43Y43*%
%MOMM*%
G71*
G04*
G04 #@! TF.SameCoordinates,4758D546-D6FF-4842-BEF5-D4663405D71A*
G04*
G04*
G04 #@! TF.FilePolarity,Positive*
G04*
G01*
G75*
%ADD12C,0.150*%
%ADD54R,1.700X1.700*%
%ADD55C,1.700*%
%ADD56R,1.700X1.700*%
%ADD57C,2.100*%
%ADD58C,0.500*%
%ADD59C,0.700*%
%ADD60C,1.000*%
G36*
X69100Y20500D02*
X69100Y20500D01*
X69290Y20500D01*
X69667Y20451D01*
X70034Y20352D01*
X70385Y20207D01*
X70715Y20017D01*
X71016Y19786D01*
X71285Y19517D01*
X71516Y19215D01*
X71707Y18886D01*
X71852Y18535D01*
X71950Y18168D01*
X72000Y17791D01*
X72000Y17601D01*
X72000Y-1273D01*
X72000Y-1273D01*
X72000Y-1370D01*
X71962Y-1559D01*
X71888Y-1738D01*
X71781Y-1898D01*
X71645Y-2035D01*
X71484Y-2142D01*
X71306Y-2216D01*
X71116Y-2254D01*
X71020D01*
X54124Y-2254D01*
X54031Y-2127D01*
Y-1520D01*
X51931D01*
Y-2127D01*
X51931Y-2170D01*
X51839Y-2254D01*
X24408Y-2254D01*
X24316Y-2127D01*
Y-1520D01*
X22216D01*
Y-2127D01*
X22216Y-2170D01*
X22123Y-2254D01*
X-8073Y-2254D01*
X-8165Y-2127D01*
Y-1520D01*
X-10265D01*
Y-2127D01*
X-10265Y-2170D01*
X-10358Y-2254D01*
X-40580Y-2254D01*
X-40666Y-2127D01*
Y-1512D01*
X-42766D01*
Y-2127D01*
X-42766Y-2162D01*
X-42851Y-2254D01*
X-65000Y-2254D01*
X-71166Y-2254D01*
X-71248Y-2254D01*
X-71409Y-2222D01*
X-71561Y-2159D01*
X-71698Y-2067D01*
X-71814Y-1951D01*
X-71905Y-1815D01*
X-71968Y-1663D01*
X-72000Y-1502D01*
X-72000Y-1420D01*
Y17601D01*
X-72000Y17791D01*
X-71950Y18168D01*
X-71852Y18535D01*
X-71706Y18886D01*
X-71516Y19215D01*
X-71285Y19517D01*
X-71016Y19786D01*
X-70715Y20017D01*
X-70385Y20207D01*
X-70034Y20352D01*
X-69667Y20451D01*
X-69290Y20500D01*
X-69100Y20500D01*
X69100Y20500D01*
X69100Y20500D01*
D02*
G37*
%LPC*%
G36*
X44066Y16793D02*
Y16335D01*
X44523D01*
X44441Y16478D01*
X44208Y16710D01*
X44066Y16793D01*
D02*
G37*
G36*
X-53675Y16793D02*
Y16335D01*
X-53217D01*
X-53300Y16478D01*
X-53532Y16710D01*
X-53675Y16793D01*
D02*
G37*
G36*
X-21116Y16793D02*
Y16335D01*
X-20659D01*
X-20741Y16478D01*
X-20974Y16710D01*
X-21116Y16793D01*
D02*
G37*
G36*
X11375Y16793D02*
Y16335D01*
X11833D01*
X11750Y16478D01*
X11518Y16710D01*
X11375Y16793D01*
D02*
G37*
G36*
X10125Y16793D02*
X9983Y16710D01*
X9750Y16478D01*
X9668Y16335D01*
X10125D01*
Y16793D01*
D02*
G37*
G36*
X-22366Y16793D02*
X-22509Y16710D01*
X-22742Y16478D01*
X-22824Y16335D01*
X-22366D01*
Y16793D01*
D02*
G37*
G36*
X-54925Y16793D02*
X-55067Y16710D01*
X-55300Y16478D01*
X-55382Y16335D01*
X-54925D01*
Y16793D01*
D02*
G37*
G36*
X42816Y16793D02*
X42673Y16710D01*
X42440Y16478D01*
X42358Y16335D01*
X42816D01*
Y16793D01*
D02*
G37*
G36*
X65400Y17073D02*
X63450D01*
Y15123D01*
X65400D01*
Y17073D01*
D02*
G37*
G36*
X10125Y15085D02*
X9668D01*
X9750Y14943D01*
X9983Y14710D01*
X10125Y14628D01*
Y15085D01*
D02*
G37*
G36*
X-22366D02*
X-22824D01*
X-22742Y14943D01*
X-22509Y14710D01*
X-22366Y14628D01*
Y15085D01*
D02*
G37*
G36*
X44523D02*
X44066D01*
Y14628D01*
X44208Y14710D01*
X44441Y14943D01*
X44523Y15085D01*
D02*
G37*
G36*
X-53217D02*
X-53675D01*
Y14628D01*
X-53532Y14710D01*
X-53300Y14943D01*
X-53217Y15085D01*
D02*
G37*
G36*
X-54925D02*
X-55382D01*
X-55300Y14943D01*
X-55067Y14710D01*
X-54925Y14628D01*
Y15085D01*
D02*
G37*
G36*
X42816D02*
X42358D01*
X42440Y14943D01*
X42673Y14710D01*
X42816Y14628D01*
Y15085D01*
D02*
G37*
G36*
X-20659D02*
X-21116D01*
Y14628D01*
X-20974Y14710D01*
X-20741Y14943D01*
X-20659Y15085D01*
D02*
G37*
G36*
X11833D02*
X11375D01*
Y14628D01*
X11518Y14710D01*
X11750Y14943D01*
X11833Y15085D01*
D02*
G37*
G36*
X35595Y16885D02*
X35286D01*
X34987Y16805D01*
X34719Y16650D01*
X34500Y16432D01*
X34346Y16164D01*
X34266Y15865D01*
Y15555D01*
X34346Y15257D01*
X34500Y14989D01*
X34719Y14770D01*
X34987Y14615D01*
X35286Y14535D01*
X35595D01*
X35894Y14615D01*
X36162Y14770D01*
X36381Y14989D01*
X36536Y15257D01*
X36616Y15555D01*
Y15865D01*
X36536Y16164D01*
X36381Y16432D01*
X36162Y16650D01*
X35894Y16805D01*
X35595Y16885D01*
D02*
G37*
G36*
X2905D02*
X2595D01*
X2297Y16805D01*
X2029Y16650D01*
X1810Y16432D01*
X1655Y16164D01*
X1575Y15865D01*
Y15555D01*
X1655Y15257D01*
X1810Y14989D01*
X2029Y14770D01*
X2297Y14615D01*
X2595Y14535D01*
X2905D01*
X3204Y14615D01*
X3472Y14770D01*
X3690Y14989D01*
X3845Y15257D01*
X3925Y15555D01*
Y15865D01*
X3845Y16164D01*
X3690Y16432D01*
X3472Y16650D01*
X3204Y16805D01*
X2905Y16885D01*
D02*
G37*
G36*
X-29587D02*
X-29896D01*
X-30195Y16805D01*
X-30463Y16650D01*
X-30682Y16432D01*
X-30836Y16164D01*
X-30916Y15865D01*
Y15555D01*
X-30836Y15257D01*
X-30682Y14989D01*
X-30463Y14770D01*
X-30195Y14615D01*
X-29896Y14535D01*
X-29587D01*
X-29288Y14615D01*
X-29020Y14770D01*
X-28801Y14989D01*
X-28647Y15257D01*
X-28566Y15555D01*
Y15865D01*
X-28647Y16164D01*
X-28801Y16432D01*
X-29020Y16650D01*
X-29288Y16805D01*
X-29587Y16885D01*
D02*
G37*
G36*
X-62145D02*
X-62455D01*
X-62753Y16805D01*
X-63021Y16650D01*
X-63240Y16432D01*
X-63395Y16164D01*
X-63475Y15865D01*
Y15555D01*
X-63395Y15257D01*
X-63240Y14989D01*
X-63021Y14770D01*
X-62753Y14615D01*
X-62455Y14535D01*
X-62145D01*
X-61846Y14615D01*
X-61578Y14770D01*
X-61360Y14989D01*
X-61205Y15257D01*
X-61125Y15555D01*
Y15865D01*
X-61205Y16164D01*
X-61360Y16432D01*
X-61578Y16650D01*
X-61846Y16805D01*
X-62145Y16885D01*
D02*
G37*
G36*
X39593Y17260D02*
X39288D01*
X38988Y17201D01*
X38706Y17084D01*
X38453Y16914D01*
X38237Y16698D01*
X38067Y16444D01*
X37950Y16162D01*
X37891Y15863D01*
Y15557D01*
X37950Y15258D01*
X38067Y14976D01*
X38237Y14722D01*
X38453Y14506D01*
X38706Y14337D01*
X38988Y14220D01*
X39288Y14160D01*
X39593D01*
X39893Y14220D01*
X40175Y14337D01*
X40429Y14506D01*
X40645Y14722D01*
X40814Y14976D01*
X40931Y15258D01*
X40991Y15557D01*
Y15863D01*
X40931Y16162D01*
X40814Y16444D01*
X40645Y16698D01*
X40429Y16914D01*
X40175Y17084D01*
X39893Y17201D01*
X39593Y17260D01*
D02*
G37*
G36*
X6903D02*
X6597D01*
X6298Y17201D01*
X6016Y17084D01*
X5762Y16914D01*
X5546Y16698D01*
X5376Y16444D01*
X5260Y16162D01*
X5200Y15863D01*
Y15557D01*
X5260Y15258D01*
X5376Y14976D01*
X5546Y14722D01*
X5762Y14506D01*
X6016Y14337D01*
X6298Y14220D01*
X6597Y14160D01*
X6903D01*
X7202Y14220D01*
X7484Y14337D01*
X7738Y14506D01*
X7954Y14722D01*
X8124Y14976D01*
X8240Y15258D01*
X8300Y15557D01*
Y15863D01*
X8240Y16162D01*
X8124Y16444D01*
X7954Y16698D01*
X7738Y16914D01*
X7484Y17084D01*
X7202Y17201D01*
X6903Y17260D01*
D02*
G37*
G36*
X-25589D02*
X-25894D01*
X-26194Y17201D01*
X-26476Y17084D01*
X-26730Y16914D01*
X-26945Y16698D01*
X-27115Y16444D01*
X-27232Y16162D01*
X-27291Y15863D01*
Y15557D01*
X-27232Y15258D01*
X-27115Y14976D01*
X-26945Y14722D01*
X-26730Y14506D01*
X-26476Y14337D01*
X-26194Y14220D01*
X-25894Y14160D01*
X-25589D01*
X-25289Y14220D01*
X-25007Y14337D01*
X-24753Y14506D01*
X-24538Y14722D01*
X-24368Y14976D01*
X-24251Y15258D01*
X-24191Y15557D01*
Y15863D01*
X-24251Y16162D01*
X-24368Y16444D01*
X-24538Y16698D01*
X-24753Y16914D01*
X-25007Y17084D01*
X-25289Y17201D01*
X-25589Y17260D01*
D02*
G37*
G36*
X-58147D02*
X-58453D01*
X-58752Y17201D01*
X-59034Y17084D01*
X-59288Y16914D01*
X-59504Y16698D01*
X-59674Y16444D01*
X-59790Y16162D01*
X-59850Y15863D01*
Y15557D01*
X-59790Y15258D01*
X-59674Y14976D01*
X-59504Y14722D01*
X-59288Y14506D01*
X-59034Y14337D01*
X-58752Y14220D01*
X-58453Y14160D01*
X-58147D01*
X-57848Y14220D01*
X-57566Y14337D01*
X-57312Y14506D01*
X-57096Y14722D01*
X-56926Y14976D01*
X-56810Y15258D01*
X-56750Y15557D01*
Y15863D01*
X-56810Y16162D01*
X-56926Y16444D01*
X-57096Y16698D01*
X-57312Y16914D01*
X-57566Y17084D01*
X-57848Y17201D01*
X-58147Y17260D01*
D02*
G37*
G36*
X64825Y14538D02*
Y13958D01*
X65405D01*
X65404Y13963D01*
X65265Y14203D01*
X65070Y14398D01*
X64830Y14536D01*
X64825Y14538D01*
D02*
G37*
G36*
X64025Y14538D02*
X64020Y14536D01*
X63780Y14398D01*
X63585Y14203D01*
X63447Y13963D01*
X63445Y13958D01*
X64025D01*
Y14538D01*
D02*
G37*
G36*
X-40910Y13375D02*
X-41059D01*
X-41197Y13318D01*
X-41303Y13212D01*
X-41360Y13075D01*
Y12925D01*
X-41303Y12788D01*
X-41197Y12682D01*
X-41059Y12625D01*
X-40910D01*
X-40772Y12682D01*
X-40667Y12788D01*
X-40610Y12925D01*
Y13075D01*
X-40667Y13212D01*
X-40772Y13318D01*
X-40910Y13375D01*
D02*
G37*
G36*
X24027Y13367D02*
X23878D01*
X23740Y13310D01*
X23634Y13205D01*
X23577Y13067D01*
Y12918D01*
X23634Y12780D01*
X23740Y12674D01*
X23878Y12617D01*
X24027D01*
X24165Y12674D01*
X24270Y12780D01*
X24327Y12918D01*
Y13067D01*
X24270Y13205D01*
X24165Y13310D01*
X24027Y13367D01*
D02*
G37*
G36*
X-8454D02*
X-8604D01*
X-8741Y13310D01*
X-8847Y13205D01*
X-8904Y13067D01*
Y12918D01*
X-8847Y12780D01*
X-8741Y12674D01*
X-8604Y12617D01*
X-8454D01*
X-8317Y12674D01*
X-8211Y12780D01*
X-8154Y12918D01*
Y13067D01*
X-8211Y13205D01*
X-8317Y13310D01*
X-8454Y13367D01*
D02*
G37*
G36*
X64025Y13158D02*
X63445D01*
X63447Y13153D01*
X63585Y12913D01*
X63780Y12718D01*
X64020Y12579D01*
X64025Y12578D01*
Y13158D01*
D02*
G37*
G36*
X65405D02*
X64825D01*
Y12578D01*
X64830Y12579D01*
X65070Y12718D01*
X65265Y12913D01*
X65404Y13153D01*
X65405Y13158D01*
D02*
G37*
G36*
X-11412Y11304D02*
X-13378D01*
X-28745Y11304D01*
X-28851Y11304D01*
X-28876Y11294D01*
X-28903D01*
X-29099Y11213D01*
X-29118Y11194D01*
X-29143Y11183D01*
X-29293Y11033D01*
X-29303Y11008D01*
X-29322Y10989D01*
X-29404Y10793D01*
X-29404Y10766D01*
X-29414Y10741D01*
X-29414Y10635D01*
Y8690D01*
X-29404Y8665D01*
Y8638D01*
X-29327Y8453D01*
X-29308Y8434D01*
X-29297Y8409D01*
X-29155Y8267D01*
X-29131Y8256D01*
X-29112Y8237D01*
X-28926Y8160D01*
X-28899D01*
X-28874Y8150D01*
X-11412D01*
X-11387Y8160D01*
X-11360D01*
X-11192Y8230D01*
X-11173Y8249D01*
X-11148Y8259D01*
X-11020Y8388D01*
X-11010Y8413D01*
X-10991Y8432D01*
X-10921Y8599D01*
Y8626D01*
X-10911Y8651D01*
X-10911Y8742D01*
X-10911Y8742D01*
X-10911Y10803D01*
X-10911Y10876D01*
X-10921Y10900D01*
Y10927D01*
X-10977Y11062D01*
X-10996Y11081D01*
X-11006Y11106D01*
X-11109Y11209D01*
X-11134Y11219D01*
X-11153Y11238D01*
X-11244Y11276D01*
X-11261D01*
X-11276Y11285D01*
X-11392Y11303D01*
X-11402Y11300D01*
X-11412Y11304D01*
X-11412D01*
X-11412Y11304D01*
D02*
G37*
G36*
X-43981D02*
X-45947D01*
X-61314Y11304D01*
X-61420Y11304D01*
X-61445Y11294D01*
X-61472D01*
X-61668Y11213D01*
X-61687Y11194D01*
X-61712Y11183D01*
X-61862Y11033D01*
X-61872Y11008D01*
X-61891Y10989D01*
X-61973Y10793D01*
X-61973Y10766D01*
X-61983Y10741D01*
X-61983Y10635D01*
Y8690D01*
X-61973Y8665D01*
Y8638D01*
X-61896Y8453D01*
X-61877Y8434D01*
X-61866Y8409D01*
X-61724Y8267D01*
X-61700Y8256D01*
X-61681Y8237D01*
X-61495Y8160D01*
X-61468D01*
X-61443Y8150D01*
X-43981D01*
X-43956Y8160D01*
X-43929D01*
X-43761Y8230D01*
X-43742Y8249D01*
X-43717Y8259D01*
X-43589Y8388D01*
X-43579Y8413D01*
X-43560Y8432D01*
X-43490Y8599D01*
Y8626D01*
X-43480Y8651D01*
X-43480Y8742D01*
X-43480Y8742D01*
X-43480Y10803D01*
X-43480Y10876D01*
X-43490Y10900D01*
Y10927D01*
X-43546Y11062D01*
X-43565Y11081D01*
X-43575Y11106D01*
X-43678Y11209D01*
X-43703Y11219D01*
X-43722Y11238D01*
X-43813Y11276D01*
X-43830D01*
X-43845Y11285D01*
X-43961Y11303D01*
X-43971Y11300D01*
X-43981Y11304D01*
X-43981D01*
X-43981Y11304D01*
D02*
G37*
G36*
X21028Y11247D02*
X19063D01*
X3696Y11247D01*
X3589Y11247D01*
X3565Y11236D01*
X3538D01*
X3341Y11155D01*
X3322Y11136D01*
X3297Y11126D01*
X3147Y10975D01*
X3137Y10950D01*
X3118Y10931D01*
X3037Y10735D01*
X3037Y10708D01*
X3026Y10683D01*
X3026Y10577D01*
Y8632D01*
X3037Y8607D01*
Y8580D01*
X3113Y8395D01*
X3132Y8376D01*
X3143Y8351D01*
X3285Y8209D01*
X3310Y8199D01*
X3329Y8180D01*
X3514Y8103D01*
X3541D01*
X3566Y8092D01*
X9582D01*
X9607Y7965D01*
X9510Y7925D01*
X9405Y7820D01*
X9348Y7682D01*
Y7533D01*
X9405Y7395D01*
X9510Y7290D01*
X9648Y7233D01*
X9797D01*
X9935Y7290D01*
X10041Y7395D01*
X10044Y7404D01*
X13836D01*
X13842Y7387D01*
X13948Y7281D01*
X14086Y7224D01*
X14235D01*
X14373Y7281D01*
X14478Y7387D01*
X14535Y7525D01*
Y7674D01*
X14478Y7812D01*
X14373Y7917D01*
X14235Y7974D01*
X14256Y8092D01*
X21028D01*
X21053Y8103D01*
X21080D01*
X21248Y8172D01*
X21267Y8191D01*
X21292Y8202D01*
X21420Y8330D01*
X21431Y8355D01*
X21450Y8374D01*
X21519Y8542D01*
Y8569D01*
X21529Y8593D01*
X21529Y8684D01*
X21529Y8684D01*
X21529Y10745D01*
X21529Y10818D01*
X21519Y10843D01*
Y10870D01*
X21463Y11004D01*
X21444Y11023D01*
X21434Y11048D01*
X21331Y11151D01*
X21306Y11161D01*
X21287Y11180D01*
X21196Y11218D01*
X21179D01*
X21165Y11227D01*
X21049Y11245D01*
X21038Y11242D01*
X21028Y11246D01*
X21028D01*
X21028Y11247D01*
D02*
G37*
G36*
X26434Y11682D02*
X26285D01*
X26147Y11625D01*
X26042Y11519D01*
X25985Y11381D01*
Y11232D01*
X26042Y11094D01*
X26147Y10989D01*
X26285Y10932D01*
X26434D01*
X26572Y10989D01*
X26678Y11094D01*
X26735Y11232D01*
Y11381D01*
X26678Y11519D01*
X26572Y11625D01*
X26434Y11682D01*
D02*
G37*
G36*
X-38553Y11670D02*
X-38702D01*
X-38840Y11613D01*
X-38946Y11508D01*
X-39003Y11370D01*
Y11221D01*
X-38946Y11083D01*
X-38840Y10977D01*
X-38702Y10920D01*
X-38553D01*
X-38415Y10977D01*
X-38310Y11083D01*
X-38253Y11221D01*
Y11370D01*
X-38310Y11508D01*
X-38415Y11613D01*
X-38553Y11670D01*
D02*
G37*
G36*
X-6028Y11651D02*
X-6177D01*
X-6315Y11594D01*
X-6420Y11489D01*
X-6477Y11351D01*
Y11202D01*
X-6420Y11064D01*
X-6315Y10958D01*
X-6177Y10901D01*
X-6028D01*
X-5890Y10958D01*
X-5784Y11064D01*
X-5727Y11202D01*
Y11351D01*
X-5784Y11489D01*
X-5890Y11594D01*
X-6028Y11651D01*
D02*
G37*
G36*
X-50746Y7983D02*
X-50896D01*
X-51033Y7925D01*
X-51139Y7820D01*
X-51142Y7811D01*
X-55122D01*
X-55125Y7820D01*
X-55231Y7925D01*
X-55369Y7983D01*
X-55518D01*
X-55656Y7925D01*
X-55761Y7820D01*
X-55818Y7682D01*
Y7533D01*
X-55761Y7395D01*
X-55656Y7290D01*
X-55518Y7233D01*
X-55369D01*
X-55231Y7290D01*
X-55125Y7395D01*
X-55122Y7404D01*
X-51142D01*
X-51139Y7395D01*
X-51033Y7290D01*
X-50896Y7233D01*
X-50746D01*
X-50609Y7290D01*
X-50503Y7395D01*
X-50446Y7533D01*
Y7682D01*
X-50503Y7820D01*
X-50609Y7925D01*
X-50746Y7983D01*
D02*
G37*
G36*
X49593Y8030D02*
X49444D01*
X49306Y7972D01*
X49200Y7867D01*
X49143Y7729D01*
Y7580D01*
X49200Y7442D01*
X49306Y7337D01*
X49444Y7280D01*
X49593D01*
X49731Y7337D01*
X49836Y7442D01*
X49893Y7580D01*
Y7729D01*
X49836Y7867D01*
X49731Y7972D01*
X49593Y8030D01*
D02*
G37*
G36*
X-22694Y7983D02*
X-22843D01*
X-22981Y7925D01*
X-23087Y7820D01*
X-23144Y7682D01*
Y7533D01*
X-23087Y7395D01*
X-22981Y7290D01*
X-22843Y7233D01*
X-22694D01*
X-22556Y7290D01*
X-22451Y7395D01*
X-22447Y7404D01*
X-18646D01*
X-18639Y7387D01*
X-18533Y7281D01*
X-18395Y7224D01*
X-18246D01*
X-18108Y7281D01*
X-18003Y7387D01*
X-17946Y7525D01*
Y7674D01*
X-18003Y7812D01*
X-18108Y7917D01*
X-18246Y7974D01*
X-18395D01*
X-18533Y7917D01*
X-18639Y7812D01*
X-18639Y7811D01*
X-22447D01*
X-22451Y7820D01*
X-22556Y7925D01*
X-22694Y7983D01*
D02*
G37*
G36*
X-38349Y7165D02*
X-38498D01*
X-38636Y7108D01*
X-38742Y7003D01*
X-38799Y6865D01*
Y6716D01*
X-38742Y6578D01*
X-38636Y6472D01*
X-38498Y6415D01*
X-38349D01*
X-38211Y6472D01*
X-38106Y6578D01*
X-38049Y6716D01*
Y6865D01*
X-38106Y7003D01*
X-38211Y7108D01*
X-38349Y7165D01*
D02*
G37*
G36*
X-5849Y7157D02*
X-5998D01*
X-6136Y7100D01*
X-6241Y6994D01*
X-6298Y6857D01*
Y6707D01*
X-6241Y6569D01*
X-6136Y6464D01*
X-5998Y6407D01*
X-5849D01*
X-5711Y6464D01*
X-5606Y6569D01*
X-5548Y6707D01*
Y6857D01*
X-5606Y6994D01*
X-5711Y7100D01*
X-5849Y7157D01*
D02*
G37*
G36*
X26634Y7108D02*
X26485D01*
X26347Y7051D01*
X26242Y6946D01*
X26184Y6808D01*
Y6659D01*
X26242Y6521D01*
X26347Y6416D01*
X26485Y6358D01*
X26634D01*
X26772Y6416D01*
X26877Y6521D01*
X26934Y6659D01*
Y6808D01*
X26877Y6946D01*
X26772Y7051D01*
X26634Y7108D01*
D02*
G37*
G36*
X-44544Y6629D02*
X-44693D01*
X-44831Y6572D01*
X-44936Y6467D01*
X-44993Y6329D01*
Y6180D01*
X-44936Y6042D01*
X-44831Y5937D01*
X-44693Y5879D01*
X-44544D01*
X-44406Y5937D01*
X-44300Y6042D01*
X-44243Y6180D01*
Y6329D01*
X-44300Y6467D01*
X-44406Y6572D01*
X-44544Y6629D01*
D02*
G37*
G36*
X51725Y6616D02*
X51576D01*
X51438Y6559D01*
X51332Y6454D01*
X51275Y6316D01*
Y6167D01*
X51332Y6029D01*
X51438Y5923D01*
X51576Y5866D01*
X51725D01*
X51863Y5923D01*
X51968Y6029D01*
X52025Y6167D01*
Y6316D01*
X51968Y6454D01*
X51863Y6559D01*
X51725Y6616D01*
D02*
G37*
G36*
X20470Y6616D02*
X20320D01*
X20183Y6559D01*
X20077Y6453D01*
X20020Y6315D01*
Y6166D01*
X20077Y6028D01*
X20183Y5923D01*
X20320Y5866D01*
X20470D01*
X20607Y5923D01*
X20713Y6028D01*
X20770Y6166D01*
Y6315D01*
X20713Y6453D01*
X20607Y6559D01*
X20470Y6616D01*
D02*
G37*
G36*
X-12012D02*
X-12161D01*
X-12299Y6559D01*
X-12404Y6453D01*
X-12461Y6315D01*
Y6166D01*
X-12404Y6028D01*
X-12299Y5923D01*
X-12161Y5866D01*
X-12012D01*
X-11874Y5923D01*
X-11768Y6028D01*
X-11711Y6166D01*
Y6315D01*
X-11768Y6453D01*
X-11874Y6559D01*
X-12012Y6616D01*
D02*
G37*
G36*
X64553Y7707D02*
X64297D01*
X64049Y7640D01*
X63826Y7512D01*
X63645Y7330D01*
X63517Y7108D01*
X63450Y6860D01*
Y6603D01*
X63517Y6355D01*
X63645Y6133D01*
X63826Y5951D01*
X64049Y5823D01*
X64297Y5757D01*
X64553D01*
X64801Y5823D01*
X65024Y5951D01*
X65205Y6133D01*
X65334Y6355D01*
X65400Y6603D01*
Y6860D01*
X65334Y7108D01*
X65205Y7330D01*
X65024Y7512D01*
X64801Y7640D01*
X64553Y7707D01*
D02*
G37*
G36*
X50331Y6464D02*
X50182D01*
X50044Y6407D01*
X49938Y6301D01*
X49881Y6163D01*
Y6014D01*
X49938Y5876D01*
X50044Y5771D01*
X50182Y5714D01*
X50331D01*
X50469Y5771D01*
X50574Y5876D01*
X50631Y6014D01*
Y6163D01*
X50574Y6301D01*
X50469Y6407D01*
X50331Y6464D01*
D02*
G37*
G36*
X65475Y5242D02*
X64825D01*
Y4592D01*
X65475D01*
Y5242D01*
D02*
G37*
G36*
X64025D02*
X63375D01*
Y4592D01*
X64025D01*
Y5242D01*
D02*
G37*
G36*
X46686Y4554D02*
X46537D01*
X46399Y4497D01*
X46294Y4392D01*
X46237Y4254D01*
Y4105D01*
X46294Y3967D01*
X46399Y3861D01*
X46537Y3804D01*
X46686D01*
X46824Y3861D01*
X46930Y3967D01*
X46987Y4105D01*
Y4254D01*
X46930Y4392D01*
X46824Y4497D01*
X46686Y4554D01*
D02*
G37*
G36*
X65475Y3792D02*
X64825D01*
Y3142D01*
X65475D01*
Y3792D01*
D02*
G37*
G36*
X64025D02*
X63375D01*
Y3142D01*
X64025D01*
Y3792D01*
D02*
G37*
G36*
X-40666Y-62D02*
X-41316D01*
Y-712D01*
X-40666D01*
Y-62D01*
D02*
G37*
G36*
X-42116D02*
X-42766D01*
Y-712D01*
X-42116D01*
Y-62D01*
D02*
G37*
G36*
X54031Y-70D02*
X53381D01*
Y-720D01*
X54031D01*
Y-70D01*
D02*
G37*
G36*
X52581D02*
X51931D01*
Y-720D01*
X52581D01*
Y-70D01*
D02*
G37*
G36*
X24316D02*
X23666D01*
Y-720D01*
X24316D01*
Y-70D01*
D02*
G37*
G36*
X22866D02*
X22216D01*
Y-720D01*
X22866D01*
Y-70D01*
D02*
G37*
G36*
X-8165D02*
X-8815D01*
Y-720D01*
X-8165D01*
Y-70D01*
D02*
G37*
G36*
X-9615D02*
X-10265D01*
Y-720D01*
X-9615D01*
Y-70D01*
D02*
G37*
G36*
X-36507Y-137D02*
X-36764D01*
X-37012Y-203D01*
X-37234Y-332D01*
X-37416Y-513D01*
X-37544Y-736D01*
X-37611Y-984D01*
Y-1240D01*
X-37544Y-1488D01*
X-37416Y-1711D01*
X-37234Y-1892D01*
X-37012Y-2020D01*
X-36764Y-2087D01*
X-36507D01*
X-36259Y-2020D01*
X-36037Y-1892D01*
X-35855Y-1711D01*
X-35727Y-1488D01*
X-35661Y-1240D01*
Y-984D01*
X-35727Y-736D01*
X-35855Y-513D01*
X-36037Y-332D01*
X-36259Y-203D01*
X-36507Y-137D01*
D02*
G37*
G36*
X-39047D02*
X-39304D01*
X-39552Y-203D01*
X-39774Y-332D01*
X-39956Y-513D01*
X-40084Y-736D01*
X-40151Y-984D01*
Y-1240D01*
X-40084Y-1488D01*
X-39956Y-1711D01*
X-39774Y-1892D01*
X-39552Y-2020D01*
X-39304Y-2087D01*
X-39047D01*
X-38799Y-2020D01*
X-38577Y-1892D01*
X-38396Y-1711D01*
X-38267Y-1488D01*
X-38201Y-1240D01*
Y-984D01*
X-38267Y-736D01*
X-38396Y-513D01*
X-38577Y-332D01*
X-38799Y-203D01*
X-39047Y-137D01*
D02*
G37*
G36*
X55650Y-145D02*
X55393D01*
X55145Y-212D01*
X54923Y-340D01*
X54741Y-522D01*
X54613Y-744D01*
X54546Y-992D01*
Y-1249D01*
X54613Y-1497D01*
X54741Y-1719D01*
X54923Y-1900D01*
X55145Y-2029D01*
X55393Y-2095D01*
X55650D01*
X55898Y-2029D01*
X56120Y-1900D01*
X56301Y-1719D01*
X56430Y-1497D01*
X56496Y-1249D01*
Y-992D01*
X56430Y-744D01*
X56301Y-522D01*
X56120Y-340D01*
X55898Y-212D01*
X55650Y-145D01*
D02*
G37*
G36*
X28474D02*
X28217D01*
X27969Y-212D01*
X27747Y-340D01*
X27566Y-522D01*
X27437Y-744D01*
X27371Y-992D01*
Y-1249D01*
X27437Y-1497D01*
X27566Y-1719D01*
X27747Y-1900D01*
X27969Y-2029D01*
X28217Y-2095D01*
X28474D01*
X28722Y-2029D01*
X28944Y-1900D01*
X29126Y-1719D01*
X29254Y-1497D01*
X29321Y-1249D01*
Y-992D01*
X29254Y-744D01*
X29126Y-522D01*
X28944Y-340D01*
X28722Y-212D01*
X28474Y-145D01*
D02*
G37*
G36*
X25934D02*
X25677D01*
X25429Y-212D01*
X25207Y-340D01*
X25026Y-522D01*
X24897Y-744D01*
X24831Y-992D01*
Y-1249D01*
X24897Y-1497D01*
X25026Y-1719D01*
X25207Y-1900D01*
X25429Y-2029D01*
X25677Y-2095D01*
X25934D01*
X26182Y-2029D01*
X26404Y-1900D01*
X26586Y-1719D01*
X26714Y-1497D01*
X26781Y-1249D01*
Y-992D01*
X26714Y-744D01*
X26586Y-522D01*
X26404Y-340D01*
X26182Y-212D01*
X25934Y-145D01*
D02*
G37*
G36*
X-4007D02*
X-4264D01*
X-4512Y-212D01*
X-4734Y-340D01*
X-4916Y-522D01*
X-5044Y-744D01*
X-5110Y-992D01*
Y-1249D01*
X-5044Y-1497D01*
X-4916Y-1719D01*
X-4734Y-1900D01*
X-4512Y-2029D01*
X-4264Y-2095D01*
X-4007D01*
X-3759Y-2029D01*
X-3537Y-1900D01*
X-3355Y-1719D01*
X-3227Y-1497D01*
X-3160Y-1249D01*
Y-992D01*
X-3227Y-744D01*
X-3355Y-522D01*
X-3537Y-340D01*
X-3759Y-212D01*
X-4007Y-145D01*
D02*
G37*
G36*
X-6547D02*
X-6804D01*
X-7052Y-212D01*
X-7274Y-340D01*
X-7456Y-522D01*
X-7584Y-744D01*
X-7650Y-992D01*
Y-1249D01*
X-7584Y-1497D01*
X-7456Y-1719D01*
X-7274Y-1900D01*
X-7052Y-2029D01*
X-6804Y-2095D01*
X-6547D01*
X-6299Y-2029D01*
X-6077Y-1900D01*
X-5895Y-1719D01*
X-5767Y-1497D01*
X-5700Y-1249D01*
Y-992D01*
X-5767Y-744D01*
X-5895Y-522D01*
X-6077Y-340D01*
X-6299Y-212D01*
X-6547Y-145D01*
D02*
G37*
%LPD*%
G36*
X-11412Y11169D02*
X-11412Y11169D01*
X-11412D01*
X-11296Y11151D01*
X-11205Y11113D01*
X-11102Y11010D01*
X-11046Y10876D01*
X-11046Y10803D01*
X-11046Y8742D01*
X-11046D01*
X-11046Y8651D01*
X-11116Y8483D01*
X-11244Y8355D01*
X-11412Y8285D01*
X-28874D01*
X-29060Y8362D01*
X-29202Y8504D01*
X-29279Y8690D01*
Y10635D01*
X-29279Y10741D01*
X-29197Y10937D01*
X-29047Y11088D01*
X-28851Y11169D01*
X-28745Y11169D01*
X-13378Y11169D01*
X-11412D01*
X-11412Y11169D01*
D02*
G37*
G36*
X-43981D02*
X-43981Y11169D01*
X-43981D01*
X-43865Y11151D01*
X-43774Y11113D01*
X-43671Y11010D01*
X-43615Y10876D01*
X-43615Y10803D01*
X-43615Y8742D01*
X-43615D01*
X-43615Y8651D01*
X-43685Y8483D01*
X-43813Y8355D01*
X-43981Y8285D01*
X-61443D01*
X-61629Y8362D01*
X-61771Y8504D01*
X-61848Y8690D01*
Y10635D01*
X-61848Y10741D01*
X-61766Y10937D01*
X-61616Y11088D01*
X-61420Y11169D01*
X-61314Y11169D01*
X-45947Y11169D01*
X-43981D01*
X-43981Y11169D01*
D02*
G37*
G36*
X21028Y11111D02*
X21028Y11111D01*
X21028D01*
X21144Y11093D01*
X21235Y11055D01*
X21338Y10952D01*
X21394Y10818D01*
X21394Y10745D01*
X21394Y8684D01*
X21394D01*
X21394Y8593D01*
X21325Y8426D01*
X21196Y8297D01*
X21028Y8228D01*
X3566D01*
X3380Y8305D01*
X3238Y8447D01*
X3162Y8632D01*
Y10577D01*
X3162Y10683D01*
X3243Y10880D01*
X3393Y11030D01*
X3589Y11111D01*
X3696Y11111D01*
X19063Y11111D01*
X21028D01*
X21028Y11111D01*
D02*
G37*
D12*
X14152Y7608D02*
X14160Y7599D01*
X9723Y7608D02*
X14152D01*
X-18329D02*
X-18321Y7599D01*
X-22769Y7608D02*
X-18329D01*
X-55443Y7608D02*
X-50821D01*
D54*
X64425Y4192D02*
D03*
X64425Y16098D02*
D03*
D55*
X64425Y6732D02*
D03*
X64425Y13558D02*
D03*
X38293Y-16312D02*
D03*
X55521Y-1120D02*
D03*
X28346D02*
D03*
X25806D02*
D03*
X-4135D02*
D03*
X-6675D02*
D03*
X-25400Y-16355D02*
D03*
X-39176Y-1112D02*
D03*
X-36636D02*
D03*
X-57937Y-16362D02*
D03*
X7136Y-16322D02*
D03*
D56*
X40833Y-16312D02*
D03*
X52981Y-1120D02*
D03*
X23266D02*
D03*
X-9215D02*
D03*
X-22860Y-16355D02*
D03*
X-41716Y-1112D02*
D03*
X-55397Y-16362D02*
D03*
X9676Y-16322D02*
D03*
D57*
X-54300Y15710D02*
D03*
X-62300D02*
D03*
X-58300D02*
D03*
X-25741D02*
D03*
X-29741D02*
D03*
X-21741D02*
D03*
X10750D02*
D03*
X2750D02*
D03*
X6750D02*
D03*
X39441D02*
D03*
X35441D02*
D03*
X43441D02*
D03*
D58*
X20172Y10717D02*
D03*
X14160Y7599D02*
D03*
X9723Y7608D02*
D03*
X-12309Y10717D02*
D03*
X-18321Y7599D02*
D03*
X-22769Y7608D02*
D03*
X-44810Y10725D02*
D03*
X-50821Y7608D02*
D03*
X-55443D02*
D03*
X46612Y4179D02*
D03*
X23062Y6205D02*
D03*
X50256Y6089D02*
D03*
X48510Y6047D02*
D03*
X49518Y7655D02*
D03*
X51650Y6241D02*
D03*
X54783Y7001D02*
D03*
X23952Y12992D02*
D03*
X-6102Y11276D02*
D03*
X-8529Y12992D02*
D03*
X-40985Y13000D02*
D03*
X20708Y8905D02*
D03*
X25431Y9466D02*
D03*
X24119Y9436D02*
D03*
X26360Y11307D02*
D03*
X-7049Y9451D02*
D03*
X-11773Y8905D02*
D03*
X-8361Y9421D02*
D03*
X26559Y6733D02*
D03*
X27314Y3595D02*
D03*
X29252Y6205D02*
D03*
X20395Y6241D02*
D03*
X21123Y3595D02*
D03*
X-5923Y6782D02*
D03*
X-5167Y3595D02*
D03*
X-3229Y6205D02*
D03*
X-9419D02*
D03*
X-12086Y6241D02*
D03*
X-11358Y3595D02*
D03*
X-44618Y6254D02*
D03*
X-44273Y8913D02*
D03*
X-39550Y9429D02*
D03*
X-40861D02*
D03*
X-37668Y3604D02*
D03*
X-43896D02*
D03*
X-38628Y11295D02*
D03*
X-35727Y6212D02*
D03*
X-38424Y6790D02*
D03*
X-41957Y6214D02*
D03*
D59*
X58502Y-4002D02*
D03*
X60996D02*
D03*
X60996Y-5014D02*
D03*
X58502Y-4999D02*
D03*
X60165D02*
D03*
X59334D02*
D03*
X63178Y2301D02*
D03*
X64010Y2286D02*
D03*
X64841D02*
D03*
X65672D02*
D03*
X63178Y1503D02*
D03*
X64010Y1489D02*
D03*
X64841D02*
D03*
X65672D02*
D03*
X63178Y706D02*
D03*
X64010Y691D02*
D03*
X64841D02*
D03*
X65672D02*
D03*
X63178Y-92D02*
D03*
X64010Y-107D02*
D03*
X64841D02*
D03*
X65672D02*
D03*
X42855Y-12019D02*
D03*
X42420Y-4414D02*
D03*
X43722D02*
D03*
X65672Y-1703D02*
D03*
Y-905D02*
D03*
X64841D02*
D03*
X64010D02*
D03*
X63178Y-890D02*
D03*
X63178Y-1703D02*
D03*
X65752Y-3501D02*
D03*
X65752Y-4514D02*
D03*
X64921Y-4499D02*
D03*
X64090D02*
D03*
X63259D02*
D03*
Y-3501D02*
D03*
X62176Y13537D02*
D03*
X38573Y-5279D02*
D03*
X33713D02*
D03*
Y-6549D02*
D03*
Y-7819D02*
D03*
X44813Y-6441D02*
D03*
X3806Y8913D02*
D03*
X3817Y9757D02*
D03*
X3829Y10601D02*
D03*
X-28658D02*
D03*
X-28669Y9757D02*
D03*
X-28681Y8913D02*
D03*
X-61250D02*
D03*
X-61238Y9757D02*
D03*
X-61227Y10601D02*
D03*
X-53386Y-12012D02*
D03*
X4374Y-10773D02*
D03*
X3362Y-12810D02*
D03*
X6744Y-12382D02*
D03*
X5244Y-9440D02*
D03*
X11698Y-12029D02*
D03*
X11263Y-4414D02*
D03*
X12565D02*
D03*
X13656Y-6451D02*
D03*
X2556Y-7819D02*
D03*
Y-5279D02*
D03*
X-29125Y-12794D02*
D03*
X-28113Y-10757D02*
D03*
X-25743Y-12367D02*
D03*
X-27243Y-9423D02*
D03*
X-19922Y-4399D02*
D03*
X-21223D02*
D03*
X-18831Y-6436D02*
D03*
X-20816Y-12029D02*
D03*
X-29931Y-5264D02*
D03*
Y-7804D02*
D03*
X-58312Y-12405D02*
D03*
X-60754Y-10795D02*
D03*
X-61766Y-12832D02*
D03*
X-59812Y-9461D02*
D03*
X-62500Y-7842D02*
D03*
Y-5302D02*
D03*
X-53792Y-4437D02*
D03*
X-52491D02*
D03*
X-51400Y-6474D02*
D03*
D60*
X53985Y13431D02*
D03*
X52872D02*
D03*
X55099D02*
D03*
X56212D02*
D03*
X57325D02*
D03*
X58439D02*
D03*
Y14544D02*
D03*
Y15657D02*
D03*
Y16771D02*
D03*
X57325Y14544D02*
D03*
Y15657D02*
D03*
Y16771D02*
D03*
X56212Y14544D02*
D03*
Y15657D02*
D03*
Y16771D02*
D03*
X55099Y14544D02*
D03*
Y15657D02*
D03*
Y16771D02*
D03*
X71109Y17343D02*
D03*
Y18457D02*
D03*
Y16230D02*
D03*
Y8437D02*
D03*
Y10663D02*
D03*
Y9550D02*
D03*
Y12890D02*
D03*
Y11777D02*
D03*
Y15117D02*
D03*
Y14003D02*
D03*
Y6210D02*
D03*
Y7323D02*
D03*
Y3983D02*
D03*
Y5097D02*
D03*
Y1757D02*
D03*
Y2870D02*
D03*
Y643D02*
D03*
Y-1583D02*
D03*
Y-470D02*
D03*
X67769D02*
D03*
Y-1583D02*
D03*
Y643D02*
D03*
X68883Y-470D02*
D03*
Y-1583D02*
D03*
Y643D02*
D03*
X69996Y-470D02*
D03*
Y-1583D02*
D03*
Y643D02*
D03*
Y2870D02*
D03*
Y1757D02*
D03*
X68883Y2870D02*
D03*
Y1757D02*
D03*
X67769Y2870D02*
D03*
Y1757D02*
D03*
X69996Y5097D02*
D03*
Y3983D02*
D03*
X68883Y5097D02*
D03*
Y3983D02*
D03*
X67769D02*
D03*
X69996Y7323D02*
D03*
Y6210D02*
D03*
X68883Y7323D02*
D03*
Y6210D02*
D03*
X67769Y14003D02*
D03*
Y15117D02*
D03*
X68883Y14003D02*
D03*
Y15117D02*
D03*
X69996Y14003D02*
D03*
Y15117D02*
D03*
X67769Y12890D02*
D03*
X68883Y11777D02*
D03*
Y12890D02*
D03*
X69996Y11777D02*
D03*
Y12890D02*
D03*
X68883Y9550D02*
D03*
Y10663D02*
D03*
X69996Y9550D02*
D03*
Y10663D02*
D03*
Y8437D02*
D03*
X68883D02*
D03*
X69996Y16230D02*
D03*
X68883D02*
D03*
X67769D02*
D03*
Y18457D02*
D03*
X68883D02*
D03*
X69996D02*
D03*
Y17343D02*
D03*
X68883D02*
D03*
X67769D02*
D03*
X69996Y19570D02*
D03*
X68883D02*
D03*
X67769D02*
D03*
X42852Y13431D02*
D03*
X43965D02*
D03*
X51759D02*
D03*
X50645D02*
D03*
X49532D02*
D03*
X48419D02*
D03*
X47305D02*
D03*
X45079D02*
D03*
X46192D02*
D03*
Y14544D02*
D03*
Y15657D02*
D03*
X45079D02*
D03*
Y14544D02*
D03*
Y16771D02*
D03*
X46192D02*
D03*
X47305D02*
D03*
Y15657D02*
D03*
Y14544D02*
D03*
X48419D02*
D03*
Y15657D02*
D03*
Y16771D02*
D03*
X49532Y14544D02*
D03*
Y15657D02*
D03*
Y16771D02*
D03*
X50645Y14544D02*
D03*
Y15657D02*
D03*
Y16771D02*
D03*
X51759D02*
D03*
Y15657D02*
D03*
Y14544D02*
D03*
X52872Y16771D02*
D03*
Y15657D02*
D03*
Y14544D02*
D03*
X53985Y16771D02*
D03*
Y15657D02*
D03*
Y14544D02*
D03*
X-70113Y19754D02*
D03*
X-69000D02*
D03*
X-67887D02*
D03*
X-66773D02*
D03*
X-65660D02*
D03*
X-69000Y17527D02*
D03*
X-70113D02*
D03*
X-71227D02*
D03*
X-67887D02*
D03*
X-66773D02*
D03*
X-65660D02*
D03*
Y18641D02*
D03*
X-66773D02*
D03*
X-67887D02*
D03*
X-69000D02*
D03*
X-70113D02*
D03*
X-71227D02*
D03*
X52294Y561D02*
D03*
Y1674D02*
D03*
X51181Y2788D02*
D03*
Y1674D02*
D03*
Y-1666D02*
D03*
Y-552D02*
D03*
Y561D02*
D03*
X50068Y2788D02*
D03*
Y1674D02*
D03*
Y-1666D02*
D03*
Y-552D02*
D03*
Y561D02*
D03*
X48954Y2788D02*
D03*
Y1674D02*
D03*
Y-1666D02*
D03*
Y-552D02*
D03*
Y561D02*
D03*
X20135Y1932D02*
D03*
Y-1408D02*
D03*
Y-294D02*
D03*
X19022Y819D02*
D03*
Y1932D02*
D03*
X47841Y561D02*
D03*
Y-552D02*
D03*
Y-1666D02*
D03*
Y1674D02*
D03*
Y2788D02*
D03*
X16795Y819D02*
D03*
Y-1408D02*
D03*
Y4159D02*
D03*
X46728Y561D02*
D03*
Y-552D02*
D03*
Y-1666D02*
D03*
Y1674D02*
D03*
Y2788D02*
D03*
X17908Y-1408D02*
D03*
Y819D02*
D03*
X15682D02*
D03*
Y-1408D02*
D03*
Y-294D02*
D03*
X16795Y1932D02*
D03*
X45614Y561D02*
D03*
Y-552D02*
D03*
Y-1666D02*
D03*
Y1674D02*
D03*
Y2788D02*
D03*
X44501D02*
D03*
Y1674D02*
D03*
Y-1666D02*
D03*
Y-552D02*
D03*
Y561D02*
D03*
X43388D02*
D03*
X42274D02*
D03*
Y-1666D02*
D03*
Y-552D02*
D03*
X43388D02*
D03*
Y-1666D02*
D03*
Y1674D02*
D03*
X42274D02*
D03*
Y2788D02*
D03*
X43388D02*
D03*
Y3901D02*
D03*
X42274D02*
D03*
X26683Y15323D02*
D03*
X28910Y13096D02*
D03*
X30023D02*
D03*
X32250D02*
D03*
X31137D02*
D03*
X25570Y15323D02*
D03*
X26683Y16436D02*
D03*
X25570D02*
D03*
X24061D02*
D03*
X22948D02*
D03*
X21835D02*
D03*
X27797D02*
D03*
Y15323D02*
D03*
Y14210D02*
D03*
X28910Y16436D02*
D03*
Y15323D02*
D03*
Y14210D02*
D03*
X30023Y16436D02*
D03*
Y15323D02*
D03*
Y14210D02*
D03*
X31137D02*
D03*
Y15323D02*
D03*
X32250Y14210D02*
D03*
Y15323D02*
D03*
Y16436D02*
D03*
X31137D02*
D03*
X-18450Y13096D02*
D03*
X-19563D02*
D03*
X-17337D02*
D03*
X-16223D02*
D03*
X-1355Y16436D02*
D03*
X-241D02*
D03*
Y15323D02*
D03*
Y14210D02*
D03*
X-1355Y15323D02*
D03*
Y14210D02*
D03*
X-2468D02*
D03*
Y15323D02*
D03*
Y16436D02*
D03*
X-3581Y14210D02*
D03*
Y15323D02*
D03*
Y16436D02*
D03*
X-4695Y14210D02*
D03*
Y15323D02*
D03*
Y16436D02*
D03*
X-10657D02*
D03*
X-9543D02*
D03*
X-8430D02*
D03*
X-6922D02*
D03*
X-5808D02*
D03*
X-6922Y15323D02*
D03*
X-1355Y13096D02*
D03*
X-241D02*
D03*
X-2468D02*
D03*
X-3581D02*
D03*
X-5808Y15323D02*
D03*
X-38367D02*
D03*
X12928Y13096D02*
D03*
X14041D02*
D03*
X-36140D02*
D03*
X-35027D02*
D03*
X-32800D02*
D03*
X-33913D02*
D03*
X-39480Y15323D02*
D03*
X-38367Y16436D02*
D03*
X-39480D02*
D03*
X-40989D02*
D03*
X-42102D02*
D03*
X-43215D02*
D03*
X14568Y4159D02*
D03*
X15682D02*
D03*
Y3046D02*
D03*
X14568D02*
D03*
Y1932D02*
D03*
X15682D02*
D03*
X14568Y-294D02*
D03*
Y-1408D02*
D03*
Y819D02*
D03*
X16795Y-294D02*
D03*
Y3046D02*
D03*
X17908Y1932D02*
D03*
Y-294D02*
D03*
X19022Y-1408D02*
D03*
Y-294D02*
D03*
X20135Y819D02*
D03*
X21248Y-1408D02*
D03*
Y-294D02*
D03*
Y819D02*
D03*
X-17913Y4159D02*
D03*
X-16800D02*
D03*
Y3046D02*
D03*
X-17913D02*
D03*
Y1932D02*
D03*
X-16800D02*
D03*
Y-1408D02*
D03*
Y-294D02*
D03*
X-17913D02*
D03*
Y-1408D02*
D03*
Y819D02*
D03*
X-16800D02*
D03*
X-15686D02*
D03*
Y-294D02*
D03*
Y-1408D02*
D03*
Y1932D02*
D03*
Y3046D02*
D03*
Y4159D02*
D03*
X-14573Y1932D02*
D03*
Y-1408D02*
D03*
Y-294D02*
D03*
Y819D02*
D03*
X-13460Y1932D02*
D03*
Y-1408D02*
D03*
Y-294D02*
D03*
Y819D02*
D03*
X-12346Y1932D02*
D03*
Y-1408D02*
D03*
Y-294D02*
D03*
Y819D02*
D03*
X-11233Y-1408D02*
D03*
Y-294D02*
D03*
Y819D02*
D03*
X-43733Y827D02*
D03*
Y-286D02*
D03*
Y-1399D02*
D03*
X-44847Y827D02*
D03*
Y-286D02*
D03*
Y-1399D02*
D03*
Y1941D02*
D03*
X-45960Y827D02*
D03*
Y-286D02*
D03*
Y-1399D02*
D03*
Y1941D02*
D03*
X-47073Y827D02*
D03*
Y-286D02*
D03*
Y-1399D02*
D03*
Y1941D02*
D03*
X15155Y14210D02*
D03*
Y15323D02*
D03*
Y16436D02*
D03*
X16268Y14210D02*
D03*
Y15323D02*
D03*
Y16436D02*
D03*
X17381Y14210D02*
D03*
Y15323D02*
D03*
Y16436D02*
D03*
X18495Y14210D02*
D03*
Y15323D02*
D03*
Y16436D02*
D03*
X19608Y14210D02*
D03*
Y15323D02*
D03*
Y16436D02*
D03*
X20721D02*
D03*
Y15323D02*
D03*
Y14210D02*
D03*
X-17337D02*
D03*
Y15323D02*
D03*
Y16436D02*
D03*
X-16223Y14210D02*
D03*
Y15323D02*
D03*
Y16436D02*
D03*
X-15110Y14210D02*
D03*
Y15323D02*
D03*
Y16436D02*
D03*
X-13997Y14210D02*
D03*
Y15323D02*
D03*
Y16436D02*
D03*
X-12883Y14210D02*
D03*
Y15323D02*
D03*
Y16436D02*
D03*
X-11770D02*
D03*
Y15323D02*
D03*
Y14210D02*
D03*
X-44329D02*
D03*
Y15323D02*
D03*
Y16436D02*
D03*
X-48782Y13096D02*
D03*
X-49895D02*
D03*
Y12016D02*
D03*
X-45442Y16436D02*
D03*
Y15323D02*
D03*
Y14210D02*
D03*
X-46555Y16436D02*
D03*
Y15323D02*
D03*
Y14210D02*
D03*
X-47669Y16436D02*
D03*
Y15323D02*
D03*
Y14210D02*
D03*
X-48782Y16436D02*
D03*
Y15323D02*
D03*
Y14210D02*
D03*
X-49895Y16436D02*
D03*
Y15323D02*
D03*
Y14210D02*
D03*
X-37253Y16436D02*
D03*
Y15323D02*
D03*
Y14210D02*
D03*
X-36140Y16436D02*
D03*
Y15323D02*
D03*
Y14210D02*
D03*
X-35027Y16436D02*
D03*
Y15323D02*
D03*
Y14210D02*
D03*
X-51009Y12016D02*
D03*
X-52122D02*
D03*
X-53235D02*
D03*
X32250Y-1377D02*
D03*
Y-264D02*
D03*
X31137Y-1377D02*
D03*
Y-264D02*
D03*
X32250Y850D02*
D03*
X31137D02*
D03*
Y3076D02*
D03*
X32250D02*
D03*
X31137Y1963D02*
D03*
X32250D02*
D03*
X31137Y4190D02*
D03*
X32250D02*
D03*
X-241Y-1377D02*
D03*
Y-264D02*
D03*
X-1355Y-1377D02*
D03*
Y-264D02*
D03*
X-241Y850D02*
D03*
X-1355D02*
D03*
Y3076D02*
D03*
X-241D02*
D03*
X-1355Y1963D02*
D03*
X-241D02*
D03*
X-1355Y4190D02*
D03*
X-241D02*
D03*
X-32800D02*
D03*
X-33913D02*
D03*
X-32800Y1963D02*
D03*
X-33913D02*
D03*
X-32800Y3076D02*
D03*
X-33913D02*
D03*
Y850D02*
D03*
X-32800D02*
D03*
X-48187Y4167D02*
D03*
Y3054D02*
D03*
Y1941D02*
D03*
Y-1399D02*
D03*
Y-286D02*
D03*
Y827D02*
D03*
X-49300D02*
D03*
X-50413D02*
D03*
Y-1399D02*
D03*
Y-286D02*
D03*
X-49300D02*
D03*
Y-1399D02*
D03*
Y1941D02*
D03*
X-50413D02*
D03*
Y3054D02*
D03*
X-49300D02*
D03*
Y4167D02*
D03*
X-50413D02*
D03*
X-33913Y-264D02*
D03*
Y-1377D02*
D03*
X-32800Y-264D02*
D03*
Y-1377D02*
D03*
X-33913Y14210D02*
D03*
Y15323D02*
D03*
X-32800Y14210D02*
D03*
Y15323D02*
D03*
Y16436D02*
D03*
X-33913D02*
D03*
X-71227Y16414D02*
D03*
X-70113D02*
D03*
X-69000D02*
D03*
X-67887D02*
D03*
X-66773D02*
D03*
X-65660D02*
D03*
X-69000Y8621D02*
D03*
X-70113D02*
D03*
X-71227D02*
D03*
X-67887D02*
D03*
X-66773D02*
D03*
X-65660D02*
D03*
Y10847D02*
D03*
Y9734D02*
D03*
X-66773Y10847D02*
D03*
Y9734D02*
D03*
X-67887Y10847D02*
D03*
Y9734D02*
D03*
X-69000D02*
D03*
X-70113D02*
D03*
X-71227D02*
D03*
Y10847D02*
D03*
X-70113D02*
D03*
X-69000D02*
D03*
X-65660Y13074D02*
D03*
Y11961D02*
D03*
X-66773Y13074D02*
D03*
Y11961D02*
D03*
X-67887Y13074D02*
D03*
Y11961D02*
D03*
X-69000D02*
D03*
X-70113D02*
D03*
X-71227D02*
D03*
Y13074D02*
D03*
X-70113D02*
D03*
X-69000D02*
D03*
X-65660Y15301D02*
D03*
Y14187D02*
D03*
X-66773Y15301D02*
D03*
Y14187D02*
D03*
X-67887Y15301D02*
D03*
Y14187D02*
D03*
X-69000D02*
D03*
X-70113D02*
D03*
X-71227D02*
D03*
Y15301D02*
D03*
X-70113D02*
D03*
X-69000D02*
D03*
Y7507D02*
D03*
X-70113D02*
D03*
X-71227D02*
D03*
Y6394D02*
D03*
X-70113D02*
D03*
X-69000D02*
D03*
X-67887D02*
D03*
Y7507D02*
D03*
X-66773Y6394D02*
D03*
Y7507D02*
D03*
X-65660Y6394D02*
D03*
Y7507D02*
D03*
X-69000Y5281D02*
D03*
X-70113D02*
D03*
X-71227D02*
D03*
Y4167D02*
D03*
X-70113D02*
D03*
X-69000D02*
D03*
X-67887D02*
D03*
Y5281D02*
D03*
X-66773Y4167D02*
D03*
Y5281D02*
D03*
X-65660Y4167D02*
D03*
Y5281D02*
D03*
X-69000Y3054D02*
D03*
X-70113D02*
D03*
X-71227D02*
D03*
Y1941D02*
D03*
X-70113D02*
D03*
X-69000D02*
D03*
X-67887D02*
D03*
Y3054D02*
D03*
X-66773Y1941D02*
D03*
Y3054D02*
D03*
X-65660Y1941D02*
D03*
Y3054D02*
D03*
Y827D02*
D03*
Y-1399D02*
D03*
Y-286D02*
D03*
X-66773Y827D02*
D03*
Y-1399D02*
D03*
Y-286D02*
D03*
X-67887Y827D02*
D03*
Y-1399D02*
D03*
Y-286D02*
D03*
X-69000D02*
D03*
Y-1399D02*
D03*
X-70113D02*
D03*
Y-286D02*
D03*
X-71227D02*
D03*
Y-1399D02*
D03*
Y827D02*
D03*
X-70113D02*
D03*
X-69000D02*
D03*
X14041Y14210D02*
D03*
X12928D02*
D03*
Y15323D02*
D03*
X14041D02*
D03*
Y16436D02*
D03*
X12928D02*
D03*
X-19563D02*
D03*
X-18450D02*
D03*
Y15323D02*
D03*
X-19563D02*
D03*
Y14210D02*
D03*
X-18450D02*
D03*
X-53235D02*
D03*
Y13096D02*
D03*
X-52122D02*
D03*
X-51009D02*
D03*
Y14210D02*
D03*
X-52122D02*
D03*
Y15323D02*
D03*
X-51009D02*
D03*
Y16436D02*
D03*
X-52122D02*
D03*
M02*
