G04*
G04 #@! TF.GenerationSoftware,Altium Limited,Altium Designer,22.5.1 (42)*
G04*
G04 Layer_Color=16711935*
%FSLAX43Y43*%
%MOMM*%
G71*
G04*
G04 #@! TF.SameCoordinates,4758D546-D6FF-4842-BEF5-D4663405D71A*
G04*
G04*
G04 #@! TF.FilePolarity,Positive*
G04*
G01*
G75*
%ADD61C,0.100*%
%ADD62C,0.100*%
D61*
X72550Y17001D02*
D03*
X72550D02*
D03*
X-68501Y-21049D02*
D03*
X-68501D02*
D03*
D62*
X72550Y17001D02*
G03*
X68612Y21049I-4050J-1D01*
G01*
Y21049D02*
G03*
X68600Y21051I-12J-48D01*
G01*
X68612Y21049D02*
G03*
X68600Y21051I-12J-48D01*
G01*
X72548Y-17112D02*
G03*
X72550Y-17099I-48J12D01*
G01*
X72548Y-17112D02*
G03*
X72550Y-17099I-48J12D01*
G01*
X68500Y-21049D02*
G03*
X72548Y-17112I-0J4050D01*
G01*
X-68600Y21051D02*
G03*
X-68612Y21049I0J-50D01*
G01*
X-68600Y21051D02*
G03*
X-68612Y21049I0J-50D01*
G01*
D02*
G03*
X-72550Y17001I112J-4048D01*
G01*
Y-17099D02*
G03*
X-72550Y-17101I50J0D01*
G01*
D02*
G03*
X-68501Y-21049I4049J101D01*
G01*
X-72550Y-17099D02*
G03*
X-72550Y-17101I50J0D01*
G01*
X72550Y-17099D02*
X72550Y17001D01*
X-68600Y21051D02*
X68600D01*
X68500Y-21049D02*
X68500D01*
X-68501D02*
X68500D01*
X-68501D02*
X-68501D01*
X-72550Y-17099D02*
X-72550Y17001D01*
M02*
