G04*
G04 #@! TF.GenerationSoftware,Altium Limited,Altium Designer,22.6.1 (34)*
G04*
G04 Layer_Color=16711935*
%FSLAX43Y43*%
%MOMM*%
G71*
G04*
G04 #@! TF.SameCoordinates,0FC3826A-A7BB-4A87-9495-0F633158E898*
G04*
G04*
G04 #@! TF.FilePolarity,Negative*
G04*
G01*
G75*
%ADD32R,1.800X1.800*%
%ADD33C,1.800*%
%ADD34R,1.800X1.800*%
%ADD35C,2.200*%
D32*
X64425Y4192D02*
D03*
X64425Y16098D02*
D03*
D33*
X64425Y6732D02*
D03*
X64425Y13558D02*
D03*
X38293Y-16312D02*
D03*
X55521Y-1120D02*
D03*
X28346D02*
D03*
X25806D02*
D03*
X-4135D02*
D03*
X-6675D02*
D03*
X-25400Y-16355D02*
D03*
X-39176Y-1112D02*
D03*
X-36636D02*
D03*
X-57937Y-16362D02*
D03*
X7136Y-16322D02*
D03*
D34*
X40833Y-16312D02*
D03*
X52981Y-1120D02*
D03*
X23266D02*
D03*
X-9215D02*
D03*
X-22860Y-16355D02*
D03*
X-41716Y-1112D02*
D03*
X-55397Y-16362D02*
D03*
X9676Y-16322D02*
D03*
D35*
X-54300Y15710D02*
D03*
X-62300D02*
D03*
X-58300D02*
D03*
X-25741D02*
D03*
X-29741D02*
D03*
X-21741D02*
D03*
X10750D02*
D03*
X2750D02*
D03*
X6750D02*
D03*
X39441D02*
D03*
X35441D02*
D03*
X43441D02*
D03*
M02*
