M48
;Layer_Color=9474304
;FILE_FORMAT=4:3
METRIC,LZ
;TYPE=PLATED
T1F00S00C0.200
T2F00S00C0.300
T3F00S00C0.500
T4F00S00C0.900
T5F00S00C1.200
%
T01
X-0055443Y0007608
X-0050821
X-0044618Y0006254
X-0041957Y0006214
X-0038424Y000679
X-0035727Y0006212
X-0037668Y0003604
X-0043896
X-0044273Y0008913
X-004481Y0010725
X-0040861Y0009429
X-003955
X-0038628Y0011295
X-0040985Y0013
X-0022769Y0007608
X-0018321Y0007599
X-0012086Y0006241
X-0009419Y0006205
X-0005923Y0006782
X-0003229Y0006205
X-0005167Y0003595
X-0011358
X-0011773Y0008905
X-0012309Y0010717
X-0008361Y0009421
X-0007049Y0009451
X-0006102Y0011276
X-0008529Y0012992
X0009723Y0007608
X001416Y0007599
X0020395Y0006241
X0023062Y0006205
X0026559Y0006733
X0025431Y0009466
X0024119Y0009436
X0023952Y0012992
X002636Y0011307
X0020172Y0010717
X0020708Y0008905
X0021123Y0003595
X0027314
X0029252Y0006205
X0046612Y0004179
X004851Y0006047
X0050256Y0006089
X005165Y0006241
X0049518Y0007655
X0054783Y0007001
T02
X0042855Y-0012019
X0011698Y-0012029
X0006744Y-0012382
X0003362Y-001281
X0004374Y-0010773
X0005244Y-000944
X-0020816Y-0012029
X-0025743Y-0012367
X-0029125Y-0012794
X-0028113Y-0010757
X-0027243Y-0009423
X-0053386Y-0012012
X-0058312Y-0012405
X-0061766Y-0012832
X-0060754Y-0010795
X-0059812Y-0009461
X-00625Y-0007842
Y-0005302
X-0053792Y-0004437
X-006125Y0008913
X-0061238Y0009757
X-0061227Y0010601
X-0052491Y-0004437
X-00514Y-0006474
X-0029931Y-0005264
Y-0007804
X-0021223Y-0004399
X-0019922
X-0018831Y-0006436
X-0028681Y0008913
X-0028669Y0009757
X-0028658Y0010601
X0003829
X0003817Y0009757
X0003806Y0008913
X0002556Y-0005279
Y-0007819
X0011263Y-0004414
X0012565
X0013656Y-0006451
X0033713Y-0006549
Y-0005279
Y-0007819
X0038573Y-0005279
X004242Y-0004414
X0043722
X0044813Y-0006441
X0058502Y-0004999
X0059334
X0060165
X0060996Y-0005014
X0060996Y-0004002
X0058502
X0063259Y-0004499
X006409
X0064921
X0065752Y-0004514
X0065752Y-0003501
X0065672Y-0001703
Y-0000905
Y-0000107
Y0000691
Y0001489
Y0002286
X0064841
Y0001489
Y0000691
Y-0000107
Y-0000905
X006401
Y-0000107
Y0000691
Y0001489
Y0002286
X0063178Y0002301
Y0001503
Y0000706
Y-0000092
Y-000089
X0063178Y-0001703
X0063259Y-0003501
X0062176Y0013537
T03
X-0071227Y-0001399
X-0070113
X-0069
X-0067887
X-0066773
X-006566
Y-0000286
Y0000827
Y0001941
X-0066773
X-0067887
X-0069
Y0003054
Y0004167
Y0005281
Y0006394
Y0007507
Y0008621
X-0070113
X-0071227
Y0009734
X-0070113
X-0069
X-0067887
Y0008621
X-0066773
X-006566
Y0009734
Y0010847
X-0066773
Y0009734
X-0067887Y0010847
X-0069
X-0070113
X-0071227
Y0011961
X-0070113
X-0069
X-0067887
X-0066773
X-006566
Y0013074
X-0066773
X-0067887
X-0069
X-0070113
X-0071227
Y0014187
X-0070113
X-0069
X-0067887
X-0066773
X-006566
Y0015301
Y0016414
Y0017527
X-0066773
X-0067887
X-0069
X-0070113
X-0071227
Y0018641
X-0070113
Y0019754
X-0069
X-0067887
X-0066773
X-006566
Y0018641
X-0066773
X-0067887
X-0069
Y0016414
X-0070113
X-0071227
Y0015301
X-0070113
X-0069
X-0067887
Y0016414
X-0066773
Y0015301
Y0007507
X-0067887
Y0006394
X-0066773
X-006566
Y0007507
Y0005281
X-0066773
X-0067887
Y0004167
X-0066773
X-006566
Y0003054
X-0066773
X-0067887
X-0070113
Y0004167
Y0005281
Y0006394
Y0007507
X-0071227
Y0006394
Y0005281
Y0004167
Y0003054
Y0001941
X-0070113
Y0000827
Y-0000286
X-0069
X-0067887
X-0066773
Y0000827
X-0067887
X-0069
X-0071227
Y-0000286
X-0053235Y0012016
Y0013096
Y001421
X-0052122
Y0013096
Y0012016
X-0051009
Y0013096
X-0049895
Y0012016
X-0048782Y0013096
Y001421
X-0047669
X-0046555
X-0045442
X-0044329
Y0015323
Y0016436
X-0043215
X-0042102
X-0040989
X-003948
Y0015323
X-0038367
Y0016436
X-0037253
Y0015323
Y001421
X-003614
Y0013096
X-0035027
X-0033913
X-00328
Y001421
X-0033913
X-0035027
Y0015323
X-003614
Y0016436
X-0035027
X-0033913
Y0015323
X-00328
Y0016436
Y000419
X-0033913
Y0003076
Y0001963
X-00328
Y0003076
Y000085
X-0033913
Y-0000264
Y-0001377
X-00328
Y-0000264
X-0043733Y-0000286
Y0000827
X-0044847
Y-0000286
Y-0001399
X-0043733
X-004596
Y-0000286
Y0000827
Y0001941
X-0044847
X-0047073
Y0000827
Y-0000286
Y-0001399
X-0048187
Y-0000286
Y0000827
Y0001941
Y0003054
Y0004167
X-00493
Y0003054
Y0001941
Y0000827
X-0050413
Y-0000286
Y-0001399
X-00493
Y-0000286
X-0050413Y0001941
Y0003054
Y0004167
X-0049895Y001421
Y0015323
X-0048782
X-0047669
X-0046555
X-0045442
Y0016436
X-0046555
X-0047669
X-0048782
X-0049895
X-0051009
Y0015323
Y001421
X-0052122Y0015323
Y0016436
X-0019563
X-001845
X-0017337
Y0015323
Y001421
Y0013096
X-001845
X-0019563
Y001421
Y0015323
X-001845
Y001421
X-0016223
Y0013096
Y0015323
Y0016436
X-001511
Y0015323
Y001421
X-0013997
Y0015323
Y0016436
X-0012883
Y0015323
Y001421
X-0015686Y0004159
X-00168
X-0017913
Y0003046
X-00168
Y0001932
X-0017913
Y0000819
Y-0000294
X-00168
Y-0001408
X-0017913
X-0015686
Y-0000294
Y0000819
X-00168
X-0015686Y0001932
Y0003046
X-0014573Y0001932
Y0000819
Y-0000294
Y-0001408
X-001346
Y-0000294
Y0000819
Y0001932
X-0012346
Y0000819
Y-0000294
Y-0001408
X-0011233
Y-0000294
Y0000819
X-0001355Y000085
Y-0000264
X-0000241
Y-0001377
X-0001355
X-0000241Y000085
Y0001963
Y0003076
X-0001355
Y0001963
Y000419
X-0000241
Y0013096
Y001421
Y0015323
Y0016436
X-0001355
Y0015323
Y001421
X-0002468
Y0015323
Y0016436
X-0003581
Y0015323
Y001421
X-0004695
Y0015323
Y0016436
X-0005808
X-0006922
Y0015323
X-0005808
X-000843Y0016436
X-0009543
X-0010657
X-001177
Y0015323
Y001421
X-0003581Y0013096
X-0002468
X-0001355
X0012928
X0014041
Y001421
X0015155
Y0015323
Y0016436
X0016268
Y0015323
Y001421
X0017381
Y0015323
Y0016436
X0018495
Y0015323
Y001421
X0019608
Y0015323
Y0016436
X0020721
X0021835
X0022948
X0024061
X002557
Y0015323
X0026683
Y0016436
X0020721Y0015323
Y001421
X0012928
Y0015323
X0014041
Y0016436
X0012928
X0014568Y0004159
X0015682
X0016795
Y0003046
Y0001932
Y0000819
X0017908
X0019022
Y0001932
X0020135
Y0000819
Y-0000294
Y-0001408
X0019022
X0017908
X0016795
X0015682
Y-0000294
Y0000819
Y0001932
Y0003046
X0014568
Y0001932
Y0000819
Y-0000294
Y-0001408
X0016795Y-0000294
X0017908
X0019022
X0021248
Y-0001408
Y0000819
X0017908Y0001932
X0031137Y0001963
Y000085
Y-0000264
X003225
Y-0001377
X0031137
X003225Y000085
Y0001963
Y0003076
X0031137
Y000419
X003225
Y0013096
X0031137
X0030023
X002891
Y001421
X0027797
Y0015323
Y0016436
X002891
Y0015323
X0030023
Y0016436
X0031137
Y0015323
Y001421
X0030023
X003225
Y0015323
Y0016436
X0045079Y0016771
Y0015657
X0046192
Y0014544
Y0013431
X0047305
X0048419
X0049532
X0050645
X0051759
X0052872
X0053985
X0055099
X0056212
X0057325
X0058439
Y0014544
Y0015657
Y0016771
X0057325
Y0015657
Y0014544
X0056212
Y0015657
Y0016771
X0055099
Y0015657
Y0014544
X0053985
X0052872
X0051759
X0050645
X0049532
X0048419
X0047305
Y0015657
Y0016771
X0046192
X0048419
Y0015657
X0049532
Y0016771
X0050645
Y0015657
X0051759
Y0016771
X0052872
Y0015657
X0053985
Y0016771
X0045079Y0014544
Y0013431
X0043965
X0042852
X0043388Y0003901
Y0002788
X0044501
X0045614
X0046728
X0047841
X0048954
X0050068
X0051181
Y0001674
X0052294
Y0000561
X0051181
Y-0000552
Y-0001666
X0050068
Y-0000552
Y0000561
Y0001674
X0048954
Y0000561
Y-0000552
Y-0001666
X0047841
Y-0000552
Y0000561
Y0001674
X0046728
Y0000561
Y-0000552
Y-0001666
X0045614
Y-0000552
Y0000561
Y0001674
X0044501
Y0000561
Y-0000552
Y-0001666
X0043388
X0042274
Y-0000552
Y0000561
X0043388
Y-0000552
Y0001674
X0042274
Y0002788
Y0003901
X0067769Y0003983
Y000287
X0068883
X0069996
X0071109
Y0003983
Y0005097
Y000621
Y0007323
Y0008437
Y000955
Y0010663
Y0011777
Y001289
Y0014003
Y0015117
Y001623
Y0017343
Y0018457
X0069996
X0068883
X0067769
Y0017343
Y001623
Y0015117
Y0014003
X0068883
Y0015117
X0069996
Y0014003
Y001289
X0068883
X0067769
X0068883Y0011777
X0069996
Y0010663
X0068883
Y000955
X0069996
Y0008437
Y0007323
Y000621
Y0005097
Y0003983
X0068883
Y0005097
Y000621
Y0007323
Y0008437
Y0001757
Y0000643
X0067769
Y-000047
Y-0001583
X0068883
Y-000047
X0069996
X0071109
Y0000643
Y0001757
X0069996
Y0000643
Y-0001583
X0071109
X0067769Y0001757
X0068883Y001623
X0069996
Y0017343
X0068883
Y001957
X0069996
X0067769
T04
X0038293Y-0016312
X0040833
X0009676Y-0016322
X0007136
X-002286Y-0016355
X-00254
X-0055397Y-0016362
X-0057937
X-0041716Y-0001112
X-0039176
X-0036636
X-0009215Y-000112
X-0006675
X-0004135
X0023266
X0025806
X0028346
X0052981
X0055521
X0064425Y0004192
Y0006732
X0064425Y0013558
Y0016098
T05
X-00623Y001571
X-00583
X-00543
X-0029741
X-0025741
X-0021741
X000275
X000675
X001075
X0035441
X0039441
X0043441
M30
